<?xml version="1.0" encoding="utf-8"?>
<!-- Generator: Adobe Illustrator 22.0.0, SVG Export Plug-In . SVG Version: 6.00 Build 0)  -->
<svg version="1.1" id="Слой_1" xmlns="http://www.w3.org/2000/svg" xmlns:xlink="http://www.w3.org/1999/xlink" x="0px" y="0px"
	 viewBox="0 0 562.4 560.6" style="enable-background:new 0 0 562.4 560.6;" xml:space="preserve">
<style type="text/css">
	.st0{fill:#1C1C1B;}
	.st1{fill:#FFFFFF;stroke:#1C1C1B;stroke-miterlimit:10;}
	.st2{fill:#FFFFFF;}
	.st3{fill:none;stroke:#1C1C1B;stroke-miterlimit:10;}
</style>
<g>
	<g>
		<g>
			<path class="st0" d="M147.2,196.6c1.7,1.8,3.2,3.6,4.7,5.6c0.6,0.9,3.4-0.1,2.7-1.2c-1.4-2-3-3.8-4.7-5.6
				C149.1,194.6,146.3,195.7,147.2,196.6L147.2,196.6z"/>
		</g>
	</g>
	<g>
		<g>
			<path class="st0" d="M148,196.9c1.2,0,3-1.8,1.1-1.8C147.9,195.1,146,196.9,148,196.9L148,196.9z"/>
		</g>
	</g>
	<g>
		<g>
			<path class="st0" d="M151.8,202.2c20.3,29.1,7.4,70.1-26.6,81.3c-1.7,0.6-1.3,2.2,0.4,1.6c16-5.3,29.1-16.7,35.3-32.5
				c6.8-17.2,4.1-36.5-6.5-51.6C153.9,200.2,151.1,201.2,151.8,202.2L151.8,202.2z"/>
		</g>
	</g>
	<g>
		<g>
			<path class="st0" d="M54.6,243.6c-9-24-0.1-51.8,22.4-64.8c24.5-14.2,55.7-5.4,70.6,18.2c0.7,1.1,3.4,0,2.7-1.3
				c-15.3-24.3-47.4-33-72.9-19.5c-24.4,12.9-35.3,42.3-25.7,68.1C52.2,245.6,55.1,244.8,54.6,243.6L54.6,243.6z"/>
		</g>
	</g>
	<g>
		<g>
			<path class="st0" d="M53,245c1.6,0,2.3-2,0.3-2C51.7,243,51,245,53,245L53,245z"/>
		</g>
	</g>
	<g>
		<g>
			<path class="st0" d="M147.6,197.1c17,28.6,4,66.4-27.8,77.4c-1.7,0.6-1.3,2.5,0.5,1.9c33.2-11.5,47.9-50.1,29.9-80.6
				C149.6,194.8,146.8,195.8,147.6,197.1L147.6,197.1z"/>
		</g>
	</g>
	<path class="st1" d="M155.2,239.6c2.2,0.3,4.4,0.7,6.6,1"/>
	<g>
		<g>
			<path class="st0" d="M103.9,191.9c-12.2,0.7-24.5,7.2-27.6,19.8c-2.8,11.4,4,23.7,16.2,25c5.4,0.6,10-1.5,14.1-4.9
				c3.9-3.2,7.6-8.8,12.6-10.1c8.9-2.4,11.3,9.1,8.3,15.1c-3.6,7.2-11.6,10.8-18.7,13.7c-4.4,1.8-2.5,9.1,2,7.2
				c11.4-4.7,24.5-11.7,25.7-25.5c1-11.1-9.2-21.5-20.4-17.5c-9.2,3.3-16.4,19.8-27.5,12.8c-6.4-4-6.8-12.3-3.3-18.4
				c3.8-6.6,11.4-9.4,18.6-9.8C108.7,199.1,108.7,191.6,103.9,191.9L103.9,191.9z"/>
		</g>
	</g>
	<g>
		<path class="st2" d="M75.6,195.5c19.9,16.5,39.8,33,59.7,49.5"/>
		<g>
			<path class="st0" d="M74.3,196.9c19.9,16.5,39.8,33,59.7,49.5c1.8,1.5,4.5-1.1,2.7-2.7c-19.9-16.5-39.8-33-59.7-49.5
				C75.1,192.7,72.4,195.3,74.3,196.9L74.3,196.9z"/>
		</g>
	</g>
	<g>
		<g>
			<path class="st0" d="M124.8,297.6c10.7,26.9,2.1,58.3-21.9,75.1c-23.7,16.6-56.5,13.2-77.2-6.8c-10.6-10.3-17.1-24-18.8-38.6
				c-0.1-0.7-3-0.1-2.9,0.8c3.3,28.8,25.9,52.2,54.7,56.1c26.9,3.6,54.3-10.4,66.7-34.6c8.4-16.4,9-35.7,2.2-52.8
				C127.4,296.1,124.5,297,124.8,297.6L124.8,297.6z"/>
		</g>
	</g>
	<g>
		<g>
			<path class="st0" d="M125.9,297.9c0.9,0,3.1-1.3,1.2-1.3C126.3,296.6,124,297.9,125.9,297.9L125.9,297.9z"/>
		</g>
	</g>
	<g>
		<g>
			<path class="st0" d="M54.3,248.2c25.8-4,51.6,8.2,64.3,31.2c12.4,22.4,9.4,51.1-7.4,70.4c-17,19.7-45.3,26.4-69.4,16.5
				c-23.2-9.5-38.7-33-38.4-58c0.3-29.7,22.1-55,51.3-60.2c1.8-0.3,1.3-2.4-0.6-2.1C27.8,250.7,6.3,271.4,1.5,298
				c-4.8,26.6,8.2,54,31.8,67.1c22.8,12.7,51.9,10.1,72.1-6.4c20.7-16.8,29.1-45.5,20.2-70.7c-10.3-29.4-40.7-46.7-71.2-42
				C53,246.2,52.4,248.5,54.3,248.2L54.3,248.2z"/>
		</g>
	</g>
	<path class="st1" d="M52.3,373.3c-0.2-1.2-0.4-2.5-0.6-3.7c0,4.5,0,8.9,0,13.4"/>
	<path class="st1" d="M76,369.5c2.5,4.3,5,8.6,7.5,12.9"/>
	<path class="st1" d="M102.5,360.6c1.3,2.9,2.6,5.9,3.9,8.8"/>
	<path class="st1" d="M115.3,347.7c2.3,1.3,4.5,2.6,6.8,3.9"/>
	<g>
		<g>
			<path class="st0" d="M79,274.3c-14.3-4.7-31.8-1.6-39.3,12.7c-6.2,11.8-1.4,27.6,12,31.7c6.4,2,12.8-0.2,18.7-2.7
				c5.9-2.5,14.5-6.9,19.5-0.4c5,6.5,1,14.9-4.9,19.2c-7.3,5.3-16.8,5.6-25.4,5.8c-4.8,0.1-4.8,7.6,0,7.5c14-0.3,31-2.5,38-16.6
				c5.3-10.7-0.3-25.7-13.3-26.7c-12.4-0.9-28.6,15.8-37.8,0.8c-4.4-7.1-1.3-15.8,4.7-20.9c7.3-6.1,17.3-5.9,25.9-3.1
				C81.6,283,83.6,275.7,79,274.3L79,274.3z"/>
		</g>
	</g>
	<g>
		<path class="st2" d="M47.1,265.7c14.7,26.5,29.4,53,44.2,79.5"/>
		<g>
			<path class="st0" d="M45.5,266.7c14.7,26.5,29.4,53,44.2,79.5c1.2,2.1,4.4,0.2,3.2-1.9c-14.7-26.5-29.4-53-44.2-79.5
				C47.6,262.7,44.3,264.6,45.5,266.7L45.5,266.7z"/>
		</g>
	</g>
	<path class="st0" d="M116.9,420c4.8-2.7,8.2-6.8,13-9.5c-6.9-10.6-17.1-19.6-29.1-25.7C105.9,397.1,111.8,407.8,116.9,420z"/>
	<path class="st0" d="M54.2,416.4c5.1,2.4,10.5,3.2,15.6,5.6c5.1-9.6,6.9-20.9,5.2-32.3C67.5,398.6,61.7,407.4,54.2,416.4z"/>
	<path class="st0" d="M155.9,383c1.2-4.1,0.8-8.3,2-12.4c-10.2-3.6-21.5-4.6-32-2.8C136,373.4,145.7,377.5,155.9,383z"/>
</g>
<g>
	<g>
		<g>
			<path class="st0" d="M260.9,527.8c-0.8-0.8-1.5-1.7-2-2.7c-0.4-0.8-3.2,0.3-2.9,0.8c0.6,1.1,1.3,2.1,2.2,3
				C258.7,529.3,261.4,528.2,260.9,527.8L260.9,527.8z"/>
		</g>
	</g>
	<g>
		<g>
			<path class="st0" d="M258.8,525c-2.6-6.4,1.1-11.9,5.6-16.2c4.8-4.6,10.1-8.8,15.4-12.8c11.2-8.5,23.1-15.8,35.6-22.2
				c-0.8,0.2-1.6,0.3-2.5,0.5c1.9,1.9,2.7,4.1,3.7,6.5c0.2,0.6,3.1-0.3,2.9-0.8c-1-2.5-2-4.8-3.9-6.7c-0.5-0.5-2,0.3-2.5,0.5
				c-13.2,6.7-25.7,14.5-37.4,23.6c-7.8,6-24.8,16.5-19.8,28.5C256.2,526.4,259,525.5,258.8,525L258.8,525z"/>
		</g>
	</g>
	<g>
		<g>
			<path class="st0" d="M352.8,490.8c-28.5,23.2-57.4,46.1-84.5,70.9c0.9-0.2,1.8-0.4,2.7-0.6c-5.4-4.5-10.2-9.7-14.7-15
				c-1.6-1.9-8.2-8-7.5-10.1c0.3-0.9,3.3-2.8,4-3.4c1.2-1,2.4-2.1,3.7-3.1c2.9-2.5,5.8-4.9,8.8-7.4c5.8-4.9,11.7-9.7,17.5-14.5
				c25.5-21.1,51.2-41.9,76.7-62.9c13.2-10.9,26.4-21.8,39.4-32.9c-0.8,0.2-1.5,0.5-2.3,0.7c7.2,0.1,14.5,0.1,21.7,0.1
				c1.1,0,5-0.5,5.5,0.1c1.1,1.1,0.4,1.4-0.3,2.9c-1.1,2.3-1.9,4.7-2.7,7c-3,8.6-5.5,15.9-12.3,22
				C390.5,460.9,371.4,475.7,352.8,490.8c-0.6,0.5,2.1,0.2,2.6-0.2c17-13.9,34.3-27.6,50.9-42c3.8-3.3,8.2-6.6,11-11
				c5-7.9,5.8-17.7,10.7-25.7c0.2-0.3-0.4-0.3-0.5-0.3c-8.8-0.2-17.5,0-26.3-0.1c-5.4-0.1-7.1,2.4-11.2,5.9
				c-11.2,9.5-22.5,18.9-33.8,28.2c-24.5,20.2-49.2,40.2-73.7,60.4c-12.4,10.2-24.7,20.5-36.9,30.9c-0.1,0.1-0.1,0.2-0.1,0.3
				c6.8,8.9,14.2,17.8,22.9,25c0.6,0.5,2.2-0.2,2.7-0.6c27.1-24.8,56.1-47.7,84.5-70.9C356,490.1,353.3,490.4,352.8,490.8
				L352.8,490.8z"/>
		</g>
	</g>
	<path class="st3" d="M397,415.8c0,0,13.1,10.7,15.1,20"/>
	<path class="st3" d="M251.3,533.2c11.4,1.1,21.3,11,22.4,22.4"/>
</g>
<g>
	<path class="st0" d="M355.5,491.3c24.2-0.1,48.4-0.1,72.6-0.3c20.6-0.1,42.6,1.8,62.9-2.2c28.2-5.6,53.2-24.3,65.4-50.6
		c16.7-36,3.7-78.4-5.4-114.6c-12.2-48.5-15.9-96.4-12.1-146.3c4.2-54.4,15-108.1,23.4-161.9c0.1-0.8-0.6-1.3-1.3-1.5
		C501.2,4.4,440.2,1,379.7,1c-30.7,0-61.4,1.1-91.9,4c-13.9,1.3-27.7,3-41.4,5.3c-12.2,2.1-15.1,10.5-20.6,21.5
		c-14.3,28.6-17.5,60.4-18.4,92c-1,37.3,2.8,73.1,10.3,109.6c4.6,22.4,9.8,43.8,10.6,66.6c0.7,22.2-0.3,44.4-2.2,66.5
		c-2.2,25.3-5.6,50.8-12.2,75.4c-4,15-10.2,41-26.5,47.6c-2.1,0.8-3,3.5,0,3.4c31.7-0.7,63.3-1.1,95-1.3c2.6,0,7.3-4,2.7-3.9
		c-31.7,0.2-63.3,0.6-95,1.3c0,1.1,0,2.3,0,3.4c20.6-8.3,27.6-38.1,32.2-57.1c8.3-34.3,11.7-70,12.8-105.2
		c0.4-14.2,0.5-28.5-0.4-42.7c-1.2-18.2-5.9-35.8-9.6-53.6c-11.3-54.7-17.4-114-4.5-169.1c3.1-13.2,7.8-26,14.3-37.9
		c2.4-4.4,4.8-10.2,9.1-12.4c4.2-2.2,11.9-1.9,16.7-2.6c23.7-3.3,47.5-5,71.4-6c50-2,100.2-0.7,150,3.2c12.4,1,24.9,2.1,37.3,3.5
		c9.1,1,23.1,0.3,31.5,4.1c4,1.8,3.6,1.5,3.5,6.1c-0.1,3.6-1.2,7.6-1.8,11.2c-1.2,7.5-2.5,14.9-3.7,22.4c-2.5,15-5,30-7.4,45
		c-9,57.9-15.7,117.1-7.5,175.5c7.8,55.5,45.3,126.1,6.2,177.3c-19.5,25.5-46.8,32.2-77.4,32.5c-34.9,0.4-69.7,0.5-104.6,0.6
		C355.6,487.3,350.8,491.3,355.5,491.3L355.5,491.3z"/>
	<path class="st0" d="M354.6,491.1c0.3,0,0.5,0,0.8,0c1.5,0,3.6-0.5,4.6-1.8c1-1.3-0.8-1.7-1.8-1.7c-0.3,0-0.5,0-0.8,0
		c-1.5,0-3.6,0.5-4.6,1.8C351.9,490.6,353.7,491.1,354.6,491.1L354.6,491.1z"/>
	<path class="st0" d="M252.8,151.2c2.4,0.8,4.9,1,7.3,0.6c1.2-0.2,2.4-0.5,3.6-0.6c1.2-0.1,2.4-0.1,3.6-0.1c2.4,0.1,4.9,0,7.3,0
		c1.2,0,2.4,0,3.6,0c1.2,0,2.4,0.1,3.6,0.5c0.6,0.1,1.2,0.3,1.8,0.4c0.6,0,1.2,0.1,1.8-0.3c0.3-0.2,0.6-0.4,0.9-0.4
		c0.3-0.1,0.6-0.1,0.9-0.1c0.6-0.1,1.2-0.1,1.8-0.1c2.4-0.1,4.9,1,7.3,0.6c4.9-0.6,9.7-0.4,14.6-0.4l29.2-0.1l29.2,0.2l7.3,0.1
		c2.4,0.1,4.9-0.1,7.3,0.2c4.9,1.5,9.7,0.5,14.6,0.1c2.4-0.2,4.9-0.3,7.3-0.3c1.2,0.1,2.4,0,3.6,0.3c0.6,0.2,1.2,0.4,1.8,0.5
		c0.6,0.1,1.2,0,1.8,0c4.9-0.3,9.7-1.7,14.6-1.8c1.2-0.1,2.4-0.1,3.6,0.3c1.2,0.4,2.4,0.8,3.6,0.9c2.4,0.2,4.9,0.3,7.3,0.3
		c2.4,0,4.9-0.1,7.3-0.2c2.4,0,4.9-1.4,7.3-1.1c1.2,0.1,2.4,1.6,3.6,1.5c1.2,0.1,2.4,0.1,3.6,0c2.4-0.2,4.9-0.6,7.3-0.3
		c4.9,0,9.7-0.1,14.6-0.1v1.9c-4.9,0-9.7,0-14.6-0.1c-2.4,0.3-4.9-0.1-7.3-0.3c-1.2-0.1-2.4-0.1-3.6,0c-1.2-0.1-2.4,1.4-3.6,1.5
		c-2.4,0.3-4.9-1.2-7.3-1.1c-2.4-0.1-4.9-0.2-7.3-0.2c-2.4,0-4.9,0.1-7.3,0.3c-1.2,0.1-2.4,0.5-3.6,0.9c-1.2,0.4-2.4,0.4-3.6,0.3
		c-4.9-0.1-9.7-1.5-14.6-1.8c-0.6,0-1.2-0.1-1.8,0c-0.6,0.1-1.2,0.3-1.8,0.5c-1.2,0.3-2.4,0.2-3.6,0.3c-2.4,0-4.9-0.1-7.3-0.3
		c-4.9-0.4-9.7-1.4-14.6,0.1c-2.4,0.3-4.9,0.1-7.3,0.2l-7.3,0.1l-29.2,0.2l-29.2-0.1c-4.9,0-9.7,0.1-14.6-0.4
		c-2.4-0.4-4.9,0.7-7.3,0.6c-0.6,0-1.2,0-1.8-0.1c-0.3,0-0.6,0-0.9-0.1c-0.3-0.1-0.6-0.3-0.9-0.4c-0.6-0.4-1.2-0.3-1.8-0.3
		c-0.6,0.1-1.2,0.2-1.8,0.4c-1.2,0.4-2.4,0.4-3.6,0.5c-1.2,0.1-2.4,0.1-3.6,0c-2.4,0-4.9-0.1-7.3,0c-1.2,0-2.4,0-3.6-0.1
		c-1.2-0.1-2.4-0.4-3.6-0.6c-2.4-0.3-4.9-0.1-7.3,0.6V151.2z"/>
	<path class="st0" d="M257.5,202.3c2.4,0.8,4.8,1,7.1,0.6c1.2-0.2,2.4-0.5,3.6-0.6c1.2-0.1,2.4-0.1,3.6-0.1c2.4,0.1,4.8,0,7.1,0
		c1.2,0,2.4,0,3.6,0c1.2,0,2.4,0.1,3.6,0.5c0.6,0.1,1.2,0.3,1.8,0.4c0.6,0,1.2,0.1,1.8-0.3c0.3-0.2,0.6-0.4,0.9-0.4
		c0.3-0.1,0.6-0.1,0.9-0.1c0.6-0.1,1.2-0.1,1.8-0.1c2.4-0.1,4.8,1,7.1,0.6c4.8-0.6,9.5-0.4,14.3-0.4l28.6-0.1l28.6,0.2l7.1,0.1
		c2.4,0.1,4.8-0.1,7.1,0.2c4.8,1.5,9.5,0.5,14.3,0.1c2.4-0.2,4.8-0.3,7.1-0.3c1.2,0.1,2.4,0,3.6,0.3c0.6,0.2,1.2,0.4,1.8,0.5
		c0.6,0.1,1.2,0,1.8,0c4.8-0.3,9.5-1.7,14.3-1.8c1.2-0.1,2.4-0.1,3.6,0.3c1.2,0.4,2.4,0.8,3.6,0.9c2.4,0.2,4.8,0.3,7.1,0.3
		c2.4,0,4.8-0.1,7.1-0.2c2.4,0,4.8-1.4,7.1-1.1c1.2,0.1,2.4,1.6,3.6,1.5c1.2,0.1,2.4,0.1,3.6,0c2.4-0.2,4.8-0.6,7.1-0.3
		c4.8,0,9.5-0.1,14.3-0.1v1.9c-4.8,0-9.5,0-14.3-0.1c-2.4,0.3-4.8-0.1-7.1-0.3c-1.2-0.1-2.4-0.1-3.6,0c-1.2-0.1-2.4,1.4-3.6,1.5
		c-2.4,0.3-4.8-1.2-7.1-1.1c-2.4-0.1-4.8-0.2-7.1-0.2c-2.4,0-4.8,0.1-7.1,0.3c-1.2,0.1-2.4,0.5-3.6,0.9c-1.2,0.4-2.4,0.4-3.6,0.3
		c-4.8-0.1-9.5-1.5-14.3-1.8c-0.6,0-1.2-0.1-1.8,0c-0.6,0.1-1.2,0.3-1.8,0.5c-1.2,0.3-2.4,0.2-3.6,0.3c-2.4,0-4.8-0.1-7.1-0.3
		c-4.8-0.4-9.5-1.4-14.3,0.1c-2.4,0.3-4.8,0.1-7.1,0.2l-7.1,0.1l-28.6,0.2l-28.6-0.1c-4.8,0-9.5,0.1-14.3-0.4
		c-2.4-0.4-4.8,0.7-7.1,0.6c-0.6,0-1.2,0-1.8-0.1c-0.3,0-0.6,0-0.9-0.1c-0.3-0.1-0.6-0.3-0.9-0.4c-0.6-0.4-1.2-0.3-1.8-0.3
		c-0.6,0.1-1.2,0.2-1.8,0.4c-1.2,0.4-2.4,0.4-3.6,0.5c-1.2,0.1-2.4,0.1-3.6,0c-2.4,0-4.8-0.1-7.1,0c-1.2,0-2.4,0-3.6-0.1
		c-1.2-0.1-2.4-0.4-3.6-0.6c-2.4-0.3-4.8-0.1-7.1,0.6V202.3z"/>
	<path class="st0" d="M262.2,258.2c2.4,0.8,4.8,1,7.1,0.6c1.2-0.2,2.4-0.5,3.6-0.6c1.2-0.1,2.4-0.1,3.6-0.1c2.4,0.1,4.8,0,7.1,0
		c1.2,0,2.4,0,3.6,0c1.2,0,2.4,0.1,3.6,0.5c0.6,0.1,1.2,0.3,1.8,0.4c0.6,0,1.2,0.1,1.8-0.3c0.3-0.2,0.6-0.4,0.9-0.4
		c0.3-0.1,0.6-0.1,0.9-0.1c0.6-0.1,1.2-0.1,1.8-0.1c2.4-0.1,4.8,1,7.1,0.6c4.8-0.6,9.5-0.4,14.3-0.4l28.6-0.1l28.6,0.2l7.1,0.1
		c2.4,0.1,4.8-0.1,7.1,0.2c4.8,1.5,9.5,0.5,14.3,0.1c2.4-0.2,4.8-0.3,7.1-0.3c1.2,0.1,2.4,0,3.6,0.3c0.6,0.2,1.2,0.4,1.8,0.5
		c0.6,0.1,1.2,0,1.8,0c4.8-0.3,9.5-1.7,14.3-1.8c1.2-0.1,2.4-0.1,3.6,0.3c1.2,0.4,2.4,0.8,3.6,0.9c2.4,0.2,4.8,0.3,7.1,0.3
		c2.4,0,4.8-0.1,7.1-0.2c2.4,0,4.8-1.4,7.1-1.1c1.2,0.1,2.4,1.6,3.6,1.5c1.2,0.1,2.4,0.1,3.6,0c2.4-0.2,4.8-0.6,7.1-0.3
		c4.8,0,9.5-0.1,14.3-0.1v1.9c-4.8,0-9.5,0-14.3-0.1c-2.4,0.3-4.8-0.1-7.1-0.3c-1.2-0.1-2.4-0.1-3.6,0c-1.2-0.1-2.4,1.4-3.6,1.5
		c-2.4,0.3-4.8-1.2-7.1-1.1c-2.4-0.1-4.8-0.2-7.1-0.2c-2.4,0-4.8,0.1-7.1,0.3c-1.2,0.1-2.4,0.5-3.6,0.9c-1.2,0.4-2.4,0.4-3.6,0.3
		c-4.8-0.1-9.5-1.5-14.3-1.8c-0.6,0-1.2-0.1-1.8,0c-0.6,0.1-1.2,0.3-1.8,0.5c-1.2,0.3-2.4,0.2-3.6,0.3c-2.4,0-4.8-0.1-7.1-0.3
		c-4.8-0.4-9.5-1.4-14.3,0.1c-2.4,0.3-4.8,0.1-7.1,0.2l-7.1,0.1l-28.6,0.2l-28.6-0.1c-4.8,0-9.5,0.1-14.3-0.4
		c-2.4-0.4-4.8,0.7-7.1,0.6c-0.6,0-1.2,0-1.8-0.1c-0.3,0-0.6,0-0.9-0.1c-0.3-0.1-0.6-0.3-0.9-0.4c-0.6-0.4-1.2-0.3-1.8-0.3
		c-0.6,0.1-1.2,0.2-1.8,0.4c-1.2,0.4-2.4,0.4-3.6,0.5c-1.2,0.1-2.4,0.1-3.6,0c-2.4,0-4.8-0.1-7.1,0c-1.2,0-2.4,0-3.6-0.1
		c-1.2-0.1-2.4-0.4-3.6-0.6c-2.4-0.3-4.8-0.1-7.1,0.6V258.2z"/>
	<path class="st0" d="M434.4,487.6c25-10.9,44.9-29.6,57.5-53.8c-1.8,0.7-3.5,1.3-5.3,2c22.7,8.7,46.9,7.4,68.6-3.6
		c4.2-2.1,0.5-6.2-3.2-4.4c-19.6,9.9-41,11-61.5,3.1c-1.9-0.7-4.3,0.1-5.3,2c-11.8,22.7-30.5,40.1-54,50.3
		C427,485.1,430.8,489.3,434.4,487.6L434.4,487.6z"/>
	<g>
		<path d="M261,395.7c10.7-18.5,21.5-36.9,32.2-55.4c-2.2,0.2-4.5,0.5-6.7,0.7c9.4,30.3,28.8,54.2,55,71.7c1.6,1.1,5.1,0.1,6-1.6
			c16.6-31.1,37.3-59.8,54-91c-2.1,0.4-4.3,0.8-6.4,1.2c16.3,18.9,34.1,36.5,50.4,55.4c1.3,1.5,4.9,0.7,6-0.7
			c14.2-17.4,24.4-37.4,38.6-54.8c2.6-3.2-4-3.5-5.6-1.4c-14.2,17.4-24.4,37.4-38.6,54.8c2-0.2,4-0.5,6-0.7
			c-16.3-18.9-34.1-36.5-50.4-55.4c-1.4-1.7-5.5-0.5-6.4,1.2c-16.6,31.1-37.3,59.8-54,91c2-0.5,4-1.1,6-1.6
			c-25.6-17.1-44.4-40.4-53.6-70c-0.8-2.6-5.8-0.9-6.7,0.7c-10.7,18.5-21.5,36.9-32.2,55.4C252.7,398.3,259.7,397.9,261,395.7
			L261,395.7z"/>
		<path d="M467.8,306.7c9.4-3.3,18.7-6.6,28.1-10c2.8,11.1,5.7,22.2,8.5,33.3c-12.1-6-24.3-12-36.4-18"/>
	</g>
</g>
<g>
	<path class="st0" d="M263.2,524.5c-0.7-0.6-1.2-1.5-1.6-2.3c-0.8-1.5-3.5-1.2-4.7-0.6c-1.5,0.7-2.4,2.2-1.6,3.8
		c0.7,1.3,1.6,2.3,2.6,3.4c1.2,1.2,3.8,0.6,5-0.4C264.2,527.2,264.4,525.7,263.2,524.5L263.2,524.5z"/>
	<path class="st0" d="M261.9,522.8c-4.1-12.4,13.6-23.1,21.8-29.2c10.5-7.8,21.7-14.6,33.3-20.6c-1.8,0.2-3.5,0.4-5.3,0.6
		c1.2,2.1,2.4,4.2,3.5,6.2c0.8,1.8,7.5-0.4,6.9-1.9c-2-4.6-1.1-3-4-6.8c-0.9-1.1-4.5,0.2-5.3,0.6c-14.6,7.5-28.5,16.2-41.3,26.5
		c-7.9,6.4-20.6,14.6-16.7,26.3C255.6,526.5,262.4,524.5,261.9,522.8L261.9,522.8z"/>
	<path class="st0" d="M351.7,488.9c-28.3,23.1-56.9,45.9-84,70.4c2-0.3,4-0.6,6-0.9c-6.8-5.8-12.8-12.5-18.5-19.5
		c-1.7-2-3.5-3.9-3.1-5.3c0.6-2.1,9.1-7.2,10.9-8.8c17.1-14.4,34.4-28.5,51.7-42.7c17.5-14.3,35-28.6,52.4-43
		c8.2-6.7,16.3-13.5,24.4-20.4c4.6-3.9,6.8-5.7,12.9-5.9c6.8-0.2,13.7,0,20.5,0.1c-0.6-0.6-1.2-1.2-1.8-1.8
		c-3.7,6.6-5.3,13.9-8.3,20.8c-3,7-8.1,11.1-13.7,15.9C385,462.1,368.3,475.4,351.7,488.9c-3,2.4,3.9,2.1,5.5,0.9
		c17.2-14,34.6-27.8,51.4-42.4c3.6-3.1,7.6-6.3,10.3-10.3c5.2-7.8,6.2-17.6,10.7-25.7c0.8-1.3-0.6-1.8-1.8-1.8
		c-9-0.1-21.1-2.2-29.8-0.1c-5.2,1.3-9.2,6.4-13.1,9.7c-15.5,13-31.1,25.8-46.7,38.7c-31.1,25.5-62.4,50.7-93,76.8
		c-0.6,0.5-1,1.1-0.5,1.7c6.8,8.8,14.1,17.5,22.6,24.7c1.4,1.2,4.7,0.3,6-0.9c27-24.6,55.7-47.4,84-70.4
		C360.2,487.3,353.3,487.6,351.7,488.9L351.7,488.9z"/>
	<path class="st0" d="M410.9,435c-1.9-8.7-14.5-19.1-14.6-19.2l1.5-1.8c0.5,0.4,13.4,11,15.4,20.5L410.9,435z"/>
	<path class="st0" d="M273.4,553.9c-1-10.7-10.5-20.2-21.2-21.2l0.2-2.4c12,1.1,22.2,11.4,23.3,23.3L273.4,553.9z"/>
</g>
</svg>
