<?xml version="1.0" encoding="utf-8"?>
<!-- Generator: Adobe Illustrator 17.0.0, SVG Export Plug-In . SVG Version: 6.00 Build 0)  -->
<!DOCTYPE svg PUBLIC "-//W3C//DTD SVG 1.1//EN" "http://www.w3.org/Graphics/SVG/1.1/DTD/svg11.dtd">
<svg version="1.1" id="Isolation_Mode" xmlns="http://www.w3.org/2000/svg" xmlns:xlink="http://www.w3.org/1999/xlink" x="0px"
	 y="0px" width="1095.911px" height="556.421px" viewBox="347.266 111.31 1095.911 556.421"
	 enable-background="new 347.266 111.31 1095.911 556.421" xml:space="preserve">
<linearGradient id="SVGID_1_" gradientUnits="userSpaceOnUse" x1="355.2217" y1="119.2655" x2="1435.2217" y2="119.2655">
	<stop  offset="0" style="stop-color:#0F81D7"/>
	<stop  offset="1" style="stop-color:#A3C921"/>
</linearGradient>
<path fill="url(#SVGID_1_)" d="M1435.222,118.792c0,4.386-241.722,8.181-540,8.417c-297.964,0.234-540-3.202-540-7.469
	c0-4.388,241.72-8.183,540-8.42C1193.184,111.087,1435.222,114.523,1435.222,118.792z"/>
<linearGradient id="SVGID_2_" gradientUnits="userSpaceOnUse" x1="355.2217" y1="659.7759" x2="1435.2217" y2="659.7759">
	<stop  offset="0" style="stop-color:#0F81D7"/>
	<stop  offset="1" style="stop-color:#A3C921"/>
</linearGradient>
<path fill="url(#SVGID_2_)" d="M1435.222,659.303c0,4.386-241.722,8.181-540,8.417c-297.964,0.234-540-3.202-540-7.469
	c0-4.388,241.72-8.183,540-8.42C1193.184,651.597,1435.222,655.034,1435.222,659.303z"/>
<linearGradient id="SVGID_3_" gradientUnits="userSpaceOnUse" x1="998.3621" y1="212.4343" x2="1518.3621" y2="212.4343" gradientTransform="matrix(4.489659e-011 -1 1 4.489659e-011 142.7874 1647.656)">
	<stop  offset="0" style="stop-color:#0F81D7"/>
	<stop  offset="1" style="stop-color:#A3C921"/>
</linearGradient>
<path fill="url(#SVGID_3_)" d="M354.749,129.294c4.386,0,8.181,116.385,8.417,260c0.234,143.464-3.202,260-7.469,260
	c-4.388,0-8.183-116.384-8.42-260C347.043,245.831,350.479,129.294,354.749,129.294z"/>
<linearGradient id="SVGID_4_" gradientUnits="userSpaceOnUse" x1="998.3621" y1="1292.4343" x2="1518.3621" y2="1292.4343" gradientTransform="matrix(4.489659e-011 -1 1 4.489659e-011 142.7874 1647.656)">
	<stop  offset="0" style="stop-color:#0F81D7"/>
	<stop  offset="1" style="stop-color:#A3C921"/>
</linearGradient>
<path fill="url(#SVGID_4_)" d="M1434.749,129.294c4.386,0,8.181,116.385,8.417,260c0.234,143.464-3.202,260-7.469,260
	c-4.388,0-8.183-116.384-8.42-260C1427.043,245.831,1430.479,129.294,1434.749,129.294z"/>
</svg>
