<?xml version="1.0" encoding="utf-8"?>
<!-- Generator: Adobe Illustrator 17.0.0, SVG Export Plug-In . SVG Version: 6.00 Build 0)  -->
<!DOCTYPE svg PUBLIC "-//W3C//DTD SVG 1.1//EN" "http://www.w3.org/Graphics/SVG/1.1/DTD/svg11.dtd">
<svg version="1.1" id="Isolation_Mode" xmlns="http://www.w3.org/2000/svg" xmlns:xlink="http://www.w3.org/1999/xlink" x="0px"
	 y="0px" width="1160.555px" height="607.02px" viewBox="282.622 111.31 1160.555 607.02"
	 enable-background="new 282.622 111.31 1160.555 607.02" xml:space="preserve">
<g>
	
		<linearGradient id="SVGID_1_" gradientUnits="userSpaceOnUse" x1="286.8964" y1="172.2585" x2="1366.8964" y2="172.2585" gradientTransform="matrix(0.9986 -0.0529 0.0529 0.9986 -11.0138 20.573)">
		<stop  offset="0" style="stop-color:#0F81D7"/>
		<stop  offset="1" style="stop-color:#A3C921"/>
	</linearGradient>
	<path fill="url(#SVGID_1_)" d="M357.799,171.626c0.199-0.522,0.43-1.035,0.618-1.562c0.042-0.184,0.106-0.355,0.156-0.534
		c-47.076,3.719-74.055,6.551-73.978,8.018c0.074,1.402,26.31,1.328,72.055,0.03C356.744,175.568,357.086,173.499,357.799,171.626z"
		/>
	
		<linearGradient id="SVGID_2_" gradientUnits="userSpaceOnUse" x1="286.8964" y1="712.4213" x2="1366.8964" y2="712.4213" gradientTransform="matrix(0.9986 -0.0529 0.0529 0.9986 -11.0138 20.573)">
		<stop  offset="0" style="stop-color:#0F81D7"/>
		<stop  offset="1" style="stop-color:#A3C921"/>
	</linearGradient>
	<path fill="url(#SVGID_2_)" d="M1391.615,659.249c0.232,4.38-240.952,20.951-538.799,36.959
		c-297.535,15.989-539.414,25.356-539.64,21.095c-0.232-4.382,240.949-20.953,538.799-36.961
		C1149.508,664.352,1391.39,654.986,1391.615,659.249z"/>
	
		<linearGradient id="SVGID_3_" gradientUnits="userSpaceOnUse" x1="945.7167" y1="144.109" x2="1465.7167" y2="144.109" gradientTransform="matrix(-0.0529 -0.9986 0.9986 -0.0529 218.6955 1658.3741)">
		<stop  offset="0" style="stop-color:#0F81D7"/>
		<stop  offset="1" style="stop-color:#A3C921"/>
	</linearGradient>
	<path fill="url(#SVGID_3_)" d="M284.629,187.113c4.38-0.232,14.323,115.789,22.153,259.191
		c7.82,143.251,10.55,259.806,6.289,260.031c-4.382,0.232-14.326-115.788-22.156-259.191
		C283.096,303.894,280.366,187.339,284.629,187.113z"/>
</g>
<g>
	<linearGradient id="SVGID_4_" gradientUnits="userSpaceOnUse" x1="355.2217" y1="119.2655" x2="1435.2217" y2="119.2655">
		<stop  offset="0" style="stop-color:#0F81D7"/>
		<stop  offset="1" style="stop-color:#A3C921"/>
	</linearGradient>
	<path fill="url(#SVGID_4_)" d="M1435.222,118.792c0,4.386-241.722,8.181-540,8.417c-297.964,0.234-540-3.202-540-7.469
		c0-4.388,241.72-8.183,540-8.42C1193.184,111.087,1435.222,114.523,1435.222,118.792z"/>
	<linearGradient id="SVGID_5_" gradientUnits="userSpaceOnUse" x1="355.2217" y1="659.7759" x2="1435.2217" y2="659.7759">
		<stop  offset="0" style="stop-color:#0F81D7"/>
		<stop  offset="1" style="stop-color:#A3C921"/>
	</linearGradient>
	<path fill="url(#SVGID_5_)" d="M1435.222,659.303c0,4.386-241.722,8.181-540,8.417c-297.964,0.234-540-3.202-540-7.469
		c0-4.388,241.72-8.183,540-8.42C1193.184,651.597,1435.222,655.034,1435.222,659.303z"/>
	
		<linearGradient id="SVGID_6_" gradientUnits="userSpaceOnUse" x1="998.3621" y1="212.4343" x2="1518.3621" y2="212.4343" gradientTransform="matrix(4.489659e-011 -1 1 4.489659e-011 142.7874 1647.656)">
		<stop  offset="0" style="stop-color:#0F81D7"/>
		<stop  offset="1" style="stop-color:#A3C921"/>
	</linearGradient>
	<path fill="url(#SVGID_6_)" d="M354.749,129.294c4.386,0,8.181,116.385,8.417,260c0.234,143.464-3.202,260-7.469,260
		c-4.388,0-8.183-116.384-8.42-260C347.043,245.831,350.479,129.294,354.749,129.294z"/>
	
		<linearGradient id="SVGID_7_" gradientUnits="userSpaceOnUse" x1="998.3621" y1="1292.4343" x2="1518.3621" y2="1292.4343" gradientTransform="matrix(4.489659e-011 -1 1 4.489659e-011 142.7874 1647.656)">
		<stop  offset="0" style="stop-color:#0F81D7"/>
		<stop  offset="1" style="stop-color:#A3C921"/>
	</linearGradient>
	<path fill="url(#SVGID_7_)" d="M1434.749,129.294c4.386,0,8.181,116.385,8.417,260c0.234,143.464-3.202,260-7.469,260
		c-4.388,0-8.183-116.384-8.42-260C1427.043,245.831,1430.479,129.294,1434.749,129.294z"/>
</g>
</svg>
