<?xml version="1.0" encoding="utf-8"?>
<!-- Generator: Adobe Illustrator 22.0.0, SVG Export Plug-In . SVG Version: 6.00 Build 0)  -->
<svg version="1.1" id="Слой_4" xmlns="http://www.w3.org/2000/svg" xmlns:xlink="http://www.w3.org/1999/xlink" x="0px" y="0px"
	 viewBox="0 0 260 242" style="enable-background:new 0 0 260 242;" xml:space="preserve">
<g>
	<g>
		<path d="M172.8,73.6c0.1,3.9,2.4,8.5,4.9,11.4c0.8,1,2.5-0.3,1.8-1.4c-1-1.7-2.2-3.3-3-5c-0.8-1.7-1.4-3.7-2.2-5.4
			C173.9,72.6,172.8,72.9,172.8,73.6L172.8,73.6z"/>
	</g>
</g>
<g>
	<g>
		<path d="M179.9,84.6c4.3,0.2,8.3-5.1,12.7-4.3c1.6-0.6,2,0.4,1.1,2.8c0.9,2,0.5,3.3-1.4,3.9c-0.7,0.7-1.7,1.2-2.5,1.7
			c-1.7,1.3-3.4,2.7-4.9,4.2c-5.3,5.3-11.7,13.8-9.9,21.7c0.2,1,1.6,0.7,1.7-0.2c0.5-8,5.4-15.4,11.1-20.8c3.3-3,11.6-6.1,11.4-11.6
			c-0.2-9.1-17.6-2.6-19.5,2.2C179.6,84.5,179.8,84.6,179.9,84.6L179.9,84.6z"/>
	</g>
</g>
<g>
	<g>
		<path d="M177,114.2c1.9,0.5,4,0.7,6,1c2.2,0.3,4.5,0.8,6.7,0.6c0.9-0.1,1.1-1.3,0.2-1.6c-1.9-0.6-4-0.7-6-0.9
			c-2.2-0.2-4.5-0.5-6.7-0.5C176.4,112.9,176.2,114,177,114.2L177,114.2z"/>
	</g>
</g>
<g>
	<g>
		<path d="M174.6,74.3c3.6-6,15.3-8.3,21.7-8.3c5.8,0,9.5,2.4,11.3,7.9c1.4,4.3,2.2,8.9-0.1,13c-3.4,5.8-10.1,8.5-14.5,13.5
			c-2.7,3.2-5.7,8.4-3.1,12.4c0.3,0.5,1.2,0.5,1.3-0.2c0.7-2.7,0.5-5.4,2-7.9c1.3-2.3,3.2-4,5.2-5.7c3.4-2.8,7.1-5.2,9.8-8.8
			c4.4-5.8,3.6-12.9,0.8-19.3c-3.2-7.3-10.7-7.9-17.8-6.8c-5.4,0.8-16.3,3.3-17.7,9.7C173.4,74.5,174.2,74.8,174.6,74.3L174.6,74.3z
			"/>
	</g>
</g>
<g>
	<g>
		<path d="M176.7,125.6c2.5,0.5,5.2,0.5,6.8,2.8c1.8,2.8-1,5-3.3,6c-2.2,0.9-7.8,2.2-7.3-1.8c0.4-2.8,4.2-2.9,6.2-4
			c0.6-0.3,0.4-1.2-0.2-1.4c-3.8-1-9.3,1.4-9.2,6c0.1,5.1,6.3,5.4,9.9,4.2c3.2-1.1,7.1-3.6,6.6-7.4c-0.5-4.5-5.9-5.7-9.5-4.4
			C176.6,125.5,176.6,125.6,176.7,125.6L176.7,125.6z"/>
	</g>
</g>
<g>
	<g>
		<path d="M156.8,143.1c-9.6-6.6-17.4-16.5-24.2-25.9c-6.7-9.2-9.1-20.2-6.4-31.4c5.3-22.4,26.2-35.7,47.3-40.9
			c11.6-2.8,23.8-3.7,35.6-2.4c11.3,1.2,27.4,3.6,34.8,13.2c7.6,9.6,8.5,24.7,6,36.2c-2.4,11-8.3,20.7-15.9,28.8
			c-16.9,17.8-42.1,29.5-66.7,23.6c-3-0.7-4.2,3.9-1.3,4.6c46.5,11,107-38.5,85-87.9c-5.4-12-17-16.1-29.1-18.5
			c-12.5-2.5-25.6-2.9-38.2-1c-22.6,3.4-47.3,14.5-56.6,36.8c-4.8,11.4-5.2,24.8,0.8,35.8c6.3,11.6,16.6,24,28.2,30.4
			C156.9,144.9,157.6,143.6,156.8,143.1L156.8,143.1z"/>
	</g>
</g>
<g>
	<g>
		<path d="M152.4,142.1c-0.3,3.6,0,7.2,0.3,10.8c0.2,3.2,0.1,6.5,1.1,9.5c0.4,1.3,2.3,1,2.4-0.3c0.3-3.5-0.6-7.2-1-10.7
			c-0.3-3.2-0.5-6.3-1.1-9.4C153.7,140.9,152.4,141.2,152.4,142.1L152.4,142.1z"/>
	</g>
</g>
<g>
	<g>
		<path d="M155.1,164.6c1.4-1.1,2-2.7,2.9-4.1c1.2-1.9,2.5-3.7,4-5.4c1.5-1.6,3.2-3.1,5-4.4c1.3-0.9,2.1-1.1,2.5-2.7
			c0.1-0.4-0.1-0.8-0.5-0.9c-3.3-0.7-7.7,4.6-9.6,6.9c-2.2,2.7-5.4,6.9-4.7,10.5C154.8,164.7,155,164.7,155.1,164.6L155.1,164.6z"/>
	</g>
</g>
<g>
	<g>
		<path d="M145.5,66.5c-9.7,5.4-14.7,19.4-13.8,30.1c1,12,12.3,22.2,22.7,26.9c1,0.4,2.2-0.8,1.3-1.6c-7.9-7.5-18.3-12.4-20.4-24.2
			c-1.9-10.4,3.3-23.5,10.8-30.5C146.3,66.9,145.9,66.3,145.5,66.5L145.5,66.5z"/>
	</g>
</g>
<g>
	<g>
		<path d="M146.6,86c-0.5,1.9-2.2,2.7-2.7,4.5c-0.4,1.3,0,3,0.2,4.2c0.9,4.7,2.4,9.2,4.9,13.2c0.4,0.7,1.6,0.2,1.3-0.6
			c-1.4-4.3-3.3-8.8-4.1-13.3c-0.4-2.3,0.8-4,0.9-6.1c0-1.3,0.4-0.9-0.4-2C146.6,86,146.6,86,146.6,86L146.6,86z"/>
	</g>
</g>
<g>
	<g>
		<path d="M157.2,81.7c-2.8,4.5-5.1,7.1-4.1,12.8c0.9,5.1,2.4,10.3,6.3,13.9c0.9,0.9,2.4-0.2,1.8-1.4c-2.2-3.9-3.6-8.2-4.6-12.6
			c-1.1-4.9,1.4-7.9,1.8-12.4C158.5,81.4,157.5,81.2,157.2,81.7L157.2,81.7z"/>
	</g>
</g>
<g>
	<g>
		<path d="M220.9,75.6c1.3,4.6,3.8,8.6,4.6,13.4c0.8,5.3-0.2,10.2-1.3,15.3c-0.3,1.4,1.5,2.2,2.4,1c5.4-8.1,4.3-25.1-5-30.2
			C221.2,74.9,220.8,75.2,220.9,75.6L220.9,75.6z"/>
	</g>
</g>
<g>
	<g>
		<path d="M224.4,61.1c-0.3-0.3-0.7-0.5-1.1-0.7c-1-0.5-1.8,0.6-1.1,1.5c1.1,1.3,2.7,1.7,4.2,2.6c1.7,1,3.2,2.4,4.4,3.9
			c2.5,3.1,3.7,6.6,4.6,10.5c0.3,1.1,2,1.1,2.3,0c1-4.5-0.7-9.3-3.6-12.8c-2.3-2.7-7.7-7.4-11.5-5.7c0.2,0.6,0.3,1.2,0.5,1.8
			c0.4,0,0.9-0.1,1.3-0.3C224.6,61.7,224.7,61.3,224.4,61.1L224.4,61.1z"/>
	</g>
</g>
<g>
	<g>
		<path d="M61.2,61c-2.3,5-0.1,12.5,0.7,17.8c1,7,2.5,13.9,4.4,20.6C69.6,111,74,122.3,79.6,133c9.1,17.3,21.5,33.1,36.9,45.1
			c1.6,1.3,3.9-1,2.3-2.3C104,164.1,92.2,149,83.2,132.4c-5.7-10.5-10.2-21.6-13.5-33.1c-1.8-6.2-3.2-12.5-4.4-18.9
			c-0.7-3.8-1.3-7.6-1.7-11.4c-0.3-2.9-0.3-5.6-1.9-8C61.5,60.8,61.3,60.8,61.2,61L61.2,61z"/>
	</g>
</g>
<g>
	<g>
		<path d="M118.3,176c8.1-3.2,16.2-3.9,23.9,0.7c6.7,4,13.1,10.9,17.2,17.4c4.2,6.7,6.5,15.1,3.8,22.8c-3,8.7-11.5,11.5-19.6,13.8
			c-2.5,0.7-1.4,4.6,1.1,3.8c8.7-2.6,17.5-5.9,21.2-14.9c3.4-8.2,1.9-17.5-2.3-25.1c-8.2-14.8-28.7-33-46-20.3
			C116.8,174.9,117.2,176.4,118.3,176L118.3,176z"/>
	</g>
</g>
<g>
	<g>
		<path d="M123.7,176.2c9.1,6.3,12.2,15.5,17.1,24.9c0.5,1,2,0.3,1.7-0.7c-2.3-10.1-7.7-21.6-17.6-26.3
			C123.5,173.4,122.4,175.3,123.7,176.2L123.7,176.2z"/>
	</g>
</g>
<g>
	<g>
		<path d="M34.8,9.5c4.9,3.3,10.5,5.1,15.3,8.7c4.7,3.6,10.7,8.8,12.3,14.7c0.4,1.3,2.5,1.1,2.4-0.3c-0.2-7.4-5.1-12.2-10.7-16.4
			C48.9,12.2,41.9,7.9,35.2,8C34.4,8.1,34.2,9.1,34.8,9.5L34.8,9.5z"/>
	</g>
</g>
<g>
	<g>
		<path d="M70.2,155c3.9,12.3,12.9,22.9,22.1,31.7c5,4.7,10.3,9.4,13.5,15.6c1.7,3.2,2.7,6.9,2.8,10.5c0.1,3.9-1.4,6.8-2.5,10.4
			c-0.3,0.9,0.8,1.3,1.4,0.8c4.2-3.2,4.4-9.6,3.5-14.4c-1.3-6.6-5.2-12-9.7-16.9c-5.3-5.6-11.4-10.4-16.4-16.3
			c-5.7-6.7-9.9-14.1-14.5-21.5C70.4,154.8,70.2,154.8,70.2,155L70.2,155z"/>
	</g>
</g>
<g>
	<g>
		<path d="M10.4,40.7C4.1,33,16.1,29.2,21.8,30.3c4.8,0.9,9,3.7,12,7.5c5.4,6.7,6.2,14.5,5.9,22.8c0,1.3,1.7,1.3,2.1,0.3
			c5-12.5-3.6-27.5-15.6-32.1c-5.3-2-12.5-2.2-16.9,2c-3.3,3.1-3.6,8.5,0.4,11C10.3,42.2,10.9,41.3,10.4,40.7L10.4,40.7z"/>
	</g>
</g>
<g>
	<g>
		<path d="M37.3,8.8c5.1-4,14.5-7.2,20.6-4.1c3.6,1.8,6.6,4.7,9.2,7.7c5.8,6.4,10.7,13.8,14.5,21.6c3.1,6.3,7.5,16.6,4,23.6
			c-4.2,8.6-16.7,8.4-24.2,12c-1.2,0.6-0.5,2.3,0.6,2.3c5.1,0.3,11.3-2.5,15.8-4.6c4.2-1.9,8.8-4.6,10.7-9c3.5-8.3-1-18.9-4.7-26.4
			c-4.5-9.2-10.7-18.5-18.4-25.3c-4.3-3.8-9.1-6.5-15-5.6c-5.4,0.8-11,2.5-14.1,7.3C35.9,8.7,36.8,9.2,37.3,8.8L37.3,8.8z"/>
	</g>
</g>
<g>
	<g>
		<path d="M44.7,3.3C34,7.8,24.4,15.6,15.6,23.1c-6.1,5.2-10,11.9-12.3,19.5C-2.8,62,0.6,83.8,5.7,103c6.2,23.7,16.3,46.5,28.6,67.6
			c11.1,19.1,24.3,37.9,40.9,52.6c6.8,6,14.3,11.5,22.9,14.6c16.5,5.8,36.2,1.8,52.1-4.2c3-1.2,1.8-6-1.4-4.9
			c-15,5.1-32.4,10.3-48.1,5.6c-7.3-2.2-13.9-6.6-19.7-11.4c-15.9-13-28.5-30-39.2-47.2c-12.3-19.8-22.6-41.1-29.6-63.3
			c-6-19-10.7-40.1-7.5-60.1C6.1,43.7,9,34.6,15,28.3c8.8-9.2,19.7-17,30-24.4C45.3,3.6,45.1,3.1,44.7,3.3L44.7,3.3z"/>
	</g>
</g>
<g>
	<g>
		<path d="M74.2,64.7c-0.4,0.6-0.1,0.7-0.1,0c0-0.7-0.1-1.3-0.2-2c-0.1-1.7,0-3.3,0-5c0-1.7,0-3.3,0.1-5c0-0.5,0.1-1.2,0-1.7
			c0-0.2,0.1-0.5,0-0.7c-0.2-0.8,0.2,1.1-0.6-0.2c0.3,0.4,0.9,0.1,0.7-0.4c0,0,0,0,0,0c-0.1-0.1-0.2-0.2-0.3-0.2
			c-1.7,0.2-1.1,9.8-1.1,11c0,1.2-0.3,4.4,0.6,5.4c0.8,0.9,1.4,0.1,1.5-0.9C74.9,64.6,74.4,64.4,74.2,64.7L74.2,64.7z"/>
	</g>
</g>
<g>
	<g>
		<path d="M78.5,63.7C78.5,63.7,78.5,63.7,78.5,63.7c0.2,0.1,0.4,0,0.5-0.2c0.5-1.7,1.1-3.1,1.2-5c0.1-3.4-0.4-7.2-1.8-10.3
			c-0.3-0.8-1.6-0.4-1.6,0.4c0.3,3.4,0.7,6.8,0.9,10.3c0.1,1,0.1,2.1,0.3,3.1c0,0.2,0.1,0.3,0.2,0.5c0.4,0.8-0.2,0.4,0.5,0.6
			C78.4,63,78.1,63.5,78.5,63.7L78.5,63.7z"/>
	</g>
</g>
<g>
	<g>
		<path d="M147.5,227.2c0.1,0.1,0.1,0.2,0.2,0.4c0.1,0.2,0.4,0.3,0.6,0.2c3.3-0.7,4.1-6.8,4.4-9.5c0.6-5.4-0.4-10.8-1.8-16
			c-0.2-0.7-1.3-0.6-1.2,0.2c0.4,3.9,0.8,7.8,0.9,11.8c0,2.2-0.1,4.4-0.6,6.6c-0.2,0.9-1.3,5.8-2.3,6
			C147.5,226.9,147.5,227.1,147.5,227.2L147.5,227.2z"/>
	</g>
</g>
<g>
	<g>
		<path d="M166.3,203.8c5.2,3.8,17.6,9.7,20.9,0c0.8-2.4,0.3-5.5-1.7-7.2c-1.9-1.6-7.3-2.7-9.4-0.7c-2.2,2,0,5.2,1.4,6.9
			c3,3.5,7.6,5.4,12.2,5.1c6.9-0.6,15.6-8.6,12.2-16.1c-2.4-5.3-10.8-2.7-7.6,3.1c4.2,7.5,15.1,8.8,21.2,3.2
			c4.2-3.9,8.1-15.1,0.1-17.5c-2.5-0.7-5.2,0.3-6.1,2.8c-1.4,4.1,2.4,7.2,5.7,8.5c4.1,1.7,9.9,3,13.6-0.3c3.8-3.4,2.7-8.8,0.9-12.9
			c-3-7-7-16.7,1.5-22c7.1-4.4,22.5-3.7,22,7.3c-0.1,1.5,2.2,1.8,2.7,0.4c3.7-12.8-13.4-14.9-21.8-12.1
			c-11.4,3.8-12.3,15.4-7.9,25.1c2.4,5.3,4.8,14.2-4.6,13.7c-0.7,0-4.7-0.6-5.5-1.3c0.5-6.3,1-7,1.7-1.9c0,1-0.2,2-0.5,3
			c-1.2,4-4.7,7.3-8.8,8.2c-2.1,0.5-4.4,0.3-6.5-0.4c-1.4-0.5-9.8-5.3-4-4.3c2.3-0.4,2.9,0.4,1.9,2.5c-0.5,1.6-1.3,3.1-2.5,4.4
			c-1.2,1.3-2.6,2.5-4.2,3.3c-3.8,1.8-11.2,1.5-13.8-2.6c-3.5-5.6,5.9-8.3,6.7-0.6c0.3,3.1-2.6,5.5-5.3,6.2
			c-5.2,1.3-9.9-1.7-14.2-4.1C166.2,203.1,166,203.6,166.3,203.8L166.3,203.8z"/>
	</g>
</g>
<g>
	<g>
		<path d="M79.5,203.5c-3.2-1.1-6.6-0.8-10-1c-3.8-0.2-7.4-1-11.2-1.3c-1.3-0.1-1.9,2-0.7,2.6c6,2.9,16.1,4.4,21.9,0.6
			C79.9,204.1,79.9,203.6,79.5,203.5L79.5,203.5z"/>
	</g>
</g>
<g>
	<g>
		<path d="M69.5,189.9c-2.8-0.5-5.6-0.4-8.4-0.7c-3.6-0.4-7-1.2-10.5-2.1c-0.8-0.2-1.3,0.9-0.6,1.3c5.5,2.7,13.6,4.6,19.5,2.6
			C70,190.9,70.1,190.1,69.5,189.9L69.5,189.9z"/>
	</g>
</g>
<g>
	<g>
		<path d="M62.5,180.4c-2.8-2-6.9-1.4-10.1-1.9c-3.9-0.6-7.7-1.6-11.6-2.3c-1-0.2-1.9,1.3-0.8,1.9c3.7,1.7,7.7,2.9,11.8,3.5
			c3.4,0.5,7.8,1.5,10.8-0.4C62.8,180.9,62.8,180.6,62.5,180.4L62.5,180.4z"/>
	</g>
</g>
</svg>
