<?xml version="1.0" encoding="utf-8"?>
<!-- Generator: Adobe Illustrator 22.0.0, SVG Export Plug-In . SVG Version: 6.00 Build 0)  -->
<svg version="1.1" id="Слой_2" xmlns="http://www.w3.org/2000/svg" xmlns:xlink="http://www.w3.org/1999/xlink" x="0px" y="0px"
	 viewBox="0 0 706.1 725.1" style="enable-background:new 0 0 706.1 725.1;" xml:space="preserve">
<style type="text/css">
	.st0{display:none;}
	.st1{display:inline;}
</style>
<g>
	<g>
		<path d="M162.7,180.6c-3.2-4-11.1-3.1-15.7-3.2c-5.6-0.1-12.3-0.4-17.7,1.7c-7.5,3-11,11.7-8.7,19.2c0.7,2.4,4.5,1.3,3.7-1
			c-1.2-3.6-0.8-7.3,1.5-10.4c3-4.2,7.7-4.6,12.5-4.7c4.5-0.1,9,0,13.4,0.3c3.6,0.2,7.7,1.4,10.8-0.9C163,181.3,163,181,162.7,180.6
			L162.7,180.6z"/>
	</g>
</g>
<g>
	<g>
		<path d="M134.4,486.2c2.7-3,2.3-8.1,2.6-11.9c0.5-6.4,0.8-12.8,1.1-19.1c0.5-12.3,0.5-24.5,0.1-36.8c-0.3-11.2-0.9-22.4-1.8-33.6
			c-0.9-10.8-0.8-22.8-3.5-33.3c-0.4-1.6-2.6-1.1-2.8,0.4c-0.9,10.7,1.1,22.2,1.7,32.9c0.6,11.2,1.3,22.4,1.6,33.6
			c0.4,11.6,0.5,23.2,0.4,34.9c-0.1,5.7-0.2,11.4-0.5,17.1c-0.2,4.7-1.9,11.7,0.7,15.8C134.1,486.2,134.3,486.3,134.4,486.2
			L134.4,486.2z"/>
	</g>
</g>
<g>
	<g>
		<path d="M152.1,214.1c-0.1-1.5-0.4-2.9,0.5-4.2c1.5-2.1,4.6-2.1,6.9-2.4c4-0.4,8.1-0.6,12.1-0.9c2.8-0.2,2.8-4.6,0-4.4
			c-4,0.3-8.1,0.6-12.1,0.9c-3,0.3-6.3,0.5-8.8,2.5c-2.9,2.3-4.6,8.1-0.3,9.8C151.3,215.7,152.2,214.9,152.1,214.1L152.1,214.1z"/>
	</g>
</g>
<g>
	<g>
		<path d="M150.3,467.4c1.4-2.3,1.4-5.3,1.3-7.9c-0.1-5.4-0.2-10.8-0.2-16.1c-0.1-14.4-0.2-28.7-0.3-43.1c0-13.6-0.1-27.3-0.1-40.9
			c0-4.4,0-8.9-0.1-13.3c0-1.3,0.1-2.6-0.2-3.8c-0.1-0.3-0.1-0.6-0.2-0.8c-0.3-1.7,0.3,1.4-0.1-0.3c-0.4-2.3-3.9-1.3-3.5,1
			c-0.3-1.4-0.2,0.3-0.2,1c-0.1,1.3,0,2.6,0,3.9c-0.1,4.4,0,8.8,0,13.2c0,13.7,0,27.5,0,41.2c0,14.3,0,28.6,0.4,42.9
			c0.1,5.1,0.3,10.2,0.5,15.3c0.1,2.6,0.3,6,2.2,8C150.1,467.6,150.3,467.5,150.3,467.4L150.3,467.4z"/>
	</g>
</g>
<g>
	<g>
		<g>
			<path d="M179.8,416.4c10.9-0.6,22.2-4.6,32.5-7.8c5.3-1.7,10.5-3.5,15.7-5.4c1.9-0.7,7.1-1.5,6.8-4.5c-0.1-0.8-0.6-1.4-1.4-1.4
				c-0.1,0-0.2,0-0.3,0c-0.5,0-1,0.4-1.1,0.8c0,0.1,0,0.2-0.1,0.2c-0.1,0.4,0.1,1,0.6,1.1c-0.2-0.2-0.4-0.5-0.6-0.7
				c0.4-0.5,0.7-0.9,1.1-1.4c-8.2,3.4-16.6,6.4-25,9.1c-9.3,3-19.2,4.6-28.4,8C178.5,414.8,178.5,416.5,179.8,416.4L179.8,416.4z"/>
		</g>
	</g>
	<g>
		<g>
			<path d="M233.3,399.3c-2.3,2.4-3.3,6.1-4.8,9.1c-2.3,4.7-4.6,9.5-6.9,14.2c-2.3,4.7-4.6,9.4-7,14c-2.1,4-4.9,8.2-5.9,12.6
				c-0.3,1.3,1.4,2.6,2.4,1.4c2.9-3.6,4.5-8.2,6.4-12.3c2.2-4.7,4.5-9.4,6.8-14.1c2.3-4.7,4.5-9.5,6.7-14.3
				c1.4-3.1,3.9-7.1,2.6-10.4C233.4,399.2,233.3,399.2,233.3,399.3L233.3,399.3z"/>
		</g>
	</g>
	<g>
		<g>
			<path d="M209.2,448.3c-1-1.8-2.6-3-4.1-4.4c-1.5-1.4-3.1-2.8-4.6-4.3c-1.8-1.8-4.4,0.9-2.8,2.8c1.4,1.6,2.8,3.1,4.4,4.5
				c1.7,1.5,3.2,3,5.4,3.6C208.8,450.9,209.8,449.4,209.2,448.3L209.2,448.3z"/>
		</g>
	</g>
	<g>
		<g>
			<path d="M177.1,416.6c0.4,2.4,3.2,3.5,4.8,5c2.2,2,3.8,4.6,4.8,7.3c1.1,3.1,6.2,1.8,5-1.4c-2.2-6.2-6.4-9.6-11.6-13.3
				C178.5,413,176.8,415,177.1,416.6L177.1,416.6z"/>
		</g>
	</g>
	<g>
		<g>
			<path d="M186.5,429.2c-0.3,0.7-5,1.9-5.8,2.2c-1.9,0.7-3.7,1.5-5.5,2.2c-3.7,1.5-7.4,2.9-11.1,4.4c-1.7,0.7-2.5,3.2-0.6,4.2
				c8.4,4.3,15.3,8.4,16.1,18.7c0.2,2.6,4,4.3,5.4,1.4c3.7-8,10.1-13.1,16.5-18.9c2.4-2.2-1.2-5.8-3.6-3.6
				c-6.5,5.9-14,11.5-17.9,19.6c1.7,0.2,3.5,0.5,5.2,0.7c-0.8-4.7-2.8-9.1-5.9-12.8c-3.8-4.5-8.4-6.5-13.5-9.1
				c-0.2,1.4-0.4,2.8-0.6,4.2c4.9-2,9.9-3.9,14.8-5.9c2.9-1.2,7.5-2.1,9.6-4.6c0.6-0.7,0.8-1.6,0.3-2.5c-0.1-0.2-0.2-0.4-0.4-0.6
				C188.8,427.4,187,427.9,186.5,429.2L186.5,429.2z"/>
		</g>
	</g>
	<g>
		<g>
			<path d="M174.6,447.9c-1.6,0.3-3.1,1.8-4.4,2.7c-1.6,1.2-3.2,2.3-4.7,3.6c-1.6,1.4,0.6,4.3,2.3,3c1.4-1.1,2.8-2.2,4.2-3.3
				c1.4-1.1,3.5-2.2,4.4-3.8C177.1,448.9,176,447.7,174.6,447.9L174.6,447.9z"/>
		</g>
	</g>
	<g>
		<g>
			<path d="M166.7,457.9c1,3,4.9,4.7,7.4,6.5c3.8,2.7,5.4,7.6,7.4,11.6c1.6,3,6.4,0.2,4.6-2.7c-2.2-3.6-4.2-8.3-7.7-10.9
				c-1.8-1.3-3.7-2.4-5.6-3.5c-1.8-1.1-3.2-2.3-5.3-2.1C167,456.8,166.6,457.3,166.7,457.9L166.7,457.9z"/>
		</g>
	</g>
	<g>
		<g>
			<path d="M186.4,474.7c1.5-1.4,2.2-3.2,3.3-5c1.7-2.7,4.3-5,6.5-7.3c3.2-3.4,8.6-8.4,8.9-13.2c0.1-1.2-1.3-1.8-2.2-1.3
				c-2.4,1.2-3.4,3.4-4.9,5.5c-2.1,2.9-4.5,5.5-6.8,8c-3,3.2-7.9,7.9-6.6,12.8C184.7,475,185.8,475.3,186.4,474.7L186.4,474.7z"/>
		</g>
	</g>
	<g>
		<g>
			<path d="M210.6,447.9c-0.2,0.1-0.4,0.2-0.6,0.3c-0.2,0.1-0.4,0.4-0.4,0.6c0.3,3.4,3.9,5.8,5.2,9c0.6,1.5,2.8,2.2,3.7,0.5
				c3.9-7.3,7.3-14.8,11-22.2c4.1-8.2,7.7-17.5,13.1-24.9c1-1.4-0.4-3-1.8-3.1c-2.4-0.2-13.1,0.5-13.1,3.7c0,3.7,10.9,0.3,13.1,0.5
				c-0.6-1-1.2-2.1-1.8-3.1c-5.3,7-8.9,15.9-12.7,23.8c-3.8,7.7-7.3,15.7-11.3,23.3c1.2,0,2.3,0,3.5,0c-0.9-1.3-1.8-2.5-2.9-3.7
				c-1.3-1.4-4.3-2.7-4.8-4.6C210.8,447.9,210.7,447.9,210.6,447.9L210.6,447.9z"/>
		</g>
	</g>
</g>
<g>
	<g>
		<path d="M354.2,172.2c-0.4-0.2-0.7-0.5-1.1-0.7c-0.5,0.9-1.1,1.8-1.6,2.8c5.9,2.2,12.1-0.6,18.2-1c7.2-0.5,14.4-0.7,21.7-0.8
			c7.2-0.1,14.4-0.1,21.7,0.1c6.5,0.2,13.7,1.5,20.1,0.4c1.7-0.3,1.5-2.8,0-3.3c-6.2-1.9-13.7-1.1-20.1-1.3
			c-7.2-0.2-14.4-0.1-21.7,0c-7.2,0.1-14.4,0.5-21.7,0.9c-6.2,0.4-13-1.5-18.5,1.9c-2,1.2,0.1,4.1,2,2.6c0.4-0.1,0.7-0.3,1.1-0.4
			C354.8,173.2,354.7,172.4,354.2,172.2L354.2,172.2z"/>
	</g>
</g>
<g>
	<g>
		<path d="M343,205.1c37.1-1.9,74.3-2.9,111.4-1.5c3,0.1,3-4.6,0-4.7c-37.1-0.9-74.4-0.4-111.4,2.9C341,202,340.9,205.2,343,205.1
			L343,205.1z"/>
	</g>
</g>
<g>
	<g>
		<path d="M568.9,561.4c0.9-2.8-0.1-7.6-0.1-10.5c0-4.8,0.2-9.6,0.1-14.4c0-14.2,0.1-28.3,0.3-42.5c0.5-38.7,1-77.3,1.5-116
			c0.6-47.1,2.3-94.6-0.1-141.7c-0.1-1.4-2.3-1.5-2.3,0c0.2,72.2-1.5,144.4-2.8,216.6c-0.4,23.7-0.7,47.3-0.8,71c0,8,0,16,0.4,24
			c0.2,4.5-0.5,12,3,15.4c0.3,0.2,0.6,0.3,0.9,0.1c0.1-0.1,0.2-0.1,0.4-0.2c0.2-0.1,0.3-0.4,0.3-0.6c0-0.4,0-0.8,0-1.1
			C569.9,561,569.1,560.9,568.9,561.4L568.9,561.4z"/>
	</g>
</g>
<g>
	<g>
		<path d="M539.7,237c-1.7,11.2-1.4,22.7-1.6,34c-0.2,12.2-0.4,24.4-0.6,36.7c-0.4,25.3-0.9,50.6-1.3,75.9
			c-0.4,24.1-0.5,48.3-0.5,72.4c0,10.8,0.1,21.6,0.2,32.4c0.1,9.7-1.1,20.7,1.5,30.1c0.5,1.6,2.8,1.6,3.3,0c2.3-9,1.1-19.4,1.1-28.6
			c0-10.8,0.1-21.5,0-32.3c-0.1-24.1,0-48.2-0.1-72.2c-0.1-24.7-0.3-49.4-0.2-74.1c0-12.2,0.1-24.5,0.1-36.7c0-12.4,0.6-25-1-37.3
			C540.4,236.7,539.7,236.5,539.7,237L539.7,237z"/>
	</g>
</g>
<g>
	<g>
		<path d="M134.4,486.1c5.8,4.3,13.6,5,20.6,6.6c8.3,1.9,16.6,3.8,24.9,5.6c16,3.5,31.9,7.1,47.9,10.5c31.9,6.9,63.9,13.7,96,20.1
			c63.8,12.8,127.9,24.2,192.4,32.7c17.5,2.3,35,4.4,52.6,6.3c5.2,0.6,5.1-7.5,0-8.1c-130.3-14.5-259.1-40-387.4-66.5
			c-8.3-1.7-16.7-3.4-25-5.1c-7.1-1.4-14.5-4.1-21.7-2.5C134.3,485.9,134.3,486.1,134.4,486.1L134.4,486.1z"/>
	</g>
</g>
<g>
	<g>
		<path d="M188.7,475.6c5.9,2.8,12.6,3.5,19,4.7c7,1.3,13.9,2.6,20.9,3.8c14.8,2.7,29.5,5.4,44.3,8.1c29.7,5.4,59.5,10.4,89.3,15.3
			c28.9,4.7,57.9,9,86.9,12.8c15,2,30,3.8,45.1,5.6c14.9,1.7,30.2,4.2,45.2,4.2c4.6,0,5.9-7.4,1.1-8.2c-13.9-2.5-28.3-3-42.4-4.5
			c-15-1.6-30.1-3.3-45.1-5.2c-29.6-3.7-59.2-8-88.7-12.4c-29.3-4.4-58.5-9.1-87.7-13.7c-14.9-2.3-29.7-4.7-44.6-7
			c-7-1.1-14-2.2-21.1-3.3c-7.1-1.1-14.5-3-21.7-2.2C188.3,473.6,187.6,475.1,188.7,475.6L188.7,475.6z"/>
	</g>
</g>
<g>
	<g>
		<path d="M326.1,534c2.3,2.9,4.8,5.7,6.8,8.9c1.9,3.1,5.1,7.3,0,9c-2.7,0.9-6.3,0.6-9.2,1.1c-3.6,0.5-7.3,1.2-10.9,1.9
			c-13.8,2.9-27.2,7.5-40,13.5c-3.9,1.8-0.5,7.5,3.4,5.8c18.2-8.3,36.9-12.5,56.7-15c19-2.4,4.6-22.7-3.7-29.1
			C326.7,528.1,324.5,531.9,326.1,534L326.1,534z"/>
	</g>
</g>
<g>
	<g>
		<path d="M434.3,548.4c0.3-2,0.3-3.2-0.6-5c-1.2-2.5-4.7-2.1-6,0c-2.1,3.4,3.4,11.3,4.8,14.2c1.1,2.4,2.3,4.7,3.3,7.2
			c1,2.4,1.7,5,2.5,7.5c0.7,2,3.6,7.7,3,9.6c0.7-0.9,1.4-1.8,2-2.7c-2.1,1.6-5.7,1.6-8.2,2.1c-3.2,0.6-6.4,1.3-9.6,1.9
			c-6.1,1.2-12.1,2.5-18.2,3.8c-5.3,1.1-3,9,2.2,8.1c11.5-2.1,23.4-3.5,34.7-6.5c11-2.9,3.7-15.2,1.2-22c-3-8.1-7.3-15.7-11.5-23.2
			c0.1,0.9,0.2,1.8,0.4,2.7c0,0,0,0,0,0c-1.9,0.5-3.9,1-5.8,1.5c-1.1-1.3,0.6,0.8,0.6,0.8c0.7,0.6,1.3,0.9,2.2,1.3
			C432.2,550.3,434.1,550,434.3,548.4L434.3,548.4z"/>
	</g>
</g>
<g>
	<g>
		<path d="M444.9,547.7c0.7,5.6,3.6,11.2,5.2,16.6c1.8,6,3.3,12.1,4.4,18.3c0.3,2,1.6,6.1,0.8,8c-0.9,2.2-7.4,3.4-9.9,4.2
			c-8.3,2.6-16.9,3.3-25.3,5.4c-4.2,1.1-3.2,7.4,1,7.5c9.6,0.2,20-3.2,28.9-6.4c3.3-1.2,8.6-2.3,11-5.1c2-2.4,1.5-5.7,1.1-8.5
			c-1.1-7.5-3.4-14.7-5.9-21.8c-2.1-6.1-4.1-14.3-8.4-19.2C446.9,545.5,444.7,546.3,444.9,547.7L444.9,547.7z"/>
	</g>
</g>
<g>
	<g>
		<path d="M274,578.5c-0.6-0.6-1-1.3-1-1.9c0-0.1,0.1-0.6,0.2-0.7c0.2-0.3,0.9-1.2,1-1.9c0.2-1.6-0.7-3.6-2.6-3.5
			c-3.1,0.2-4.5,3.5-4.3,6.3c0.2,2.7,1.6,5.1,4.3,6C274,583.4,275.7,580.2,274,578.5L274,578.5z"/>
	</g>
</g>
<g>
	<g>
		<path d="M273.3,580.7c3.8,3.4,10.4,3.3,15.3,4.1c6.5,1.1,12.9,2.1,19.4,3.1c12.6,2,25.2,4,37.8,6.1c25.5,4.2,50.9,8.8,76.3,13.7
			c4,0.8,5.7-5.5,1.7-6.2c-25.8-4.5-51.7-8.7-77.6-12.8c-12.6-2-25.2-3.9-37.9-5.7c-6-0.9-12.1-1.8-18.1-2.5
			c-5.1-0.6-11.9-2.8-16.8-0.5C273.1,580.1,273.1,580.5,273.3,580.7L273.3,580.7z"/>
	</g>
</g>
<g>
	<g>
		<path d="M275.5,571.7c10.1,3.5,21.4,4.3,31.9,5.9c11.1,1.7,22.1,3.5,33.2,5.2c21.8,3.5,43.6,7.2,65.3,11.2
			c4.5,0.8,6.4-6.1,1.9-6.9c-22.1-3.8-44.3-7.4-66.5-10.5c-10.4-1.5-20.8-2.8-31.2-4.1c-11.2-1.4-23.1-3.8-34.4-2.7
			C274.7,569.9,274.4,571.3,275.5,571.7L275.5,571.7z"/>
	</g>
</g>
<g>
	<g>
		<path d="M351.7,556c1.8,4,8.6,4.3,12.5,5.3c6.1,1.6,12.1,3.2,18.2,4.8c12.2,3.2,24.5,5.6,36.9,8c2.2,0.4,3.2-2.8,1-3.5
			c-12.3-3.8-24.6-7.5-37.2-10.4c-6.1-1.4-12.2-2.9-18.3-4.3c-3.9-0.9-9.3-3.6-12.8-0.9C351.6,555.3,351.6,555.7,351.7,556
			L351.7,556z"/>
	</g>
</g>
<g>
	<g>
		<path d="M197.1,377.1c6.3-2.7,11.5-8.5,16.8-12.8c6.2-5,13-9.6,18.7-15.1c1.2-1.1-0.3-2.8-1.7-2.2c-6.7,3.2-13.1,8.2-18.9,12.8
			c-5.5,4.4-12.8,9.4-16.1,15.8C195.6,376.3,196.2,377.4,197.1,377.1L197.1,377.1z"/>
	</g>
</g>
<g>
	<g>
		<path d="M177.9,376.9c11.6-10.1,24.4-19.3,36.5-28.9c1.5-1.2-0.4-3.4-2-2.6c-6.8,3.5-12.8,8.9-18.7,13.7
			c-6.2,4.9-12.6,9.7-18.1,15.4C174,376,176.2,378.3,177.9,376.9L177.9,376.9z"/>
	</g>
</g>
<g>
	<g>
		<path d="M519.6,282c-8.2,0.1-14.5,8.4-20.1,13.3c-7.7,6.9-16.5,12.8-23.8,20c-1.1,1.1,0.3,2.6,1.6,2c8.1-3.7,15.3-10,22-15.9
			c6.9-6.2,13.4-12.4,20.8-18.1C520.5,283,520.4,282,519.6,282L519.6,282z"/>
	</g>
</g>
<g>
	<g>
		<path d="M495.5,273.8c-4,1.6-7.5,4.3-10.9,7c-3.9,3.1-8.2,6.2-11.4,10.1c-1,1.3,0.3,3.5,1.9,2.4c3.7-2.5,6.9-5.7,10.3-8.5
			c3.7-3,7.9-5.7,11.1-9.2C497.2,274.9,496.6,273.3,495.5,273.8L495.5,273.8z"/>
	</g>
</g>
<g>
	<g>
		<path d="M48.9,385.9c-10.5-0.2-21.7,7.7-28.8,14.8c-7.9,7.9-12,18.1-11.8,29.2c0.3,18.2,9.3,34,26.3,41.1
			c12.8,5.4,27,4.9,39.3-1.4c17.3-8.9,26-26.7,22.2-45.8C91.3,399.6,60.5,385,38,391.5c-1.5,0.4-0.9,2.7,0.6,2.3
			c11.5-2.6,26,1.2,35.6,8.1C84,409,91,419.4,91.9,431.6c1.4,19-14.6,34.3-32.4,37.7c-14,2.6-30.8-3.6-39.3-14.9
			c-6.6-8.8-9.1-21.7-7.5-32.5c2-12.8,12.7-22.7,23.6-28.6c4.2-2.2,8.9-3.3,13.2-5.3C50.5,387.4,49.9,385.9,48.9,385.9L48.9,385.9z"
			/>
	</g>
</g>
<g class="st0">
	<g class="st1">
		<path d="M30.9,417.1c-2.3,3.8-3.8,8-6.2,11.7c-1.4,2.3,1.3,4.3,3.4,3.4c1.8-0.8,7.6,0.5,8.6,2.8c1.5,3.6-2.4,4.4-4.7,4.5
			c-3.5,0.3-5.9-1.2-8.6-3.2c-1.1-0.8-2.6,0.3-2.6,1.5c-0.1,10.1,15.9,9.1,20.7,3.4c7.5-8.8-8.7-17.2-16-13.4
			c1.2,0.9,2.4,1.9,3.6,2.8c1.2-4.2,3.3-8.2,4.7-12.4C34.5,416.6,31.8,415.5,30.9,417.1L30.9,417.1z"/>
	</g>
</g>
<g class="st0">
	<g class="st1">
		<path d="M34.8,423.2c1.9,1,3.9,0.6,6,0.5c2-0.1,4.1,0.1,5.7-1.4c1-1,0.6-2.5-0.4-3.2c-1.7-1.1-3.7-0.5-5.7-0.3
			c-1.9,0.2-4,0.1-5.6,1.3C33.8,420.7,33.4,422.5,34.8,423.2L34.8,423.2z"/>
	</g>
</g>
<g class="st0">
	<g class="st1">
		<path d="M51.8,422.1c-0.4,7.4-7.4,15.3-0.9,22.1c5.3,5.5,12.6,1.5,15.8-4.1c3.6-6.3,3.7-14.9-1.9-20c-4.6-4.1-12.5-3.9-14.7,2.5
			c-0.4,1.2,1.1,2.2,2.1,1.6c5-2.9,10.8-1,11.5,5.3c0.4,3.8-1.6,10.2-5.6,11.6c-8.4,2.8-4.3-9.3-3.3-12.9c0.7-2.7,0.7-4.8-1.2-6.9
			C52.9,420.7,51.9,421.3,51.8,422.1L51.8,422.1z"/>
	</g>
</g>
<g class="st0">
	<g class="st1">
		<path d="M74.4,437.6c0-1,1.8-2.3,2.4-2.9c1.2-1.3,2.5-2.5,3.7-3.8c2.2-2.3,4.9-4.4,5.3-7.6c0.2-1.5-1.6-2.6-2.9-2.2
			c-2.3,0.6-3.5,2.5-4.9,4.2c-1.6,1.9-3.1,4-4.6,5.9c-1.8,2.3-4.4,5.5-1.1,7.7C73.1,439.5,74.4,438.6,74.4,437.6L74.4,437.6z"/>
	</g>
</g>
<g class="st0">
	<g class="st1">
		<path d="M69.2,421.2c0.1,0.7,0.4,1.2,0.8,1.7c0.5,0.6,1,1.1,1.8,1.4c0.7,0.2,1.6,0.1,2.3-0.3c1.2-0.8,2-2.7,1.1-4
			c-0.3-0.4-0.5-0.8-0.8-1.1c-0.3-0.3-0.6-0.6-1-0.8c-1-0.6-2.2-0.5-3.1,0.2C69.3,419,69,420,69.2,421.2L69.2,421.2z"/>
	</g>
</g>
<g class="st0">
	<g class="st1">
		<path d="M79.7,443c1.9,0,3.7-1.7,3.7-3.7c-0.1-2-1.6-3.7-3.7-3.7c-1.9,0-3.7,1.7-3.7,3.7C76.1,441.3,77.6,443,79.7,443L79.7,443z"
			/>
	</g>
</g>
<g>
	<g>
		<path d="M631.5,615.2c9.9-2,18.1,4.9,21.4,13.8c2.8,7.6,2.4,16.3,0.5,24c-3.9,16.1-15.3,29.6-31.1,34.9
			c-14.5,4.9-34.7,3.4-45.3-8.9c-12.7-14.7,1.2-32,12.6-42.4c12.9-11.7,29.3-19.6,46.6-21.8c3.9-0.5,3.2-5.9-0.7-5.4
			c-19,2.6-36.9,11.2-50.8,24.3c-6.6,6.2-13.3,13.7-17.2,22c-4,8.7-2.4,18.6,3.4,26.1c12,15.8,35.6,18.1,53.1,12
			c17.9-6.2,32-22,35.4-40.9c1.8-10.2,1-21.8-4.9-30.6c-5.2-7.8-14.4-12.4-23.8-10.2C628.7,612.7,629.6,615.6,631.5,615.2
			L631.5,615.2z"/>
	</g>
</g>
<g>
	<g>
		<path d="M637.7,612.3c-3.7,1.5-6.8,4-9.5,6.8c-2.5,2.6-5.5,5.7-5.6,9.5c0,0.8,1,1.5,1.7,1c2.9-2,4.3-5.2,6.6-7.8
			c2.5-2.7,5.3-5,8.1-7.4C639.9,613.7,639,611.8,637.7,612.3L637.7,612.3z"/>
	</g>
</g>
<g>
	<g>
		<path d="M605,627c8.4,0.8,16.8,0.9,24.6,4.5c6,2.8,11,8.7,17.2,10.7c1.5,0.5,3-1.4,2.1-2.7c-3.8-5.9-12.8-10.2-19.3-12.4
			c-7.8-2.7-16.7-3.4-24.8-2C603.6,625.3,604,626.9,605,627L605,627z"/>
	</g>
</g>
<g>
	<g>
		<path d="M613.2,614.5c-11.9-1.3-24.6,0.6-36,3.7c-15.2,4.1-30,11.6-39.9,24.1c-6.9,8.7-12.9,21-9.3,32.2
			c2.7,8.5,9.9,14.9,17.2,19.6c21.8,13.9,50.3,18.2,75.7,18.2c24.5,0,53.4-4,72.1-21.4c11-10.2,15.8-24,7.6-37.6
			c-8.7-14.5-27-27.4-43.8-30.1c-3.3-0.5-4.8,4.4-1.4,5.1c14.3,2.9,28.9,12.1,38.2,23.2c4.8,5.6,8.8,13.1,7,20.7
			c-1.2,5.3-4.8,10.2-8.5,14.1c-16.1,16.8-42.6,21.4-64.9,22.2c-24.2,0.9-50.3-2.4-72.3-13.1c-8-3.9-16.2-9-20.9-16.8
			c-5.3-8.8-3-17.8,1.7-26.4c15.5-28,48.6-32.8,77.4-35.2C614.9,617,614.8,614.7,613.2,614.5L613.2,614.5z"/>
	</g>
</g>
<g>
	<g>
		<path d="M2,626c-1.7,2.4-1.4,5.2-1.5,8c-0.1,3-0.6,6.3,0.3,9.2c0.7,2.2,3.7,2.2,4.4,0c0.9-2.9,0.4-6.2,0.3-9.2
			c-0.1-2.8,0.2-5.6-1.5-8C3.5,625.3,2.5,625.3,2,626L2,626z"/>
	</g>
</g>
<g>
	<g>
		<path d="M5.5,628.5c9.5-1.1,18.7-5.5,27.3-9.5c10-4.6,19.4-10.3,28.7-16.4c18.6-12.2,38.3-21.1,58.4-30.5c2.5-1.2,0.7-5.6-1.9-4.5
			c-19.6,8.2-38.8,17.4-56.7,29c-8.8,5.7-17.6,11.2-27,16c-9.6,4.8-20.2,7.9-29.5,13.2C3.6,626.5,4.1,628.7,5.5,628.5L5.5,628.5z"/>
	</g>
</g>
<g>
	<g>
		<path d="M118.7,576.3c50.7,11.3,102,19.7,153.2,28.8c59.5,10.5,119.1,20.8,178.7,31.1c19.6,3.4,39.2,6.6,58.8,9.9
			c4.2,0.7,6.1-5.8,1.8-6.5c-43.6-7.4-87.2-14.7-130.8-22.1c-61.7-10.4-123.4-21.1-185-32.6c-25-4.7-50.1-9.3-74.9-14.7
			C116.4,569.3,114.7,575.4,118.7,576.3L118.7,576.3z"/>
	</g>
</g>
<g>
	<g>
		<path d="M412.5,705.8c9-3.8,17-10.7,25.2-16c8.3-5.4,17-10,25.8-14.5c17-8.8,34.2-17.3,48.4-30.4c2.7-2.5-1.3-6.5-4-4
			c-14.5,13.3-32.2,21.7-49.5,30.7c-16.9,8.8-33.3,19.3-48.3,31.1C408.1,704.2,410.6,706.6,412.5,705.8L412.5,705.8z"/>
	</g>
</g>
<g>
	<g>
		<path d="M510.1,644.4c-1,3.5-0.4,7.5,0,11c0.4,3,0.5,6.5,2.6,8.9c0.7,0.7,2.1,0.4,2.3-0.6c0.5-3-0.9-5.8-1.5-8.7
			c-0.7-3.5-0.7-7.2-1.8-10.5C511.4,643.6,510.3,643.6,510.1,644.4L510.1,644.4z"/>
	</g>
</g>
<g>
	<g>
		<path d="M412.3,704.7c-0.1-0.2-0.2-0.5-0.3-0.7c-0.5-1.1-2.2-1-2.7,0c-1.3,2.4-0.9,5.5-0.8,8.2c0.2,3.1,0.3,6.7,1.5,9.7
			c0.8,2.1,4.5,2.1,4.3-0.6c-0.3-3.4-1.3-6.6-1.7-10c-0.2-1.8-0.6-3.7-0.3-5.6C411.9,707.8,412.4,704.9,412.3,704.7L412.3,704.7z"/>
	</g>
</g>
<g>
	<g>
		<path d="M414.7,723.7c16.4-10.1,32.4-20.7,49.1-30.2c8.1-4.6,16.2-9.1,24.5-13.4c8.7-4.5,18.3-8.2,26.5-13.5
			c1.9-1.2,0.7-4.5-1.6-3.7c-8.9,2.8-17.4,8.1-25.6,12.3c-8.5,4.4-17,9-25.3,13.8c-16.9,9.6-33.9,19.7-49.4,31.5
			C410.9,721.9,412.6,725,414.7,723.7L414.7,723.7z"/>
	</g>
</g>
<g>
	<g>
		<path d="M2.9,643.8c13,4,26.4,6.3,39.7,9c13.4,2.7,26.8,5.4,40.2,8.1c26.9,5.4,53.9,10.7,80.8,15.9
			c53.3,10.4,106.8,20.4,160.1,30.6c30,5.7,60,11.7,90.1,16.9c2.9,0.5,4.3-3.9,1.3-4.5c-53.6-11.2-107.4-20.9-161.1-31.6
			C200,677.5,146,667.1,92,657c-14.7-2.7-29.5-5.5-44.2-8.2c-14.8-2.7-29.6-5.9-44.6-7.1C2,641.7,1.8,643.5,2.9,643.8L2.9,643.8z"/>
	</g>
</g>
<g>
	<g>
		<path d="M6.6,631.2c13,4,26.4,6.3,39.7,9c13.3,2.7,26.5,5.3,39.8,7.9c25.8,5.1,51.5,10.1,77.3,15c52.1,10,104.4,19.5,156.5,29.3
			c29.9,5.6,59.7,11.5,89.7,16.7c2.9,0.5,4.3-3.9,1.3-4.5c-52.9-11-106.1-20.5-159.1-30.8c-52.1-10.1-104.3-20-156.5-29.5
			c-14.9-2.7-29.9-5.5-44.8-8.2c-14.5-2.6-29-5.7-43.6-6.9C5.6,629.1,5.5,630.9,6.6,631.2L6.6,631.2z"/>
	</g>
</g>
<g>
	<g>
		<path d="M48.1,622.3c12.8,3.7,25.9,6.3,38.9,9.1c22.8,4.9,45.6,9.5,68.4,14.1c56.3,11.3,112.6,22.9,168.9,33.9
			c27.5,5.4,55.1,10.8,82.6,16.2c3.9,0.8,5.6-5.2,1.6-6c-52.4-10.8-104.9-21.2-157.5-31.3c-51.8-10-103.5-20.5-155.4-30
			c-15.6-2.9-31.2-6-46.9-8.2C47.3,620,46.7,621.9,48.1,622.3L48.1,622.3z"/>
	</g>
</g>
<g>
	<g>
		<path d="M106.1,586.3c12.6,3.7,25.6,6.1,38.5,8.8c22.2,4.7,44.5,9,66.8,13.3c55.7,10.8,111.4,21.9,167.2,32.6
			c27.3,5.2,54.5,10.4,81.7,15.8c3.9,0.8,5.6-5.2,1.6-6c-51.7-10.6-103.5-20.6-155.4-30.3C255.3,611,204.2,601,152.9,592
			c-15.4-2.7-30.7-5.6-46.2-7.8C105.3,584,104.7,585.9,106.1,586.3L106.1,586.3z"/>
	</g>
</g>
<g>
	<g>
		<path d="M49.5,620.6c4.5,1.4,10.2-2.8,14-4.8c5.5-3,10.5-6.5,15.6-10.1c9.9-7,21.7-11.4,32.6-16.6c3.2-1.5,0.4-6.3-2.8-4.7
			c-10.6,5.1-22.2,9.5-31.9,16.3c-4.8,3.4-9.5,6.8-14.6,9.9c-2.6,1.6-5.3,3.1-8,4.4c-2.5,1.3-4.3,1.7-5.6,4.2
			C48.5,619.7,48.8,620.4,49.5,620.6L49.5,620.6z"/>
	</g>
</g>
<g>
	<g>
		<path d="M409.6,691.1c10.3-4.4,19.9-11.2,29.3-17c8.1-5,16.7-10.2,23.2-17.2c2.7-2.9-1.9-6.6-4.4-3.4c-6,7.8-16.2,12.9-24.4,18
			c-8.6,5.4-17.9,10.5-25.6,17.2C406.2,689.9,408.1,691.7,409.6,691.1L409.6,691.1z"/>
	</g>
</g>
<g>
	<g>
		<path d="M78.3,622.1c3.3,0.5,6-2,8.8-3.6c4.6-2.7,9.1-5.4,13.5-8.4c8.2-5.5,16.1-11.2,23.9-17.3c2.1-1.6-0.8-4.5-2.9-2.9
			c-8,6.2-16.1,12.2-24.5,17.9c-3.9,2.6-7.7,5.3-11.6,7.9c-2.7,1.8-6.2,3-7.3,6.2C78.2,622.1,78.3,622.1,78.3,622.1L78.3,622.1z"/>
	</g>
</g>
<g>
	<g>
		<path d="M100,628.8c5.8-5.2,13.2-8.1,19.1-13.3c7.2-6.3,14-12.7,22-18c2.1-1.4,0.1-4.8-2-3.4c-8.4,5.8-15.4,12.7-23,19.5
			c-3.8,3.4-7.8,6.4-12.2,9.1c-2.3,1.5-4.4,2.9-4.6,5.8C99.3,628.9,99.8,629,100,628.8L100,628.8z"/>
	</g>
</g>
<g>
	<g>
		<path d="M117.4,633.9c3.8-1.1,6.6-4.2,9.6-6.6c3.5-2.8,7-5.7,10.4-8.6c7.3-6.3,14.7-12.6,22.1-18.8c1.7-1.4-0.7-3.9-2.4-2.4
			c-7.2,6-14.3,12.1-21.4,18.2c-3.4,2.9-6.8,5.9-10.1,8.9c-3,2.8-6.7,5.3-8.5,9C117.1,633.7,117.2,634,117.4,633.9L117.4,633.9z"/>
	</g>
</g>
<g>
	<g>
		<path d="M138.4,636.9c8.7-2.9,16.4-10.7,23.4-16.4c8.3-6.6,16.8-13.2,24.4-20.6c1.6-1.5-0.6-4.5-2.4-3.1
			c-8,6.2-15.6,13.1-23.4,19.5c-7.4,6.1-17.2,11.9-22.2,20.2C138.1,636.7,138.2,636.9,138.4,636.9L138.4,636.9z"/>
	</g>
</g>
<g>
	<g>
		<path d="M162.3,639.5c6.1-6.1,14-10.2,20.9-15.4c6.9-5.2,13.6-10.8,20-16.5c2.1-1.8-1-4.9-3-3c-7.8,7-15.8,13.5-24.2,19.8
			c-4.5,3.4-14.7,8.2-14.3,14.9C161.7,639.6,162.1,639.7,162.3,639.5L162.3,639.5z"/>
	</g>
</g>
<g>
	<g>
		<path d="M185.9,646.2c3.6-6.9,11.6-12.5,17.3-17.7c6.2-5.7,12.6-11.1,19.1-16.5c2-1.7-0.9-4.5-2.9-2.9
			c-7.5,6.1-14.8,12.4-21.8,19.1c-4.7,4.5-12.9,10.4-12.7,17.7C185,646.5,185.7,646.7,185.9,646.2L185.9,646.2z"/>
	</g>
</g>
<g>
	<g>
		<path d="M206.3,647c3-1.3,5.2-3.7,7.6-5.9c3.4-3.1,6.8-6.2,10.4-9.1c3.3-2.8,6.6-5.5,9.9-8.2c3.5-2.8,7.7-5.3,10.6-8.8
			c1.2-1.5-0.3-3.3-2-2.5c-3.9,1.7-7.5,5.1-10.8,7.8c-3.3,2.7-6.6,5.5-9.8,8.4c-3.2,2.9-6.4,5.7-9.4,8.8c-2.7,2.7-5.8,5.3-7.3,8.8
			C205.3,646.7,205.8,647.2,206.3,647L206.3,647z"/>
	</g>
</g>
<g>
	<g>
		<path d="M224.2,653.2c12.9-10.8,24.3-23.3,37.3-34c2-1.6-0.8-4.4-2.8-2.8c-12.9,10.5-26.5,21.9-35.9,35.8
			C222.2,653,223.5,653.8,224.2,653.2L224.2,653.2z"/>
	</g>
</g>
<g>
	<g>
		<path d="M250.4,656.9c7-3.9,13-10.2,19.1-15.4c6.7-5.6,13.4-11.3,20.1-17c2-1.7-0.9-4.5-2.8-2.8c-6.6,5.7-13.3,11.4-19.8,17.3
			c-5.9,5.3-12.9,10.5-17.5,17C249.1,656.6,249.9,657.2,250.4,656.9L250.4,656.9z"/>
	</g>
</g>
<g>
	<g>
		<path d="M273.1,660.1c12.7-9.9,24-21.3,35.9-32.1c1.4-1.3-0.7-3.3-2.1-2.1c-12,10.6-24.2,21.3-34.1,33.9
			C272.7,660,272.9,660.3,273.1,660.1L273.1,660.1z"/>
	</g>
</g>
<g>
	<g>
		<path d="M294.7,665c1.7-3.2,5.2-5.6,7.8-8c3-2.8,6-5.8,8.9-8.7c5.8-5.7,11.4-11.5,17.1-17.4c1.8-1.8-1-4.6-2.8-2.8
			c-6.4,6.5-12.8,13-19,19.6c-3.1,3.2-6.1,6.5-9.1,9.8c-1.9,2.2-3.5,4-4,7C293.6,665.1,294.4,665.6,294.7,665L294.7,665z"/>
	</g>
</g>
<g>
	<g>
		<path d="M313.5,670c7.7-4,14.1-12,20.1-18.1c6.3-6.4,13-12.9,18.2-20.2c0.9-1.3-1-2.6-2.1-1.6c-6.7,6.3-12.6,13.6-19,20.3
			c-5.8,6-13.6,11.8-17.9,19C312.5,669.7,313,670.2,313.5,670L313.5,670z"/>
	</g>
</g>
<g>
	<g>
		<path d="M333.3,673.6c3.3-2.7,6.4-4.9,9.5-7.9c2.9-2.9,5.9-5.7,8.8-8.6c6.2-6,12.2-12.2,18.2-18.3c1.3-1.4-0.7-3.4-2.1-2.1
			c-6.1,6-12.3,12-18.3,18.2c-2.6,2.7-5.3,5.4-7.9,8.1c-3.2,3.3-5.7,6.6-8.6,10.2C332.8,673.5,333.1,673.8,333.3,673.6L333.3,673.6z
			"/>
	</g>
</g>
<g>
	<g>
		<path d="M357.9,677c8.5-0.8,16.5-8.7,22.5-14.1c3.7-3.3,7.2-6.8,10.8-10.2c3.8-3.6,8.9-6.8,12.2-10.8c0.8-0.9,0.1-2.9-1.3-2.3
			c-4,1.6-7.3,5.1-10.5,8c-3.7,3.3-7.2,6.8-10.7,10.3c-3.8,3.7-7.6,7.3-11.9,10.5c-3.7,2.8-8,4.9-11.4,8
			C357.4,676.5,357.6,677,357.9,677L357.9,677z"/>
	</g>
</g>
<g>
	<g>
		<path d="M379.1,681.9c8.5-1.9,16.4-8.9,23-14.3c3.8-3,7.4-6.2,10.9-9.6c3.2-3.1,7.6-6.4,9.4-10.5c0.6-1.5-0.7-3.1-2.3-2.3
			c-3.5,1.9-6.1,5.7-9,8.5c-3.5,3.4-7.1,6.6-10.8,9.7c-6.9,5.8-16.1,10.4-21.9,17.3C378,681.3,378.4,682,379.1,681.9L379.1,681.9z"
			/>
	</g>
</g>
<g>
	<g>
		<path d="M69.7,610.3c45.6,8.7,91.3,17.1,137,25.6c22.9,4.3,45.8,8.4,68.5,13.2c22.8,4.8,45.4,10.5,68,15.7
			c25.4,5.8,50.9,11.6,76.4,17.1c2.2,0.5,3.2-2.9,1-3.5c-45.6-10.5-91.3-20.6-137.2-29.5c-45.6-8.8-90.9-19.5-136.7-27.4
			C121.1,617.3,95.4,613.6,69.7,610.3C69.6,610.2,69.6,610.3,69.7,610.3L69.7,610.3z"/>
	</g>
</g>
<g>
	<g>
		<path d="M94.9,597c89.1,21,179,39.2,268.8,57.5c25.4,5.2,50.7,10.4,76.1,15.7c2.7,0.6,3.8-3.6,1.1-4.1
			c-90-17.5-179.6-36.9-269.4-55.1c-25.4-5.1-50.7-10.5-76.2-15.5C94.3,595.2,93.9,596.7,94.9,597L94.9,597z"/>
	</g>
</g>
<g>
	<g>
		<path d="M206.8,274.7c0.2,10.7,2,21.5,2.9,32.2c0.9,11.1,1.6,22.2,1.9,33.3c0.3,10.8,0.3,21.6-0.1,32.4
			c-0.4,11.1-1.9,22.3-1.7,33.3c0,1.8,2.9,2.3,3.2,0.4c1.8-10.4,1.6-21.3,1.8-31.8c0.2-11.5,0.1-22.9-0.2-34.4
			c-0.3-11.1-1-22.2-2-33.3c-1-10.7-1.7-22-4.5-32.4C208,273.7,206.8,273.9,206.8,274.7L206.8,274.7z"/>
	</g>
</g>
<g>
	<g>
		<path d="M212.1,267.9c8.9,2.8,18.3,3,27.5,3.3c9.8,0.3,19.5,0.2,29.3-0.1c19.8-0.6,39.6-1.5,59.4-2.3c39.8-1.6,79.6-3.2,119.4-4.7
			c3.8-0.2,3.8-6.1,0-5.9c-39.5,1.6-79,3.2-118.4,4.7c-19.5,0.8-38.9,1.7-58.4,2.3c-9.8,0.3-19.5,0.6-29.3,0.5
			c-9.7,0-19.5-1.1-29.2-0.2C211.1,265.7,210.7,267.5,212.1,267.9L212.1,267.9z"/>
	</g>
</g>
<g>
	<g>
		<path d="M452.7,264.6c-1.8,10.5-0.4,22.3-0.2,32.9c0.2,11.6,0.4,23.2,0.5,34.8c0.1,11.3,0.3,22.6,0.6,33.9
			c0.1,5.6,0.3,11.3,0.3,16.9c-0.1,5.9-1.2,11.3-2.3,17.1c-0.3,1.6,2,2.9,2.8,1.2c4.4-8.6,3.6-19.8,3.3-29.2
			c-0.3-12.3-0.6-24.6-1.1-36.8c-0.5-11.9-0.9-23.9-1.3-35.8c-0.2-6-0.4-11.9-0.7-17.9c-0.2-5.7,0-11.5-1.2-17
			C453.2,264.3,452.7,264.3,452.7,264.6L452.7,264.6z"/>
	</g>
</g>
<g>
	<g>
		<path d="M238.1,436.3c7.3,2.6,16.1,2.2,23.7,3.4c8,1.2,16,2.5,24,4c15.7,3,31.3,5.9,47.1,8.4c31.8,5.1,63.8,9.4,95.7,13.7
			c5.4,0.7,6.5-6.8,1-7.5c-32.7-4-65.3-8-97.9-13.1c-16.1-2.5-32.1-5.5-48.2-8c-7.3-1.2-14.6-2.3-22-2.9c-7.4-0.6-16.4-1.9-23.5,0.8
			C237.6,435.4,237.6,436.1,238.1,436.3L238.1,436.3z"/>
	</g>
</g>
<g>
	<g>
		<path d="M213.8,291.2c40.1,7,80.8,6.4,121.4,5.3c20.2-0.5,40.5-1.3,60.7-1.7c20.9-0.4,41.7,0.2,62.6,0.7c4.7,0.1,4.6-6.9,0-7.2
			c-40.5-3.3-81.8-0.1-122.3,1.4c-40.6,1.5-81.3,1.6-121.9-2C212.3,287.5,211.8,290.8,213.8,291.2L213.8,291.2z"/>
	</g>
</g>
<g>
	<g>
		<path d="M249,274.7c0.2,12.6,1.2,25.3,1.6,38c0.3,12.8,0.6,25.5,0.5,38.3c-0.1,12.8-0.6,25.5-1.1,38.3c-0.3,6.5-0.6,13.1-1,19.6
			c-0.4,6.3-1.8,13.3-1,19.6c0.3,2.3,3.4,3,4.1,0.6c1.8-5.7,1.5-12.3,1.9-18.2c0.5-6.9,0.9-13.7,1.3-20.6
			c0.7-13.4,0.8-26.9,0.7-40.3c-0.1-13.1-0.3-26.2-0.9-39.3c-0.4-6.8-0.8-13.6-1.6-20.4c-0.6-5.5-1.3-10.9-3.9-15.8
			C249.4,274.4,249,274.5,249,274.7L249,274.7z"/>
	</g>
</g>
<g>
	<g>
		<path d="M288,432c1.6-13.5,1.4-27.1,1.6-40.7c0.2-13.6,0.4-27.1,0.7-40.7c0.6-27.1,2.1-54.2,2.5-81.3c0-2.4-3.6-2.4-3.7,0
			c-1.4,27.1-1.5,54.2-1.9,81.3c-0.2,13.2-0.4,26.5-0.6,39.7c-0.2,13.9-0.7,27.9,0.8,41.7C287.5,432.4,288,432.4,288,432L288,432z"
			/>
	</g>
</g>
<g>
	<g>
		<path d="M329.4,435.5c4-11.9,4.5-24.1,5-36.6c0.6-13.8,1.2-27.6,1.7-41.4c1-27.6,2-55.2,2.7-82.8c0.1-2.8-4.2-2.8-4.3,0
			c-1.1,27-1.9,53.9-2.7,80.9c-0.4,13.1-0.7,26.3-1,39.4c-0.3,13.3,0.1,27.1-2.1,40.3C328.6,435.7,329.3,435.9,329.4,435.5
			L329.4,435.5z"/>
	</g>
</g>
<g>
	<g>
		<path d="M389,445.3c1.6-14.4,0.3-28.9,0.1-43.4c-0.2-14.5-0.3-28.9,0-43.4c0.6-28.7,2.6-57.3,4.6-85.9c0.2-3.6-5.3-3.6-5.6,0
			c-2.4,28.9-4.4,57.8-4.6,86.9c-0.1,14.5,0.1,28.9,0.8,43.4c0.6,14.2,0.8,28.6,4.2,42.4C388.6,445.6,388.9,445.6,389,445.3
			L389,445.3z"/>
	</g>
</g>
<g>
	<g>
		<path d="M227,316.9c8.9,0.8,18.2-0.2,27.2-0.3c8.4,0,16.8,0.1,25.3,0.4c17.5,0.7,35,2.1,52.5,3.8c17.5,1.6,35,3.6,52.5,5.3
			c8.4,0.8,16.9,1.6,25.3,2.2c4.5,0.3,9.1,0.7,13.6,0.9c3.7,0.2,7.4,1.1,10.6-0.8c1.2-0.7,1.1-2.3,0-3c-3-2.2-7-1.6-10.6-1.8
			c-4.5-0.2-9.1-0.5-13.6-0.8c-8.4-0.6-16.9-1.3-25.3-2c-17.8-1.5-35.7-3.3-53.5-4.8c-17.5-1.4-35-2.5-52.5-2.7
			c-8.7-0.1-17.5-0.1-26.2,0.3c-8.3,0.4-17.3,0.5-25.3,2.7C226.5,316.4,226.6,316.9,227,316.9L227,316.9z"/>
	</g>
</g>
<g>
	<g>
		<path d="M226,339.8c17.7,2.6,36.1,2.6,53.9,3.7c17.8,1.1,35.7,2.4,53.5,3.7c36.3,2.8,72.6,6.2,108.8,10.1c4,0.4,4-5.9,0-6.3
			c-35.9-3.6-71.8-6.7-107.8-9.2c-17.8-1.2-35.7-2.3-53.5-3.3c-18-1-36.5-2.9-54.5-1.7C224.9,337.1,224.3,339.6,226,339.8L226,339.8
			z"/>
	</g>
</g>
<g>
	<g>
		<path d="M228.7,366.8c8,2.5,17.4,2.2,25.8,3c9.2,0.8,18.3,1.7,27.5,2.7c18.3,1.9,36.6,4.1,54.8,6.5c18.6,2.5,37.2,5.2,55.8,8.2
			c18.1,2.9,36.1,7,54.3,9.6c3.6,0.5,5.2-4.7,1.5-5.6c-18.4-4.4-37.6-6.8-56.3-9.7c-17.8-2.7-35.5-5.2-53.4-7.4
			c-18.2-2.2-36.5-4.2-54.8-5.8c-9.1-0.8-18.3-1.5-27.5-2.2c-8.9-0.6-18.9-2.4-27.7-0.9C227.9,365.3,228,366.5,228.7,366.8
			L228.7,366.8z"/>
	</g>
</g>
<g>
	<g>
		<path d="M226.9,390.5c33.3,5.8,67.3,8.6,100.8,13.2c33.7,4.6,67.2,10.2,100.7,16.5c3.7,0.7,5.3-5,1.6-5.7
			c-33.4-6.3-66.9-11.6-100.5-16c-33.7-4.5-68.3-9.1-102.4-8.9C226.5,389.6,226.3,390.4,226.9,390.5L226.9,390.5z"/>
	</g>
</g>
<g>
	<g>
		<path d="M221,280.5c-0.2-1.4,2-0.7,2.6,0c0.4,0.5,0.7,1.4,0.9,2c0.6,1.2,1.3,2.2,2.3,3.2c0.8,0.8,1.8,0.8,2.7,0.4
			c2.6-1.1,4.2-3.7,4.9-6.4c-1.5,0.2-3.1,0.4-4.6,0.6c1.7,2.3,3.9,5.4,7.1,5.1c1.8-0.2,3.2-2,2.1-3.7c-1.3-2.2-3.6-2.6-5.2-4.5
			c-1.2-1.4-3.8-0.7-4.2,1.1c-0.4,1.9-1.4,2.9-2.8,4.2c0.9-0.1,1.8-0.2,2.7-0.4c-2.9-1.3-3.5-6-7.5-5.4c-2.2,0.4-3,2.2-1.9,4
			C220.3,281.1,221,281,221,280.5L221,280.5z"/>
	</g>
</g>
<g>
	<g>
		<path d="M268,281.3c0-0.1,0-0.1,0-0.2c-0.1-0.6-0.5-1-1.2-0.9c-1.6,0.3-1.5,1.9-0.5,2.8c0.6,0.6,1.5,0.6,2.2,0.3
			c0.6-0.3,2.2,1.6,2.7,2c1.1,0.7,2.1,1.1,3.4,1.1c1.5,0,2.7-0.8,4.1-1.1c1.7-0.3,3.5-0.4,5.2-0.7c1.1-0.2,1.2-1.5,0.6-2.2
			c-1.4-1.8-3-2.5-5.4-2.3c-1,0.1-1.9,0.4-2.9,0.7c-1.5,0.4-1.9,0.5-3.2,0c-1.5-0.6-2.3-1.7-4-1.4c-1.3,0.2-2.5,0.9-3.3,2
			c0.6-0.1,1.3-0.2,1.9-0.2c0,0.3,0,0.5,0,0.8c-0.4,0-0.9,0-1.3,0c0,0,0.1,0.1,0.1,0.1C267.1,282.3,268.1,282,268,281.3L268,281.3z"
			/>
	</g>
</g>
<g>
	<g>
		<path d="M304.2,283.5c1.8,0.6,1.9,0.1,4,0c2.5,0,4.4,0.9,6.3,2.4c1.1,0.8,2.6,0.1,3.3-0.9c0.7-1,5.5,1.1,6.7,0.8
			c1.6-0.4,2.6-1.5,3.1-3c0.2-0.7-0.3-1.7-1.1-1.9c-4-0.7-10.5-3.2-12.8,1.6c1.1-0.3,2.2-0.6,3.3-0.9c-3.5-1.7-10.8-3.5-13.3,0.7
			C303.5,282.9,303.8,283.4,304.2,283.5L304.2,283.5z"/>
	</g>
</g>
<g>
	<g>
		<path d="M353,279.8c-1.6,1.9,3.7,5.1,5.8,4.8c3.1-0.5,5.3-3.6,6.5-6.3c-1.2,0.5-2.4,1-3.6,1.5c0.4,0.4,0.8,0.8,1.3,1.2
			c0.7,2.1,3.7,3.3,5.3,1.4c2.3-2.7,5.2-2.3,8.5-2.8c1.7-0.3,1.7-2.4,0.9-3.4c-3.6-4.6-10.6-2-13.9,1.7c1.8,0.5,3.6,0.9,5.3,1.4
			c-1-3-2.7-4.7-5.7-5.6c-1.2-0.4-3.1,0.2-3.6,1.5c-1.2,2.9-1.2,2.4-3.5,1.2c-1-0.5-1.4-0.8-2.5-0.8c-1.7,0.1-3.2,0.9-3.7,2.6
			C349.5,279.7,351.8,281.2,353,279.8L353,279.8z"/>
	</g>
</g>
<g>
	<g>
		<path d="M412.8,279.4c8.6,0.3,17.1,1,25.6,1.9c3.3,0.4,3.8-4.7,0.8-5.6c-8.3-2.4-17.8-1.2-26.4-1.1
			C409.7,274.6,409.7,279.3,412.8,279.4L412.8,279.4z"/>
	</g>
</g>
<g>
	<g>
		<g>
			<path d="M105.9,201.1c25.8,1.9,48.2,19.2,59.2,42.2c12.2,25.4,7.3,56.7-7,80.2c-10.9,17.8-31.8,31-53,31c-13,0-26-3.8-37.4-9.8
				c-12.7-6.7-23.9-17.1-30.8-29.8c-9.3-17.3-10.5-38.3-7.3-57.3c3.3-20,14.7-36.5,32.8-45.8c16.2-8.3,35.3-9.8,53.2-8.9
				c2.1,0.1,2.1-3.2,0-3.3c-18.7-0.7-37.8,1.3-54.8,9.5c-18,8.8-29.6,25.3-34.1,44.6c-8.5,35.9,1.7,75.4,34.5,95.1
				c11.6,7,25,11.1,38.5,12.2c17.5,1.5,34.5-5.5,47.9-16.4c20-16.1,30-43.8,29.9-68.9c-0.1-24.3-11.3-47.9-30.8-62.6
				c-11.9-9-25.9-14.3-40.8-14.8C104.1,198.3,104.1,201,105.9,201.1L105.9,201.1z"/>
		</g>
	</g>
	<g>
		<g>
			<path d="M61,244C61,244,61,243.9,61,244C61,243.9,61,244,61,244L61,244z"/>
		</g>
	</g>
	<g>
		<g>
			<path d="M60.7,243.2c-2.3,9.4-2.2,19.2-2.7,28.8c-0.5,10.7-1.1,21.3-1.5,32c-0.1,3,4.6,3,4.7,0c0.4-10,0.5-20.1,0.8-30.1
				c0.2-10.2,1.1-20.6-0.6-30.6C61.3,242.9,60.7,242.9,60.7,243.2L60.7,243.2z"/>
		</g>
	</g>
	<g>
		<g>
			<path d="M142.5,248.2c-1.5,4.3-1.5,9.1-2,13.6c-0.6,5.8-1.3,11.6-1.9,17.4c-0.5,5.1-0.9,10.3-1.1,15.4c-0.2,5.1-0.7,11,0.9,15.8
				c0.4,1.3,2.7,1.6,2.9,0c0.7-4.5,0.1-9.3,0.1-13.9c0-5.8,0.3-11.6,0.7-17.4c0.4-5.1,0.7-10.3,1.1-15.5c0.3-5,1.1-10.6-0.3-15.5
				C143,247.9,142.6,247.9,142.5,248.2L142.5,248.2z"/>
		</g>
	</g>
	<g>
		<g>
			<path d="M59.6,303.7c4.7,3.5,12.2,2.6,17.8,3c7.2,0.5,14.4,1,21.6,1.5c7.2,0.5,14.4,1,21.6,1.5c5.7,0.4,13.3,2.4,18.6,0
				c1.2-0.5,1-2.3,0-2.9c-4.9-3-12.9-1.8-18.6-2.1c-7.2-0.4-14.4-0.7-21.6-1.1c-7.2-0.4-14.4-0.7-21.6-1.1
				c-5.5-0.3-12.8-2.1-17.8,0.9C59.4,303.4,59.5,303.6,59.6,303.7L59.6,303.7z"/>
		</g>
	</g>
	<g>
		<g>
			<path d="M59.2,243.2c5.7,3.2,13.1,3.5,19.4,4.4c6.8,1,13.6,1.8,20.4,2.6c7.2,0.8,14.4,1.4,21.7,2c3.9,0.3,7.9,0.6,11.8,0.8
				c3.3,0.2,6.1,0.9,8.8-1.1c0.9-0.7,1.3-2,0.4-2.9c-4-3.7-11.9-2.4-17.1-2.7c-7.2-0.5-14.5-1-21.7-1.7c-7.2-0.6-14.4-1.3-21.6-2
				c-7-0.7-14.9-2.8-21.8-1.2C58.5,241.5,58.4,242.8,59.2,243.2L59.2,243.2z"/>
		</g>
	</g>
	<g>
		<g>
			<path d="M62.7,247.8c5,7.4,11.6,13.9,18,20.1c3.4,3.3,7,6.4,10.6,9.5c2.5,2.2,6.4,6.7,10.1,6.7c3.8,0,7.7-3.3,10.9-5
				c4.5-2.5,8.9-5.1,13.3-7.6c4.3-2.4,8.6-4.8,12.8-7.4c1.2-0.8,1.9-1.8,2.7-2.9c0.8-1.1,0-2.9,0.6-3.8c-0.8,0.4-1.6,0.9-2.3,1.3
				c0.3,0,0.5,0,0.8,0c3.5-0.1,3.5-5.5,0-5.4c-1.9,0-3.4,0.8-3.9,2.8c-0.2,0.8-0.1,1.6,0.1,2.4c0.2,1.3-5.8,4-6.8,4.6
				c-7.7,4.5-15.5,8.8-23.2,13.4c-1.9,1.1-4.1,3.3-6.6,1.6c-2.3-1.5-4.4-3.4-6.5-5.1c-3.2-2.6-6.4-5.3-9.5-8.1
				c-6.7-5.9-12.8-12.4-19.5-18.2C63.5,245.9,62.1,246.8,62.7,247.8L62.7,247.8z"/>
		</g>
	</g>
	<g>
		<g>
			<path d="M116.3,279.7c2.4,4.7,6.2,9,9.1,13.4c2.6,3.8,4.5,10.1,8.6,12.3c0.7,0.4,1.5-0.1,1.6-0.9c0.3-4.7-4.5-9.6-7.1-13.3
				c-3.1-4.5-6.7-9.5-11.1-12.7C116.7,278.1,115.9,279.1,116.3,279.7L116.3,279.7z"/>
		</g>
	</g>
	<g>
		<g>
			<path d="M90.6,274.2c-5.4,1.8-9.8,8-13.3,12.3c-4.3,5.2-8.7,10.6-12.2,16.4c-1.6,2.7,2.4,4.9,4.1,2.4c3.9-5.4,7.4-11,11.4-16.3
				c3.4-4.4,8.7-9.2,10.1-14.7C90.8,274.3,90.7,274.2,90.6,274.2L90.6,274.2z"/>
		</g>
	</g>
</g>
<g>
	<g>
		<g>
			<path d="M257.8,201.5c0.1-7.5-1.9-15.6-5.6-22.1c-0.5-0.8-1.8-0.3-1.5,0.6c2.3,7.3,4,14.2,5.2,21.7
				C256,202.9,257.8,202.6,257.8,201.5L257.8,201.5z"/>
		</g>
	</g>
	<g>
		<g>
			<path d="M209.8,93.7c2.6,4.2,5.5,8.2,7.8,12.5c2.9,5.3,4.3,10.9,6.5,16.5c0.5,1.2,2.4,1.1,2.3-0.3c-0.6-10.7-7.4-23-15.9-29.3
				C210.1,92.7,209.5,93.3,209.8,93.7L209.8,93.7z"/>
		</g>
	</g>
	<g>
		<g>
			<g>
				<path d="M209,66.3c-16.9,5.2-31.4,15.4-41.2,30.1c-12,17.9-14.6,40.9-11.6,61.9c5.5,39.6,32.1,71.5,70,84.1
					c20.8,7,46.5,9.4,67.6,2.5c18.1-5.9,32-19.7,41.3-35.9c9.5-16.5,14.3-35.4,16.2-54.2c2.1-20.6-1.3-40.1-12.3-57.8
					c-14.4-23.2-40.9-43.4-67.8-49.5c-39.2-9-83.5,9.4-109.2,39.3c-1.4,1.6,0.8,3.8,2.3,2.3c31.9-30.7,82-50.1,124.1-29.2
					c17.1,8.5,32.6,21.1,43.6,36.9c12.4,17.8,15.6,37.9,13.5,59.2c-3.8,38.5-24.4,81.9-67.1,86.9c-44.1,5.1-89.2-15.5-109-56
					c-10.6-21.7-13.5-48.3-6.8-71.5c6.6-22.6,24.5-40.3,46.6-47.9C210,67.1,209.7,66.1,209,66.3L209,66.3z"/>
			</g>
		</g>
		<g>
			<g>
				<path d="M199.7,93.5c-13.5,7.4-16.2,23.8-15.3,37.9c1.3,18.5,8.5,36.9,18.4,52.4c7.9,12.4,20.1,27.2,36.1,27.4
					c8.2,0.1,20-2.9,25.2-9.9c8.1-10.9,2.3-24-3.7-34.4c-0.6-1.1-2-1.3-3-0.8c-8,4-14.9,5.9-22.4-0.2c-5.5-4.5-9.3-11.5-11.6-18.2
					c-1.8-5.3-3.2-12.8-0.6-18.1c2.6-5.1,11-2.6,12.9-8.1c1.6-4.7,0.1-11-0.9-15.7c-1.1-5.1-3.5-10.6-7.9-13.7
					c-11-7.9-25.4-2.9-33.8,6.2c-0.9,1,0.3,2.6,1.4,1.9c6-3.6,13.2-7,20.4-7.2c8.8-0.2,13.5,6.4,15.4,14.1c0.7,2.9,1,6,1.2,9
					c0.1,1.3,0.6,3.5-0.8,4.4c-1.3,0.9-3.8,1.1-5.3,1.5c-4.7,1.5-7.4,5.5-8.3,10.2c-2.1,10.8,3.1,23.7,9.7,31.9c4,5,8.7,8.6,15,10.3
					c6.3,1.7,12.4-1.6,17.8-4.4c-1-0.3-2-0.5-3-0.8c5.6,9.6,12.6,24.5,0.7,32.5c-7,4.7-17.8,7-25.8,4.2
					c-12.9-4.5-22.3-18.7-28.7-29.9c-7.9-13.5-13.4-29-14.9-44.6c-1.3-13.4,1.2-28,12.9-36.1C201.9,94.5,200.9,92.8,199.7,93.5
					L199.7,93.5z"/>
			</g>
		</g>
		<g>
			<g>
				<path d="M256.2,202.8c-6.1,4.2,0.5,12.9,4.7,15.7c8.8,5.8,20.6-1.2,27.8-6.3c9.2-6.6,14.7-15.4,16-26.7c0.6-4.9,1.5-10.3-0.6-15
					c-1.7-3.9-6.9-3.2-9.7-1.4c-6.6,4.1-4.6,14.7,2.5,16.5c9.4,2.4,15.5-10.9,18.2-17.6c3.9-10,4.1-21.9,0.3-32
					c-3-8.1-12.4-15.3-20.5-9.1c-0.7,0.5-0.3,2,0.7,1.6c15.7-6,18.9,16.1,18.1,26.4c-0.5,6.6-2.7,12.9-5.9,18.6
					c-1.6,2.9-3.6,5.7-6.4,7.6c-2.7,1.8-6.9,0.9-7.1-3.1c0.1-0.7,0.2-1.5,0.3-2.2c0.6-3.6,2.9-3.7,6.9-0.2c0.4,6.3-1,13.2-3.1,19.2
					c-2.5,6.9-8.4,11.9-14.2,15.9c-5.6,3.9-12.5,7.6-19.6,6C257.5,215.2,256.4,208.7,256.2,202.8
					C256.2,202.8,256.2,202.8,256.2,202.8L256.2,202.8z"/>
			</g>
		</g>
	</g>
</g>
<g>
	<g>
		<path d="M32.2,416.7c-3.4-5.1,9.2-7.3,10.8-2.5c1.7,5.1-1.7,8.9-5.7,11.1c-4.1,2.3-7.2,7.8-6.2,12.5c0.4,2.1,3.1,1.6,3.7,0
			c1.5-3.9,2.3-6.9,6.2-9.1c2.4-1.3,4.4-2.2,5.5-4.9c1.9-4.9,2.4-11.1-1.5-15.1c-3.3-3.4-11.7-2-15,0.6c-3.3,2.6-4.2,7.4,0.1,9.5
			C31.3,419.5,33.1,418.1,32.2,416.7L32.2,416.7z"/>
	</g>
</g>
<g>
	<g>
		<path d="M34.7,450c3.4,0,3.4-5.3,0-5.3C31.3,444.7,31.3,450,34.7,450L34.7,450z"/>
	</g>
</g>
<g>
	<g>
		<path d="M60.2,409.3c-2.3,3.8-2.5,9.4-3.5,13.7c-1.1,4.7-2.2,9.5-2.6,14.3c-0.3,3.3,4.7,3.2,5.1,0c0.5-4.9,1.3-9.8,2.1-14.6
			c0.6-3.9,2.2-9.3,0.8-13.1C61.8,408.7,60.7,408.5,60.2,409.3L60.2,409.3z"/>
	</g>
</g>
<g>
	<g>
		<path d="M56.2,452.4c1.7,0,3.1-1.4,3.1-3.1s-1.4-3.1-3.1-3.1c-1.7,0-3.1,1.4-3.1,3.1S54.5,452.4,56.2,452.4L56.2,452.4z"/>
	</g>
</g>
<g>
	<g>
		<g>
			<path d="M481.5,28.3c-16.8,5.2-31.9,14.8-43,28.4c-14.2,17.5-19.8,39.9-19.7,62.2c0.2,38,17.6,74.6,48.2,97.3
				c17.4,12.9,38.4,20.3,59.7,23.3c21.8,3.1,44.7,2.7,64.7-7.2c34.5-17.2,50.7-58,55.4-94.1c2.6-20.1,2.1-40.1-5.9-59
				c-7.7-18.3-20.9-33.9-36.2-46.3c-12.8-10.4-27.4-18.9-43.1-24.2c-19.1-6.5-40.7-5.3-60.1-1c-28.7,6.5-55.5,22.3-74.8,44.6
				c-1.4,1.6,0.8,3.8,2.3,2.3c18.8-18.4,41.5-32.2,66.8-39.6C516,9,539,7.3,559.3,13.8c34.8,11.1,67.8,40.1,79.2,75.1
				c6.3,19.2,4.7,40.3,0.9,59.8c-3.7,19.2-10.8,37.9-22.1,53.8c-11.7,16.4-28.7,27.8-48.5,31.7c-12,2.4-24.9,1.8-37.1,0.5
				c-11.7-1.2-23.3-4-34.3-8.1c-38.3-14.3-64.9-48.3-72.5-88.1c-4.3-22.6-2.5-47,7.9-67.7c8.7-17.4,24.1-31,41.8-38.8
				c2.3-1,4.8-1.9,7.2-2.8C482.4,29.1,482.2,28.1,481.5,28.3L481.5,28.3z"/>
		</g>
	</g>
	<g>
		<g>
			<path d="M468,121.3c13.5-5.7,20.2,7.7,22.9,18.7c2.4,9.7,5.1,27.7-7.4,31c-11.3,3-19-11.9-20.9-20.5c-2-9.2-2-24.7,9.9-26.7
				c3.4-0.6,1.9-5.7-1.4-5.2c-15.6,2.5-15.9,21.3-13.7,33.3c2.3,12.8,14.1,28.4,28.7,23.2c14.8-5.3,11.1-26.1,8.2-37.7
				c-2.9-11.2-14.3-27.6-27.2-17.6C465.9,120.5,467.1,121.7,468,121.3L468,121.3z"/>
		</g>
	</g>
	<g>
		<g>
			<path d="M484.2,177.1c6.5-1.2,12.1-4.9,18.5-6.4c2.4-0.6,1.3-4.4-1-3.7c-6.3,2.1-11.8,6-17.9,8.4
				C482.7,175.8,483.1,177.3,484.2,177.1L484.2,177.1z"/>
		</g>
	</g>
	<g>
		<g>
			<path d="M472.9,116.9c6.2,2.7,15.6-0.6,21.4-3.2c2.5-1.1,0.3-4.8-2.1-3.6c-3.2,1.4-6.4,2.6-9.8,3.4c-3.1,0.8-6.4,0.5-9.3,1.7
				C472.5,115.4,472.1,116.5,472.9,116.9L472.9,116.9z"/>
		</g>
	</g>
	<g>
		<g>
			<path d="M492,112.2c8.6,3.7,12.7,13.4,15.2,21.9c3.4,11.4,3.5,24-4.4,33.5c-1.1,1.3,0.6,3.2,1.9,1.9c9.4-9.1,8.4-24.6,4.8-36.1
				c-1.8-5.6-4.4-11.2-8.2-15.7c-2.1-2.5-5.6-6.4-9.4-5.9C491.8,111.9,491.8,112.2,492,112.2L492,112.2z"/>
		</g>
	</g>
	<g>
		<g>
			<path d="M576.9,97c-16.7,4.7-19.8,24.9-16.3,39.4c2,8.2,6.3,14.4,14.2,17.9c7.6,3.4,14.5,3,20.3-3c5.9-6.1,9.9-12.6,10.7-21.2
				c0.8-8-2.5-15.7-7.4-21.9c-4.7-5.9-13.1-11.1-20.7-11.5c-6.4-0.3-15.9,2.9-14.5,11c0.2,1.3,2.1,1.7,2.9,0.8
				c1.6-1.8,3-3.6,5.1-4.9c3.2-2,7.6-0.8,11,0.2c5.5,1.6,10.3,5.5,13.8,10c3.6,4.7,5,10.4,4.9,16.3c-0.2,7.3-4.5,12.8-9.1,17.9
				c-5.4,6-12.9,4-19.1,0.4c-5.8-3.4-7.7-10.4-9-16.6c-2.8-13.4,1.7-26.4,13.8-33.4C578.3,97.9,577.8,96.7,576.9,97L576.9,97z"/>
		</g>
	</g>
	<g>
		<g>
			<path d="M578.2,114.1c-2.1,2.6-3.6,5-3.8,8.5c-0.1,3.5,2.4,7.4,4.8,9.6c0.8,0.7,1.8-0.2,1.4-1.1c-1.2-2.7-3-4.9-3.9-7.8
				c-0.9-3,0.7-6.4,1.8-9.1C578.7,114.2,578.4,113.9,578.2,114.1L578.2,114.1z"/>
		</g>
	</g>
	<g>
		<g>
			<path d="M582.2,117.2c0.4,0.7,1,1.1,1.5,1.7c0.8,0.9,1.2,1.9,1.7,2.9c1,1.9,0.2,3.9,0.7,5.8c0.3,1.1,1.6,1.4,2.5,0.7
				c2.1-1.8,1.3-5.7,0.3-7.8c-1-2-3.8-4.7-6.3-4.1C582.2,116.4,582,116.8,582.2,117.2L582.2,117.2z"/>
		</g>
	</g>
	<g>
		<g>
			<path d="M572.9,97.2c6.3,0.1,12.9-0.7,19.1-1.9c1.5-0.3,1.1-2.8-0.4-2.6c-6.2,0.7-12.9,1.7-18.9,3.6
				C572.3,96.4,572.4,97.2,572.9,97.2L572.9,97.2z"/>
		</g>
	</g>
	<g>
		<g>
			<path d="M584.3,158.5c3.3,0.6,6.6-0.7,9.8-1.6c4-1.2,8.1-2.1,12-3.5c2.2-0.7,1.3-3.7-0.9-3.4c-3.6,0.5-7.1,1.8-10.6,2.8
				c-3.4,1.1-7.7,1.6-10.5,3.9C583.5,157.2,583.4,158.3,584.3,158.5L584.3,158.5z"/>
		</g>
	</g>
	<g>
		<g>
			<path d="M606.7,151.8c11.7-6.9,12.9-23.1,10-35c-1.6-6.5-4.9-12.6-9.7-17.2c-2.7-2.6-11.5-8.8-15-5.2c-0.4,0.4-0.5,1.1-0.2,1.6
				c1.3,1.9,3.2,1.6,5.3,2.1c2.7,0.7,5.2,2.3,7.3,4.1c4.7,3.9,7.6,9.7,9.3,15.5c3.6,11.7,1.5,24.8-7.6,33.4
				C605.6,151.4,606.2,152.1,606.7,151.8L606.7,151.8z"/>
		</g>
	</g>
	<g>
		<g>
			<path d="M490.8,113.3c1.2-7,2.4-13.7,5.4-20.3c4.8-10.7,13-18.1,23.5-22.9c13.5-6.2,28.8-8.8,42.3-1.5
				c10.9,5.9,20.3,16.2,26.2,27c1.6,2.9,6.2,0.2,4.5-2.6c-7-11.4-17-21.4-28.7-27.8c-14-7.6-30-5-44.1,0.9
				c-11.4,4.7-20.1,12.1-25.9,23.1c-3.5,6.7-7.2,16.5-5.2,24.2C489.1,114.2,490.6,114.3,490.8,113.3L490.8,113.3z"/>
		</g>
	</g>
	<g>
		<g>
			<path d="M471.8,117.5c1.2-2.8,1-5.9,1.5-8.9c0.5-3.5,1.6-6.9,2.7-10.2c2.8-8,8-15.2,14.8-20.2c11.8-8.8,26.6-14,41.4-11.7
				c10.8,1.7,20.4,7.4,28.1,14.8c3.2,3.1,6.1,6.5,8.6,10.1c1.7,2.4,2.5,5.6,5.5,6.6c0.8,0.3,1.5-0.3,1.8-1c1.2-3.3-2.1-6.7-4-9.2
				c-3-4-6.4-7.6-10.2-10.8c-8.9-7.8-19.7-13.1-31.5-14.7c-15.2-2-31.4,4.3-43.1,13.7c-6.1,4.9-10.9,11.3-13.9,18.5
				c-2.5,6-6.1,16.6-3,22.9C470.7,118,471.5,118,471.8,117.5L471.8,117.5z"/>
		</g>
	</g>
	<g>
		<g>
			<path d="M557.9,183.3c-3.9-4.4-12.2,1.4-14.5,5.1c-4.5,7.3,11.8,7.4,14.9,7.1c4.4-0.4,14.8-2.4,11.6-8.9
				c-2.9-6-14.6-5.2-18.8-1.8c-1.5,1.3,0.2,3.4,1.8,3.1c3.6-0.7,6.5-1.7,10.3-0.9c3.7,0.8,2.3,3.4-0.3,4.3c-2.5,0.9-5.2,1.1-7.9,1.2
				c-3.1,0.1-11.9-0.5-6.5-5.4C551.4,184.5,554.9,185.4,557.9,183.3C557.9,183.4,557.9,183.4,557.9,183.3L557.9,183.3z"/>
		</g>
	</g>
	<g>
		<g>
			<path d="M569.6,188.6c6.5-0.2,13.5-3.1,19.4-5.6c6.3-2.8,12-6.2,17.1-10.7c4.6-4.1,8.4-9.3,10.5-15.1c1.6-4.2-0.6-10.4-5.6-9.9
				c-1.1,0.1-1.8,1.4-0.9,2.3c8.1,7.9-7.6,21.1-13.7,25.4c-4.1,2.9-8.8,5.1-13.4,7.1c-4.4,1.9-9.3,2.8-13.5,5.2
				C568.7,187.7,569,188.6,569.6,188.6L569.6,188.6z"/>
		</g>
	</g>
</g>
<g>
	<g>
		<path d="M149.5,467.7c2.6,2.3,6.1,3,9.3,4.1c4.1,1.3,8.5,2.6,12.8,2.9c2.4,0.1,2.8-3.5,0.6-4.1c-4-1-8.2-1.6-12.3-2.5
			c-3.3-0.7-6.7-1.9-10.1-1.3C149.4,466.9,149.2,467.5,149.5,467.7L149.5,467.7z"/>
	</g>
</g>
</svg>
