<?xml version="1.0" encoding="utf-8"?>
<!-- Generator: Adobe Illustrator 22.0.0, SVG Export Plug-In . SVG Version: 6.00 Build 0)  -->
<svg version="1.1" id="Слой_9" xmlns="http://www.w3.org/2000/svg" xmlns:xlink="http://www.w3.org/1999/xlink" x="0px" y="0px"
	 viewBox="0 0 55.1 644.5" style="enable-background:new 0 0 55.1 644.5;" xml:space="preserve">
<style type="text/css">
	.st0{fill:#00B8B2;}
	.st1{fill:url(#SVGID_1_);}
</style>
<circle class="st0" cx="27.5" cy="8.1" r="10.1"/>
<linearGradient id="SVGID_1_" gradientUnits="userSpaceOnUse" x1="27.5" y1="647.5" x2="27.5" y2="66.75">
	<stop  offset="0" style="stop-color:#A3C921"/>
	<stop  offset="0.49" style="stop-color:#6FD49C"/>
	<stop  offset="0.72" style="stop-color:#22B9F0"/>
	<stop  offset="1" style="stop-color:#0F81D7"/>
</linearGradient>
<path class="st1" d="M37.6,326.8c0,5.6-4.5,10.1-10.1,10.1s-10.1-4.5-10.1-10.1s4.5-10.1,10.1-10.1S37.6,321.2,37.6,326.8z
	 M27.5,394.3c-5.6,0-10.1,4.5-10.1,10.1c0,5.6,4.5,10.1,10.1,10.1s10.1-4.5,10.1-10.1C37.6,398.8,33.1,394.3,27.5,394.3z M27.5,472
	c-5.6,0-10.1,4.5-10.1,10.1c0,5.6,4.5,10.1,10.1,10.1s10.1-4.5,10.1-10.1C37.6,476.5,33.1,472,27.5,472z M27.5,549.7
	c-5.6,0-10.1,4.5-10.1,10.1s4.5,10.1,10.1,10.1s10.1-4.5,10.1-10.1S33.1,549.7,27.5,549.7z M27.5,627.3c-5.6,0-10.1,4.5-10.1,10.1
	c0,5.6,4.5,10.1,10.1,10.1s10.1-4.5,10.1-10.1C37.6,631.8,33.1,627.3,27.5,627.3z M27.5,66.8c-11,0-20,9-20,20s9,20,20,20
	s20-9,20-20S38.5,66.8,27.5,66.8z M27.5,228.1c-11,0-20,9-20,20c0,11,9,20,20,20s20-9,20-20C47.5,237,38.5,228.1,27.5,228.1z
	 M27.5,139.9C12.3,139.9,0,152.2,0,167.4c0,15.2,12.3,27.5,27.5,27.5S55,182.6,55,167.4C55,152.2,42.7,139.9,27.5,139.9z"/>
</svg>
