<?xml version="1.0" encoding="utf-8"?>
<!-- Generator: Adobe Illustrator 17.0.0, SVG Export Plug-In . SVG Version: 6.00 Build 0)  -->
<!DOCTYPE svg PUBLIC "-//W3C//DTD SVG 1.1//EN" "http://www.w3.org/Graphics/SVG/1.1/DTD/svg11.dtd">
<svg version="1.1" id="Слой_9" xmlns="http://www.w3.org/2000/svg" xmlns:xlink="http://www.w3.org/1999/xlink" x="0px" y="0px"
	 width="1088.378px" height="92.164px" viewBox="415.727 494.756 1088.378 92.164"
	 enable-background="new 415.727 494.756 1088.378 92.164" xml:space="preserve">
<circle fill="#00B8B2" cx="432.652" cy="540.838" r="16.925"/>
<linearGradient id="SVGID_1_" gradientUnits="userSpaceOnUse" x1="-293.9755" y1="577.9171" x2="-293.9755" y2="1158.6169" gradientTransform="matrix(7.523401e-011 -1.6757 -1.6757 -7.523401e-011 2472.5313 48.2179)">
	<stop  offset="0" style="stop-color:#A3C921"/>
	<stop  offset="0.49" style="stop-color:#6FD49C"/>
	<stop  offset="0.72" style="stop-color:#22B9F0"/>
	<stop  offset="1" style="stop-color:#0F81D7"/>
</linearGradient>
<path fill="url(#SVGID_1_)" d="M966.703,523.913c9.384,0,16.925,7.541,16.925,16.925c0,9.384-7.541,16.925-16.925,16.925
	c-9.384,0-16.925-7.541-16.925-16.925C949.778,531.454,957.319,523.913,966.703,523.913z M1079.814,540.838
	c0,9.384,7.541,16.925,16.925,16.925s16.925-7.541,16.925-16.925c0-9.384-7.541-16.925-16.925-16.925
	S1079.814,531.454,1079.814,540.838z M1210.017,540.838c0,9.384,7.541,16.925,16.925,16.925s16.925-7.541,16.925-16.925
	c0-9.384-7.541-16.925-16.925-16.925S1210.017,531.454,1210.017,540.838z M1340.22,540.838c0,9.384,7.541,16.925,16.925,16.925
	c9.384,0,16.925-7.541,16.925-16.925c0-9.384-7.541-16.925-16.925-16.925C1347.761,523.913,1340.22,531.454,1340.22,540.838z
	 M1470.256,540.838c0,9.384,7.541,16.925,16.925,16.925c9.384,0,16.925-7.541,16.925-16.925c0-9.384-7.541-16.925-16.925-16.925
	C1477.797,523.913,1470.256,531.454,1470.256,540.838z M531.016,540.838c0,18.433,15.081,33.514,33.514,33.514
	c18.433,0,33.514-15.081,33.514-33.514c0-18.433-15.081-33.514-33.514-33.514C546.098,507.323,531.016,522.405,531.016,540.838z
	 M801.31,540.838c0,18.433,15.081,33.514,33.514,33.514c18.433,0,33.514-15.081,33.514-33.514c0-18.433-15.081-33.514-33.514-33.514
	C816.224,507.323,801.31,522.405,801.31,540.838z M653.511,540.838c0,25.471,20.611,46.082,46.082,46.082
	c25.471,0,46.082-20.611,46.082-46.082c0-25.471-20.611-46.082-46.082-46.082C674.123,494.756,653.511,515.367,653.511,540.838z"/>
</svg>
