<?xml version="1.0" encoding="utf-8"?>
<!-- Generator: Adobe Illustrator 22.0.0, SVG Export Plug-In . SVG Version: 6.00 Build 0)  -->
<svg version="1.1" id="Слой_1" xmlns="http://www.w3.org/2000/svg" xmlns:xlink="http://www.w3.org/1999/xlink" x="0px" y="0px"
	 viewBox="0 0 310 310" style="enable-background:new 0 0 310 310;" xml:space="preserve">
<style type="text/css">
	.st0{fill:url(#SVGID_1_);}
</style>
<g>
	<linearGradient id="SVGID_1_" gradientUnits="userSpaceOnUse" x1="154.55" y1="240" x2="154.55" y2="-0.1">
		<stop  offset="0" style="stop-color:#0F81D7"/>
		<stop  offset="0.28" style="stop-color:#22B9F0"/>
		<stop  offset="0.51" style="stop-color:#6FD49C"/>
		<stop  offset="1" style="stop-color:#A3C921"/>
	</linearGradient>
	<path class="st0" d="M154.5-0.1C127-0.1,102.2,11,84.2,29S55.1,71.9,55.1,99.3c0,11.9,2.1,23.3,6.1,34.1c1.3,3.5,2.7,6.8,4.3,10.1
		c3.1-4.3,6.5-8.2,10.2-12c6.8-6.8,14.6-12.6,23.1-17.3c-1.2-4.7-1.9-9.7-1.9-14.9c0-15.9,6.4-30.3,16.9-40.7s24.8-16.9,40.7-16.9
		s30.3,6.4,40.7,16.9c10.4,10.4,16.9,24.8,16.9,40.7c0,7-1.2,13.6-3.3,19.5c-2.3,6.3-5.6,12.1-9.8,17.2
		c-10,12.2-25.9,27.4-40.6,41.6l-3.7,3.6l-3.9-3.8c-6.6-6.5-13.3-13-19.8-19.6c-6.4,2.9-12.2,6.9-17.1,11.8
		c-5.1,5.1-9.3,11.2-12.2,17.9c6.6,6.6,13.2,13.1,19.9,19.6c4.3,4.2,8.6,8.4,18.2,18.1l14.8,14.8l14.8-14.8
		c7.2-7.2,12.5-12.3,18-17.5c15.4-14.8,32.1-30.8,43.9-45.2c7.2-8.7,12.9-18.7,16.8-29.6c3.8-10.6,5.9-21.9,5.9-33.6
		c0-27.5-11.1-52.3-29.1-70.3C206.9,11.1,182-0.1,154.5-0.1z"/>
	<path d="M154.6,111c-27.5,0-52.3,11.1-70.3,29.1S55.2,183,55.2,210.4c0,27.5,11.1,52.3,29.1,70.3s42.9,29.1,70.3,29.1
		c27.5,0,52.3-11.1,70.3-29.1s29.1-42.9,29.1-70.3c0-20.6-6.3-39.8-17-55.7c-1.8,2.6-3.7,5.2-5.7,7.6c-6.7,8.2-15,16.8-23.7,25.5
		c3,6.9,4.6,14.6,4.6,22.6c0,15.9-6.4,30.3-16.9,40.7c-10.4,10.4-24.8,16.9-40.7,16.9s-30.3-6.4-40.7-16.9
		C103.4,240.8,97,226.4,97,210.5s6.4-30.3,16.9-40.7c10.4-10.4,24.8-16.9,40.7-16.9c4.2,0,8.2,0.4,12.2,1.3
		c8.7-8.6,16.8-17,22.8-24.3c2.5-3,4.7-6.3,6.5-9.8C183.5,114.3,169.4,111,154.6,111z"/>
</g>
</svg>
