<?xml version="1.0" encoding="utf-8"?>
<!-- Generator: Adobe Illustrator 22.0.0, SVG Export Plug-In . SVG Version: 6.00 Build 0)  -->
<svg version="1.1" id="Слой_1" xmlns="http://www.w3.org/2000/svg" xmlns:xlink="http://www.w3.org/1999/xlink" x="0px" y="0px"
	 viewBox="0 0 655 513" style="enable-background:new 0 0 655 513;" xml:space="preserve">
<g>
	<g>
		<path d="M436,140.1c-3.6-0.2-5.4,2.6-7.7,5c-3,3.1-5.9,6.2-9,9.2c-5.8,5.4-12.1,10.1-19.1,13.8c-6.7,3.5-13.9,6-21.3,7.5
			c-7.5,1.6-15,1.3-22.3,3.6c-1.6,0.5-2.4,3.2-0.5,4c14.3,6.3,33.7-0.5,46.9-7.2c7.6-3.8,14.6-8.8,20.9-14.7
			c3.6-3.3,7-6.9,10.1-10.6c2.4-2.9,5-5,4.2-9C438,140.8,437,140.1,436,140.1L436,140.1z"/>
	</g>
</g>
<g>
	<g>
		<path d="M358.1,179.9c3.3,4.6,9.2-1.9,11-4.8c3.6-5.6,6-12.8,1.5-18.5c-0.7-0.9-2.4-0.2-2.3,0.9c0.6,5-1.4,10-3.8,14.3
			c-0.9,1.7-2.1,3.3-3.5,4.6c-1,1-2.2,1.5-3,2.7C357.9,179.3,357.9,179.6,358.1,179.9L358.1,179.9z"/>
	</g>
</g>
<g>
	<g>
		<path d="M369.1,158.5c-4.9-1.3-10.9,2.6-14.7,5.2c-4.8,3.2-9.1,7.1-12.7,11.7c-6.3,8-14.4,22.7-9.6,32.9c0.6,1.3,2.8,1,3.1-0.4
			c1.3-5.7,1.2-11.3,3.3-16.9c1.9-5,4.8-9.6,8.2-13.6c3.2-3.7,6.8-6.8,10.9-9.5c3.7-2.4,9.2-3.7,12.1-7
			C370.4,160.1,370.2,158.8,369.1,158.5L369.1,158.5z"/>
	</g>
</g>
<g>
	<g>
		<path d="M335,205.9c-0.9-2.5-2.5-3.2-4.8-4.7c-3.1-2.1-6-4.4-8.5-7.1c-6.1-6.6-8.2-13.9-8.1-22.7c0-1.6-2.3-1.8-2.8-0.4
			c-2.8,8.3,0.4,17.5,5.5,24.2c3.3,4.4,11.6,13.8,17.7,12.3C334.8,207.3,335.3,206.5,335,205.9L335,205.9z"/>
	</g>
</g>
<g>
	<g>
		<path d="M328.4,314.6c0.3-4.7-1.7-9-3.7-13.1c-2.4-5.2-4.7-10.5-6.6-16c-3.8-11-6.6-22.4-7.8-34c-1.2-11.1-1.5-22.2-0.5-33.3
			c0.6-6.1,1.4-12.1,2.4-18.1c0.9-5.6,2.8-11.5,2.6-17.2c0-1.3-2-2.1-2.6-0.7c-2.3,5.2-2.9,11.3-4,16.9c-1.1,5.8-2,11.5-2.7,17.3
			c-1.4,11.7-1.6,23.5-0.1,35.1c3,22.9,11.9,42.9,22.2,63.3C327.9,315.1,328.4,314.9,328.4,314.6L328.4,314.6z"/>
	</g>
</g>
<g>
	<g>
		<path d="M435.1,138.5c0.1,0.3-1.5,3.6-1.6,4.3c-0.3,1.7-0.2,3.5,0,5.3c0.4,3.8,1.2,7.6,2.4,11.3c2.8,8.2,8.3,15.5,13.2,22.6
			c0.7,1,1.7,1.8,3,1.7c1.6-0.1,2.2-0.2,3-1.7c0.5-1.1,0.7-2.4,0-3.5c-3.9-6-8.8-11.7-12-18.2c-1.8-3.6-2.7-7.6-3.8-11.5
			c-1-3.3-1.9-6.4-1.9-9.9c0-0.5-0.5-1.1-1-1c-0.3,0-0.6,0-1,0C435.2,137.8,435,138.2,435.1,138.5L435.1,138.5z"/>
	</g>
</g>
<g>
	<g>
		<path d="M456.1,187.3c3.2-2.7,1-8.7,1.4-12.5c0.6-5.9,2.6-12.2,5.5-17.5c0.8-1.5-1.2-3.2-2.4-1.8c-4.3,4.8-6.9,9.8-7.8,16.3
			c-0.6,4.5-1,12.1,2.6,15.5C455.6,187.5,455.9,187.5,456.1,187.3L456.1,187.3z"/>
	</g>
</g>
<g>
	<g>
		<path d="M460.7,163.8c1.1,5.9,4.4,11.7,5.9,17.7c1.5,5.9,2.8,12,3.7,18c1.9,12.4,2.4,25.2,1.6,37.7c-0.8,12.6-3.2,25-6.9,37.1
			c-3.8,12.3-9.7,23-15.2,34.5c-1.4,2.9,2.5,5.1,4.3,2.5c7.3-10.4,12.1-23.6,15.8-35.7c3.8-12.5,6-25.4,6.8-38.4
			c0.8-13,0-26-2.5-38.8c-1.2-6.3-2.9-12.5-5-18.6c-1.8-5.3-3.9-12.5-8.3-16.2C460.9,163.5,460.6,163.6,460.7,163.8L460.7,163.8z"/>
	</g>
</g>
<g>
	<g>
		<path d="M454.7,61.3c4.8,0.7,9.9,3.6,14.1,5.8c3.4,1.7,5.8,4.1,8.3,6.9c5.7,6.5,10.2,14.3,14,22.1c11.6,24.5,15.8,52,16.2,78.8
			c0.7,42.4-7.8,89.1-38.1,120.9c-3.8,4-7.9,7.7-12.2,11.2c-2.5,2.1-5.3,4-7.2,6.7c-2.8,4.1,3.9,8,6.7,3.9c-0.3,0.5-0.2,0.2,0.4-0.4
			c0.5-0.5,1-0.9,1.5-1.4c1.3-1.2,2.7-2.3,4.1-3.4c4-3.3,7.9-6.7,11.5-10.5c11.8-12.1,20.7-26.6,27.1-42.2
			c10.6-25.9,14.2-54.5,14.1-82.3c-0.2-28-5-57-17-82.4c-4.4-9.3-9.8-18.4-17.3-25.6c-6.6-6.3-17-10.9-26.2-9.5
			C454.2,60.3,454.2,61.2,454.7,61.3L454.7,61.3z"/>
	</g>
</g>
<g>
	<g>
		<path d="M455.7,60.7c-0.5-6.2-5.1-11.6-9.7-15.5c-13.1-11.3-30.6-15.6-47.5-16.5c-26.7-1.5-54,5.8-76.5,20.1
			c-28.8,18.4-47.3,47.5-55.1,80.5c-9.9,42.5-6.1,90.1,12,129.9c11.1,24.6,28.1,44.5,48.7,61.5c2.6,2.2,6.4-1.6,3.8-3.8
			c-16-13.1-29.8-27.7-40.4-45.6c-21-35.7-28.1-78.4-24.2-119.4c3.3-35.3,17.7-69.5,45.7-92.1c19.7-15.8,44.9-25.1,70.1-26.6
			c26.5-1.6,55.8,5,71.6,28C454.6,61.8,455.8,61.6,455.7,60.7L455.7,60.7z"/>
	</g>
</g>
<g>
	<g>
		<path d="M328.7,321.5c0.2,0.1,0.4,0.2,0.6,0.2c0.9,0.4,2,0.6,2.9,0c4.6-3.4,8.7-4.3,14.4-4.7c2.9-0.2,5.4,0,8.1-1.2
			c1.8-0.8,1.6-3.6,0-4.5c-3.4-1.9-8.1-1.3-11.9-1c-2.7,0.2-5.4,0.8-7.9,1.8c-1.2,0.5-2.3,1-3.3,1.8c-0.8,0.6-2,2.8-2.7,3.1
			C327,317.9,327,320.8,328.7,321.5L328.7,321.5z"/>
	</g>
</g>
<g>
	<g>
		<path d="M453.8,313.1c-6.4-5.2-15.3-9.2-23.7-7.4c-1.4,0.3-1.7,2.4-0.4,3.1c6.7,3.4,14.1,5.3,20.9,8.4
			C453.1,318.4,456.3,315.1,453.8,313.1L453.8,313.1z"/>
	</g>
</g>
<g>
	<g>
		<path d="M368.2,284.9c-3.5,0.5-4,3.7-3,6.6c1.5,4.3,5.2,7.8,9.1,10c8.9,5,22.2,6.5,30.8,0.1c3.3-2.5,6.1-5.8,4.1-10
			c-2.3-4.7-7.1-8.3-11.7-10.4c-8.8-3.9-25.2-3.9-31.1,5c-0.8,1.2,0.2,3,1.7,2.9c3.4-0.3,6-2,9.3-3.1c3.5-1.2,7.2-1.8,10.9-1.7
			c4.1,0.2,21.5,6.3,15.1,12.5c-5.3,5.2-14,5.1-20.8,3.6c-3.1-0.7-6.2-1.8-8.9-3.5c-2.4-1.5-10.5-8.6-5.3-11.8
			C368.6,285.1,368.4,284.8,368.2,284.9L368.2,284.9z"/>
	</g>
</g>
<g>
	<g>
		<path d="M367.7,294.3c-4.2-2.5-9.7-3-14.4-4c-5.7-1.3-11.4-2.2-17-3.6c-10.9-2.6-17.8-12.3-25.7-19.6c-0.4-0.4-1.3,0.1-0.9,0.7
			c5.8,8.4,12,18.7,22,22.4c5.8,2.1,12.4,2.9,18.4,4c5.5,0.9,11.8,2.9,17.3,1.8C368.3,295.8,368.3,294.6,367.7,294.3L367.7,294.3z"
			/>
	</g>
</g>
<g>
	<g>
		<path d="M365.6,285.3c-2.8-4-9.1-5.1-13.6-6.1c-5.8-1.3-12.3-1.5-17.5-4.6c-5.5-3.3-9.8-9-14.4-13.5c-4.7-4.6-9.3-9.3-14.5-13.3
			c-0.7-0.5-1.7,0.5-1.2,1.2c4,5.7,8.7,10.7,13.4,15.8c4.2,4.6,8.5,9.9,13.7,13.3c4.5,2.9,9.7,3.6,15,4.3c3.9,0.5,7.7,1.2,11.5,2.2
			c2.6,0.7,4.7,1.6,7.4,1.1C365.7,285.7,365.8,285.4,365.6,285.3L365.6,285.3z"/>
	</g>
</g>
<g>
	<g>
		<path d="M306.1,233.2c-0.4,4.9,2.7,10.4,4.4,14.9c2.1,5.5,4.1,14.1,9.6,17.3c0.7,0.4,1.6-0.1,1.6-0.9c-0.3-6.4-4.6-13-7.3-18.7
			c-2-4.2-3.5-9.9-7-13.1C306.8,232.3,306.1,232.6,306.1,233.2L306.1,233.2z"/>
	</g>
</g>
<g>
	<g>
		<path d="M337.8,289.8c7.3,8.8,17.7,14.9,28.3,18.8c11.2,4.2,24.5,6.8,36.5,5.3c20.9-2.7,41-16.8,55.1-31.9
			c7.5-8.1,16-18.3,16-29.8c0-0.9-1.3-1.3-1.8-0.5c-6.4,11.3-12.5,22-22.2,31.1c-9.7,9.2-21.2,17.1-33.6,22
			c-26.6,10.6-55.3-1.1-77.7-15.8C337.9,288.6,337.4,289.3,337.8,289.8L337.8,289.8z"/>
	</g>
</g>
<g>
	<g>
		<path d="M288.4,395.1c2.8-2.2,4.4-5.8,6.3-8.7c2.2-3.4,4.4-6.8,6.7-10.2c4.8-7,9.9-13.8,15.4-20.4c10.4-12.5,21.7-24.3,33.8-35
			c2.3-2.1-1.1-5.5-3.4-3.4c-12.6,11.2-24.3,23.3-34.9,36.5c-4.8,6.1-9.4,12.3-13.8,18.7c-2.3,3.4-4.5,6.7-6.6,10.2
			c-2,3.4-5,7.3-5.5,11.2C286.3,395.1,287.4,395.8,288.4,395.1L288.4,395.1z"/>
	</g>
</g>
<g>
	<g>
		<path d="M434.4,314.2c-4.9,0.2,4.3,8.6,4.6,8.9c6.9,6.8,13.5,14,19.6,21.6c12.4,15.4,22.7,32.5,30.7,50.6c1.1,2.4,5.4,0.7,4.4-1.8
			c-6.4-15.3-14.6-29.8-24.6-43.1c-4.8-6.3-9.9-12.5-15.5-18.2c-2.9-3-6-5.8-9.1-8.6c-0.6-0.6-10.1-8.9-10-9
			C434.6,314.4,434.6,314.2,434.4,314.2L434.4,314.2z"/>
	</g>
</g>
<g>
	<g>
		<path d="M352.5,303.1c-1,2.9-0.7,6.1-0.8,9.1c-0.1,2.8-0.8,5.7,0.3,8.3c0.4,0.8,1.6,0.7,2,0c1.6-2.6,1-6,0.8-8.9
			c-0.2-2.8-0.2-6-1.5-8.5C353.1,302.7,352.6,302.8,352.5,303.1L352.5,303.1z"/>
	</g>
</g>
<g>
	<g>
		<path d="M430.1,301.6c-1.4,3.2-1.6,6.2-1.9,9.7c-0.2,2.3-1,5.3,1.1,7c0.9,0.7,2.3,0.8,2.9-0.4c0.3-0.6,0.3-0.9,0.1-1.6
			c-0.1-0.4-0.4-0.6-0.6-1c-0.3-0.9-0.2-1.9-0.1-2.8c0-3.8,0.2-7.2-1-10.8C430.5,301.5,430.2,301.4,430.1,301.6L430.1,301.6z"/>
	</g>
</g>
<g>
	<g>
		<path d="M352.4,318.8c0.1,10.6,3.7,20.9,7.1,30.8c3.6,10.5,7.7,20.9,10.8,31.6c6.4,22,7.5,45.3,15.1,67c1,3,5.8,1.7,4.7-1.3
			c-7.4-21.5-8.4-44.4-14.7-66.2c-3-10.4-7.3-20.5-11.4-30.5c-4.2-10.3-7.5-20.9-11.1-31.4C352.8,318.5,352.4,318.5,352.4,318.8
			L352.4,318.8z"/>
	</g>
</g>
<g>
	<g>
		<path d="M390.4,451.3c7.8-5.7,11.7-18.1,14.5-26.9c3.7-11.6,5.8-23.5,8.2-35.4c2.5-12.2,5.5-24.3,9.5-36.1
			c4.6-13.7,10.4-27.4,13.9-41.5c0.5-1.9-2.4-3.3-3.3-1.4c-5.8,12.5-9.9,26-14.6,38.9c-4.2,11.7-7.5,23.3-9.8,35.5
			c-2.1,11.4-3.8,22.9-6.7,34.2c-1.4,5.6-3.1,11.2-5.4,16.6c-2.2,5.2-5.7,10.1-7.3,15.5C389.5,451.1,390,451.5,390.4,451.3
			L390.4,451.3z"/>
	</g>
</g>
<g>
	<g>
		<path d="M285.2,398.6c4.1,1.1,8.8-0.3,13-0.1c5.4,0.3,10.7,1.5,15.9,2.9c10,2.5,19.9,5.7,29.3,10.2c17.1,8.2,32,20.7,40.5,37.9
			c1.9,3.8,7.6,0.5,5.7-3.3c-9.1-18.8-26.1-32-45-40.1c-9.9-4.3-20.4-7.4-31-9.6c-5.4-1.1-10.8-2.1-16.3-2.1
			c-4.1,0-9.6,0.1-12.4,3.4C284.7,398,284.8,398.5,285.2,398.6L285.2,398.6z"/>
	</g>
</g>
<g>
	<g>
		<path d="M490.4,394.4c-3.8-1.5-8.8-0.1-12.8,0.4c-4.7,0.6-9.3,1.4-13.9,2.4c-9,2-18,4.9-26.2,9.3c-8.3,4.5-15.2,10.8-22,17.2
			c-4.3,4.1-8.6,8.2-12.9,12.3c-3.9,3.7-8.3,7.2-11.5,11.5c-1.1,1.5,1,3.5,2.5,2.5c4-2.6,7.3-6.3,10.7-9.5
			c3.8-3.6,7.7-7.2,11.5-10.8c7.3-6.8,14.5-13.8,23.4-18.5c8.1-4.3,16.9-6.9,25.8-8.7c4.4-0.9,8.8-1.6,13.1-2.4
			c4-0.7,9.1-0.6,12.4-3C491.9,396.3,491.6,394.9,490.4,394.4L490.4,394.4z"/>
	</g>
</g>
<g>
	<g>
		<path d="M388.7,450.9c-1.8,4.9-2.3,10.1-3,15.2c-0.7,5.1-1.5,10.3-0.7,15.5c0.8,5.2,0.3,10,0.7,15.2c0.3,4.4,1.2,9,4.2,12.3
			c0.8,0.9,2.6,0.2,2.5-1c-0.4-4.7-2.1-9.1-2.1-14c0-4.5-0.2-8.5-0.9-12.9c-1.6-10,1.7-20.2,0.1-30.2
			C389.4,450.4,388.8,450.5,388.7,450.9L388.7,450.9z"/>
	</g>
</g>
<g>
	<g>
		<path d="M332.9,333.1c-4.7,0.3-9.5,2.5-13.8,4.3c-5.5,2.3-10.9,4.7-16.3,7.2c-11,5-22,10-33.2,14.5c-16.8,6.6-34.7,12.6-47.7,25.6
			c-12.4,12.4-18.8,30.1-23.3,46.7c-3.9,14.6-6.3,29.7-8.4,44.6c-1,7-1.9,14.1-2.4,21.2c-0.2,2.5-0.6,5.1-0.4,7.6
			c0.1,1.2,0.9,3.4,0.9,3.6c0.3,1.8,3,1,2.7-0.7c0.2,1.1,0.1,0.3,0.2-0.3c0.2-0.7,0.4-1.3,0.5-2c0.2-1.8,0.2-3.7,0.3-5.6
			c0.5-5.9,1.1-11.8,1.8-17.6c1.8-14.8,4-29.5,7.3-44c3.7-16.1,9-33.6,19.6-46.6c11.9-14.7,30.8-20.8,47.8-27.3
			c10.6-4,20.9-8.5,31.2-13.1c6-2.6,12.1-5.3,18.1-8c5.2-2.4,11.5-4.8,15.6-8.8C333.7,333.8,333.5,333,332.9,333.1L332.9,333.1z"/>
	</g>
</g>
<g>
	<g>
		<path d="M256.7,460.8c-3.1,6.2-3.1,13.6-3,20.4c0.1,3.8,0.2,7.6,0.4,11.3c0.1,3.4-0.4,7,1.4,10c0.5,0.9,2,1,2.5,0
			c1.3-2.7,0.9-5.1,0.7-8.1c-0.2-4.1-0.4-8.2-0.6-12.2c-0.2-7,0.5-14.4-1-21.3C257,460.7,256.7,460.7,256.7,460.8L256.7,460.8z"/>
	</g>
</g>
<g>
	<g>
		<path d="M529.1,462.4c-0.5,7.8,0.7,15.6,0.9,23.4c0.1,6.2,0.1,12.5,2.9,18.2c0.8,1.6,3.6,0.5,3-1.2c-4.6-13-0.9-27.5-6.5-40.4
			C529.3,462.2,529.1,462.3,529.1,462.4L529.1,462.4z"/>
	</g>
</g>
<g>
	<g>
		<path d="M587.9,501.5c0.2-12.8-2.1-26-3.6-38.8c-1.2-10.4-2.6-20.8-4.5-31c-2.6-13.9-6.1-29.1-15.7-40
			c-8.5-9.7-21.2-16.2-32.4-22.2c-15-8.2-30.5-15.3-46.2-22.1c-11-4.7-22.1-9.6-33.5-13.5c-0.7-0.3-1,0.9-0.3,1.2
			c24.3,10,47.8,22.8,70.6,35.6c11.7,6.6,24,13.4,33.8,22.6c9.6,9,13.1,23,16,35.3c2.5,10.5,4.2,21.2,5.7,31.8
			c2,13.7,2.9,28.2,6.4,41.6C584.7,504,587.8,503.6,587.9,501.5L587.9,501.5z"/>
	</g>
</g>
<g>
	<g>
		<path d="M332.6,404.9c-3,6.6-1.5,16.3-1.4,23.4c0.1,9.3,0.6,18.6,1.4,27.9c0.7,8.6,1.7,17.1,2.9,25.6c1.2,8.2,2,17.1,5.9,24.5
			c1.7,3.1,6,0.4,4.7-2.7c-3.3-7.6-4.2-16.1-5.5-24.2c-1.4-8.7-2.6-17.4-3.5-26.1c-0.9-8.3-1.5-16.7-2-25c-0.2-3.9-0.4-7.7-0.5-11.6
			c-0.1-3.9,0.2-8.1-1.3-11.7C333.4,404.6,332.8,404.4,332.6,404.9L332.6,404.9z"/>
	</g>
</g>
<g>
	<g>
		<path d="M444.4,407.5c-1.9,7.6-1.8,15.8-2.3,23.5c-0.5,8.5-1.1,16.9-1.8,25.4c-1.4,16.9-2.8,33.8-4.6,50.6c-0.3,2.9,4.2,2.9,4.5,0
			c1.7-16.9,3.2-33.7,4.1-50.6c0.4-8.5,0.8-16.9,1-25.4c0.2-7.7,0.9-15.9-0.5-23.5C444.8,407.3,444.5,407.3,444.4,407.5L444.4,407.5
			z"/>
	</g>
</g>
<g>
	<g>
		<path d="M57.4,80.6c-3.4,1.9-4.7,6.9-6.1,10.4c-2,5.2-3.4,10.5-4.2,16c-1.4,10.3-0.6,20.6,2.2,30.6c0.2,0.7,0.8,1.3,1.5,1.5
			c19.5,4.5,39.4,6.4,59.4,5.8c2.9-0.1,2.9-4.6,0-4.5c-19.6,0.6-39.1-1.3-58.3-5.4c0.5,0.5,1,1,1.5,1.5c-2.8-9.4-3.7-19.2-2.6-29
			c0.5-4.8,1.5-9.5,2.8-14.2c1.2-3.9,4.3-8.4,4.1-12.5C57.7,80.7,57.5,80.6,57.4,80.6L57.4,80.6z"/>
	</g>
</g>
<g>
	<g>
		<path d="M56.6,80.5c4.8,2.4,12.3,0.7,17.6,0.6c7.5-0.1,14.9,0.1,22.4,0.3c15.1,0.5,30.1,1.9,44.9,4.2c2.7,0.4,3.9-3.8,1.1-4.2
			c-14.6-2.2-29.4-3.7-44.2-4.2c-7.5-0.3-14.9-0.2-22.4,0.1c-3.9,0.2-7.8,0.4-11.7,0.7c-2.9,0.2-5.5,0.2-7.9,1.9
			C56.5,80.1,56.4,80.4,56.6,80.5L56.6,80.5z"/>
	</g>
</g>
<g>
	<g>
		<path d="M133.1,139.9c2.4,0.2,7.2,1.5,9.3,0.7c1.8-0.7,3.2-2.7,4.1-4.2c3.2-5.2,4.2-11.6,4.6-17.6c0.8-11.3,1.2-28.4-7.1-37.4
			c-0.5-0.5-1.5,0-1.2,0.7c2.1,5.4,4.1,9.9,4.6,15.8c0.4,5.2,0.3,10.5,0.1,15.7c-0.2,5.3-0.7,10.6-2.2,15.7
			c-0.7,2.2-1.7,6.1-3.8,7.6c-2,1.3-6.1,0.6-8.4,0.5C131.5,137.4,131.6,139.8,133.1,139.9L133.1,139.9z"/>
	</g>
</g>
<g>
	<g>
		<path d="M111.8,142.5c1.1,12.1,14.8,27.7,27.3,28.4c1.3,0.1,1.6-1.6,0.6-2.3c-5.4-3.5-10.9-5.6-15.6-10.3
			c-4.3-4.3-8.3-10.1-9.8-16.2C114,140.8,111.7,141,111.8,142.5L111.8,142.5z"/>
	</g>
</g>
<g>
	<g>
		<path d="M133.6,139.5c-0.6-0.2-1.2-0.5-1.8-0.7c-0.3-0.1-0.9,0.1-1,0.4c-3.9,8.9-1.6,22.4,4.5,29.8c0.7,0.9,2.1-0.1,1.9-1.1
			c-1.2-4.4-2.9-8.7-3.8-13.3c-0.4-2.2-2.6-13.7,0.2-14.9C133.8,139.7,133.7,139.5,133.6,139.5L133.6,139.5z"/>
	</g>
</g>
<g>
	<g>
		<path d="M73.2,124.1c-0.6,0.3-0.8,0.7-0.8,1.4c0,0.1,0.1,0.3,0.2,0.4c1,0.5,2.5,0.6,3.5,0.1c1-0.5,1.4-1.8,0.7-2.7
			c-0.7-1-2.2-1.2-3.1-0.6c-1.2,0.8-1.2,2.4-0.6,3.5c1.7,3.1,7.2,1.6,7.4-1.8c0.1-1.6-1.1-2.9-2.7-3.1c-1.7-0.2-3.2,1.2-3.4,2.9
			c-0.2,1.5,1.5,3.7,3,2.3c1.1-1-0.1-3.3-1.5-2.4c-0.6,0.4-0.5,1.3,0.2,1.5c0.1,0,0.1,0,0.2,0.1c-0.2-0.1-0.4-0.3-0.6-0.4
			c-0.3-0.5,0.1-0.8-0.2-0.3c0.2-0.2,0.5-0.4,0.7-0.6c0.2,0,0.4,0.1,0.6,0.1c0-0.1,0.1-0.3,0.1-0.4c0.2-0.2,0.3-0.5,0.6-0.5
			c0.7-0.1,0.8,0.6,0.5,1c-0.5,1-2.6,1.6-3.3,0.6c-1.2-1.7,1.9-1.5,0.8-0.4c-0.6,0.6-1.9,0.3-2.7,0.2c0.1,0.1,0.3,0.2,0.4,0.3
			c0.1-0.3,0.1-0.6,0.2-0.9C73.7,124.3,73.5,124,73.2,124.1L73.2,124.1z"/>
	</g>
</g>
<g>
	<g>
		<path d="M101.6,123.5c-1.1,0.3-2.2,1.2-2,2.4c0.2,1.3,1.3,2.5,2.6,2.8c3.2,0.8,6-3.8,2.7-5.6c-2.7-1.4-7.7-0.3-6.7,3.6
			c0.9,3.7,6.9,1.8,7.8-1c0.6-1.8-0.5-3.8-2.4-4c-1.9-0.1-3.4,1.3-3.8,3.1c-0.2,1.1,1.1,2.1,2,1.2c0.3-0.3,0.6-0.4,0.9-0.7
			c0,0,0.7-0.5,0.7-0.4c0,0.1-0.6-0.3-0.3-0.3c0,0-0.2,0.3-0.2,0.4c-0.2,0.2-0.7,0.3-0.9,0.3c-0.2,0-0.4,0.1-0.6,0.1
			c-0.3,0-0.4,0-0.2,0.1c0.2,0.5,0.3,0.2,0.6,0.1c0.6-0.2,1.3,0,1.9,0.1c0.2,0,0.4,0,0.5,0.1c0.2,0.1,0.2,0,0-0.2
			c-0.1,0.4-0.4,0.7-0.8,0.8c-0.6,0.3-1.4,0.2-2-0.2c-1-0.8-0.4-1.7,0.5-2.3C102.1,123.9,101.9,123.4,101.6,123.5L101.6,123.5z"/>
	</g>
</g>
<g>
	<g>
		<path d="M121.2,122.6c-1.5,1.2-0.9,3.6,0.7,4.4c1,0.6,2.3,0.3,3.3-0.2c1.2-0.7,1.7-1.8,2.4-2.8c0.4-0.5,0.2-1.3-0.2-1.7
			c-1.6-1.7-4.8-1.3-6.4,0.1c-0.9,0.7-1.6,1.9-1.7,3.1c-0.1,1.6,1.2,2.6,2.6,2.9c1.4,0.3,2.9,0,3.9-1c1-1,1.3-2.6,0.7-3.9
			c-1.4-2.7-5.6-1.8-5.7,1.2c0.2-0.5,0.4-0.9,0.6-1.4c-0.9,1.1-0.9,2.8,0.6,3.4c0.7,0.3,1.6,0.3,2.2-0.3c0.5-0.5,0.8-1.6,0.3-2.2
			c0,0.1,0,0.1,0,0.2c0,0.3,0,0.7,0,1c0,0,0-0.1,0-0.1c-0.2,0.3-0.3,0.6-0.5,0.8c0.3-0.3,0.8-0.9,0.7-1.5c0.3,1.2-1.4,1.1-1.7,0.2
			c-0.1-0.5,0.3,0,0-0.2c-0.1-0.1-0.5,0-0.6-0.1c0.2,0.3,0.3,0.5,0.5,0.8c0.1,0.4-0.1,0.1,0.1,0c0.1-0.1,0.1-0.2,0.2-0.3
			c0.2-0.3,0.6-0.5,0.9-0.6c0.7-0.3,1.3-0.1,2,0.1c-0.3-0.5-0.7-0.9-1-1.4c0.1,1-1.1,2.2-2.2,2.1c-1.1-0.2-1.8-1.4-1.2-2.3
			C121.8,122.8,121.4,122.4,121.2,122.6L121.2,122.6z"/>
	</g>
</g>
<g>
	<g>
		<path d="M22.6,111.3c-2.9-3.7-7.8-1.3-11.2-3.8c-4.3-3.2-5.7-11.6-6.3-16.6c-1.5-12.7,1-25.5,3.8-37.8c0.1-0.6-0.7-0.8-0.9-0.3
			C3.3,65.9,0.9,81.6,2.8,95.4c0.7,5,2.4,12.9,6.7,16.2c3,2.4,10.1,2.7,13,0.3C22.6,111.8,22.7,111.4,22.6,111.3L22.6,111.3z"/>
	</g>
</g>
<g>
	<g>
		<path d="M10,54.7c18.8-1.4,37.4-4.1,56.3-4.7c9.1-0.3,18.3-0.8,27.3-0.3c10.3,0.5,5.5,20.1,3.4,25.9c-1.1,2.9,3.6,4.2,4.7,1.3
			c2.7-7.8,4.5-18.6,1-26.5c-1.3-3-3.6-4.6-6.9-5c-5.4-0.7-11.3,0-16.8,0.1c-22.9,0.7-46.9,2-69.3,7.2C8.6,52.9,8.8,54.8,10,54.7
			L10,54.7z"/>
	</g>
</g>
<g>
	<g>
		<path d="M47.6,112.7c-2.2-0.6-4.3-0.4-6.6-0.2c-0.9,0.1-1.7,0.6-1.9,1.5c-1.5,5-7.1,8.9-11.1,12c-4.8,3.9-9.8,7-15.8,8.5
			c0.7,1.2,1.4,2.5,2.2,3.7c3.9-3.5,6.6-7.6,8.7-12.4c1.8-4.1,4.2-9.2,4-13.8c-0.1-1.5-1.9-1.9-2.8-0.7c-2.6,3.4-3.3,8.3-5.1,12.2
			c-2,4.3-4.5,8.2-8,11.5c-1.6,1.5,0.1,4.3,2.2,3.7c6.6-1.9,12.2-5.6,17.5-9.9c4.6-3.8,10.3-7.9,12-13.9c-0.6,0.5-1.3,1-1.9,1.5
			c2.4-0.3,4.7-0.5,6.9-1.6C48.8,114.5,48.5,113,47.6,112.7L47.6,112.7z"/>
	</g>
</g>
<g>
	<g>
		<path d="M26.5,95.7c0.3,0.1,0.4,0.3,0.7,0.3c0.7,0.1,0.9-0.8,0.3-1c-0.8-0.3-1.6,0.4-1.5,1.2c0.1,1,1.5,1.6,2.2,0.8
			c0.6-0.7,0.2-1.9-0.4-2.5c-0.8-0.8-1.9-0.7-2.8,0c-0.6,0.5-0.3,1.4,0.2,1.8c1.5,1,3.4,0.4,4.5-1c0.4-0.5,0.1-1.2-0.4-1.5
			c-1.2-0.8-3-1.5-4.5-1c-1.2,0.4-1.7,1.7-1.1,2.8c0.6,1,1.8,1.6,2.9,1.2c1.3-0.4,1.9-1.8,2.4-3c0.2-0.7-0.4-1.2-1-1.3
			c-1.2-0.1-2.5,0.2-3.1,1.4c-0.4,1-0.1,2.3,1,2.6c2.5,0.8,3.6-3.2,1.2-4c-1.1-0.4-2.4,0.3-2.8,1.4c-0.4,1.2,0.3,2.4,1.4,2.8
			c2.6,1,4.4-2.5,2.4-4.3c-0.4-0.3-0.9-0.5-1.4-0.2c-1.2,0.7-1.7,2-1.4,3.3c0.2,0.8,1.1,1,1.7,0.7c1.2-0.6,2.3-1.6,2.5-3
			c0.1-1.2-0.7-2.3-1.8-2.7c-3.1-0.9-3.6,3.5-1.9,5.1c2,2,4.9-0.7,3.8-3c-1.3-2.7-5.2-0.8-5.1,1.8c0,0.7,0.6,1.2,1.2,1.2
			c1.7,0.2,2.8-2.2,1.5-3.4c-0.8-0.7-2.1,0.2-1.5,1.2c-0.2-0.3,0.2-0.3,0.4-0.3c0.3,0.4,0.6,0.8,0.9,1.2c0-0.3,0.2-0.3,0.3-0.5
			c0,0,0.2-0.1,0.1,0c0,0-0.1-0.1-0.2-0.1c0,0,0,0.2-0.1,0.2c0.6,0,0.3,0,0.2-0.3c-0.1-0.2-0.1-0.8-0.1-0.9c0,0-0.3,0.1-0.3,0.1
			c0,0,0.2,0.1,0.3,0.1c0.2,0.5-0.7,1-1.2,1.3c0.6,0.2,1.1,0.5,1.7,0.7c-0.1-0.3,0-0.6,0.3-0.8c-0.5-0.1-0.9-0.1-1.4-0.2
			c0.1,0.1,0.5,0.5,0.2,0.7c-0.1,0-0.3,0-0.3-0.1c-0.1-0.1,0,0,0.1-0.2c0.1-0.2,0,0,0,0c0.2,0.1-0.4,0.3,0.2,0.3c0,0,0-0.2,0.1-0.2
			c0.3-0.1,0.7-0.1,1,0c-0.2-0.5-0.4-1-0.6-1.5c-0.2,0.4-0.4,0.9-0.7,1.2c-0.1,0.1-0.3,0.4-0.5,0.4c-0.3,0.1,0-0.1-0.2-0.1
			c0,0-0.3-0.2,0,0.1c-0.1,0.2,0,0.3,0.3,0.2c0.1,0,0.3,0,0.4,0.1c0.6,0.1,1.2,0.4,1.7,0.8c-0.1-0.5-0.3-1-0.4-1.5
			c-0.3,0.5-1,0.4-1.4,0.2c0.1,0.6,0.2,1.2,0.2,1.8c-0.1,0.1-0.5,0.1-0.1,0.2c0.1,0-0.1,0.1,0-0.1c0.2-0.2,0.4-0.4,0.7-0.7
			c0.1,0.2,0.2,0.4,0.3,0.6c-0.1-0.3-0.2-0.7-0.3-1c-0.3,0.1-0.5,0.2-0.7,0.3C26.3,95.4,26.3,95.6,26.5,95.7L26.5,95.7z"/>
	</g>
</g>
<g>
	<g>
		<path d="M42.1,91.9c-0.2,0.8,0.1,2.2,1.1,2.4c1.1,0.1,2.1-1,2.5-1.9c0.2-0.5,0-1.2-0.7-1.2c-1.6,0-3.3,1.1-2.9,2.9
			c0.4,1.5,2.6,2.4,3.7,1.1c0.4-0.5,0.5-1.3,0-1.8c-0.9-0.9-2.5-0.7-3.3,0.4c-0.3,0.5-0.4,1.2-0.2,1.7c0.3,0.7,1.2,1,1.9,1.1
			c2.7,0.2,4.5-2.7,2.8-4.9c-0.8-1-2.3-1.4-3.4-0.7c-1,0.6-1.7,1.9-1.4,3.1c0.7,2.9,5.1,2.2,5.2-0.6c0.1-1.6-1.5-2.7-3-2.6
			c-1.8,0.1-2.8,1.8-2.9,3.5c0,0.8,0.7,1.5,1.5,1.5c2.1-0.1,3.7-2.1,3.1-4.2c-0.3-0.9-1.3-1.4-2.2-0.9c-1.3,0.8-1.9,2.8-0.4,3.7
			c0.7,0.4,1.5,0,1.7-0.7c0-0.1,0.1-0.3,0.2-0.4c0-0.2,0.1,0-0.1,0c-0.7-0.3-1.4-0.6-2.2-0.9c0,0.2,0,0.4-0.3,0.4
			c0.5,0.5,1,1,1.5,1.5c0-0.2,0-0.2,0-0.4c0-0.1,0.1-0.2,0.2-0.2c0,0-0.1,0-0.1,0.1c0,0,0.1-0.1,0.1,0c-0.1-0.1-0.2-0.1-0.3-0.3
			c0-0.4,0-0.2,0.1-0.3c-0.2,0.3-0.2,0-0.1,0.1c0,0,0.4,0.3,0.4,0.3c0,0,0-0.2,0-0.1c0-0.7,0.3,0.5-0.1-0.1c0.1,0.1,0.3,0.2,0.2,0.4
			c-0.1,0.3-0.6,0.3-0.9,0.2c0.2,0.3,0.4,0.5,0.6,0.8c0.1,0.5-0.3,1.1-0.8,0.6c0-0.6,0-1.2,0-1.8c-0.2,0.2-0.1,0.2,0.3-0.1
			c0.1,0,0.1,0,0.2,0c-0.1,0,0,0.1,0,0.1c0.1,0,0.2-0.3,0.3-0.4c0.2-0.2,0.4-0.3,0.6-0.4c-0.3-0.2-0.7-0.5-1-0.7
			c0,0.5-0.3,1.2-0.9,1.3c-0.6,0.1-0.8-0.8-0.8-1.3C42.6,91.7,42.1,91.6,42.1,91.9L42.1,91.9z"/>
	</g>
</g>
<g>
	<g>
		<path d="M145.8,304.7c-2.8-2.5-8.1,1.7-10.3,3.7c-3.7,3.4-5.9,8.2-6.1,13.2c-0.5,12.5,10.5,17.9,21.5,17.2
			c9.8-0.6,19.8-11.7,17.2-22c-2.6-10.4-19-16.3-27.7-10.7c-1.7,1.1-0.6,3.8,1.4,3.3c4.7-1.1,8.6-0.9,12.8,1.5c3.5,2,8.6,5,8.5,9.7
			c-0.1,3.6-2.1,7.8-4.5,10.4c-3.2,3.4-7.7,3.8-12.1,3.6c-9-0.4-15.2-7.9-12.4-16.9c1.1-3.7,3.7-7,7-9.2c2-1.3,4.1-1.2,4.8-3.5
			C145.9,305,145.9,304.8,145.8,304.7L145.8,304.7z"/>
	</g>
</g>
<g>
	<g>
		<path d="M142.5,295c1.1-1.6,1.2-3,1.4-5c0.1-0.7-0.1-3.2,0.3-3.7c0.6-0.6,1.7-0.5,2.5-0.6c2.4-0.2,4.9-0.1,7,1.1
			c1.7,0.9,1.2,1.7,1,3.3c-0.2,1.4-0.5,2.7-0.7,4.1c-0.4,2.2,3,3.2,3.4,0.9c0.4-2.6,2.2-7.1,0.5-9.5c-1.9-2.6-5.9-3.5-8.9-3.6
			c-2.2-0.1-6.9-0.5-8.1,2.1c-0.7,1.5-0.2,3.7-0.2,5.3c0,2.1,0,3.7,1,5.5C141.9,295.3,142.3,295.2,142.5,295L142.5,295z"/>
	</g>
</g>
<g>
	<g>
		<path d="M155.6,294.9c0.7,0.6,1.6,0.9,2.4,1.4c0.9,0.5,1.7,1.1,2.5,1.8c0.5,0.4,1.1,0.5,1.6,0.2c0.3-0.2,0.5-0.4,0.6-0.8
			c0.1-0.6-0.1-1.2-0.6-1.5c-1.7-1-4.2-2.3-6.3-2C155.4,294,155.2,294.6,155.6,294.9L155.6,294.9z"/>
	</g>
</g>
<g>
	<g>
		<path d="M163.2,297.4c1.3-0.6,2.5-1.7,3.6-2.7c1.3-1,2.5-2,3.7-3c1.4-1.2-0.6-3.2-2-2c-1.2,1-2.3,2.2-3.5,3.3
			c-1.1,1-2.3,2-3.1,3.2C161.4,297,162.4,297.8,163.2,297.4L163.2,297.4z"/>
	</g>
</g>
<g>
	<g>
		<path d="M168.9,291.4c0.5,1.6,1.7,2.8,2.5,4.3c0.8,1.5,1.3,3.1,1.7,4.7c1,3.8,7,2.1,5.8-1.6c-1.1-3.5-3.7-8.8-7.6-9.8
			C169.8,288.6,168.5,289.9,168.9,291.4L168.9,291.4z"/>
	</g>
</g>
<g>
	<g>
		<path d="M176.4,299.5c-1.5,0.5-2.8,1.5-3.9,2.6c-1.1,1.1-2.6,2.5-3,4c-0.5,2.1,1.9,3.2,3.4,2c1-0.8,1.7-2.3,2.5-3.4
			c0.9-1.1,1.8-2.1,2.5-3.3C178.5,300.5,177.5,299.1,176.4,299.5L176.4,299.5z"/>
	</g>
</g>
<g>
	<g>
		<path d="M170.9,306.4c-0.3,1-0.1,2.1-0.1,3.1c0,1.1,0.1,2.2,0.3,3.3c0.3,2.9,4.6,2.3,3.9-0.5c-0.3-1.1-0.5-2.1-0.9-3.2
			c-0.3-1-0.5-2.1-1.1-2.9C172.5,305.4,171.3,305.4,170.9,306.4L170.9,306.4z"/>
	</g>
</g>
<g>
	<g>
		<path d="M173.9,314.2c1.9,0.9,4,0.6,6.1,0.8c2.1,0.2,4.3,1.1,6.3,0.1c1.2-0.6,1.1-2.1,0.4-2.9c-1.4-1.8-4.5-1.7-6.6-1.7
			c-2.3,0-4.6,0-6.4,1.5C173,312.5,173.2,313.8,173.9,314.2L173.9,314.2z"/>
	</g>
</g>
<g>
	<g>
		<path d="M186.9,313c-1.7,2.4-1.8,5.5-2.3,8.4c-0.4,2.3-1.4,4.8,0.3,6.7c0.4,0.5,1.1,0.4,1.6,0c1.9-1.6,1.2-4.5,1.3-6.8
			c0.1-2.7,0.5-5.6-0.5-8.2C187.3,312.9,187,312.8,186.9,313L186.9,313z"/>
	</g>
</g>
<g>
	<g>
		<path d="M185.6,326.9c-1.4-1.2-2.3-1.8-4.3-2c-2.1-0.2-4.2-0.4-6.4-0.5c-3.5-0.2-3.5,5.7,0,5.5c2.1-0.1,4.2-0.2,6.4-0.5
			c2-0.2,2.8-0.8,4.3-2C185.7,327.3,185.7,327.1,185.6,326.9L185.6,326.9z"/>
	</g>
</g>
<g>
	<g>
		<path d="M174.3,326.5c-0.6,0.3-1.1,0.5-1.5,0.9c-0.6,0.6-0.9,1.4-1.3,2.1c-0.6,1.5-1.4,3.1-1,4.6c0.3,1.4,2.3,1.5,3,0.4
			c0.7-1.2,0.6-2.8,0.9-4.1c0.1-0.6,0.3-1.3,0.4-1.9c0.1-0.8-0.1-1.2-0.2-2C174.5,326.5,174.4,326.5,174.3,326.5L174.3,326.5z"/>
	</g>
</g>
<g>
	<g>
		<path d="M172.2,334.2c0.6,1.5,1.7,2.6,2.7,3.8c1.1,1.4,2.2,2.7,3.3,4.1c0.6,0.8,1.8,0.7,2.6,0.3c0.4-0.2,0.6-0.4,0.8-0.8
			c0.5-0.8,0.4-2-0.3-2.6c-1.2-1.1-2.4-2.2-3.6-3.3c-1.1-1-2.2-2.4-3.5-3C173.2,332.2,171.7,333,172.2,334.2L172.2,334.2z"/>
	</g>
</g>
<g>
	<g>
		<path d="M161.4,344.9c0,3.7,3.9,8.3,7.7,8.4c4.7,0.1,10-4.5,12.6-8.1c1.7-2.3-2.2-4.5-3.8-2.2c-1.4,2-6.4,6.6-9.2,6.2
			c-2.5-0.4-3.8-4.1-6.3-4.9C161.8,344,161.4,344.4,161.4,344.9L161.4,344.9z"/>
	</g>
</g>
<g>
	<g>
		<path d="M154.8,347.7c1.4,0.3,2.6,0.3,3.9,0.2c1.4-0.2,2.8-0.2,3.8-1.2c0.9-0.9,0.5-2.5-0.7-2.8c-1.2-0.3-2.4,0.1-3.6,0.4
			c-1.2,0.3-2.3,0.6-3.5,1C153.7,345.7,153.5,347.4,154.8,347.7L154.8,347.7z"/>
	</g>
</g>
<g>
	<g>
		<path d="M156.3,346.9c-0.7,1.6-0.9,3.4-1.2,5.1c-0.1,0.6-0.2,1.2-0.3,1.7c0.1,0.2,0.3,0.4,0.4,0.6c-0.2,0.3-2.7,0.1-3,0.1
			c-2.8,0.2-6.7,1.3-9-0.8c0.2,0.8,0.4,1.7,0.7,2.5c0.7-2.5,0.9-5,1.2-7.6c0.2-2.2-3.6-2.8-4-0.5c-0.4,2.1-1.1,4.2-1.9,6.2
			c-0.5,1.1-0.4,2.2,0.4,3.1c2.1,2.4,5.3,2.8,8.3,2.6c3.1-0.2,7.5-0.1,10-2.1c0.6-0.5,0.7-1.5,0.6-2.2c-0.6-2.9-0.4-6-1.4-8.8
			C156.9,346.6,156.4,346.6,156.3,346.9L156.3,346.9z"/>
	</g>
</g>
<g>
	<g>
		<path d="M144.3,346.5c-0.7-0.8-2-0.9-3-1.1c-1.2-0.2-2.2-0.9-3.4-1.2c-2-0.5-3.2,1.9-2,3.4c1.1,1.3,2.9,1.7,4.6,1.9
			c1.3,0.1,3.4,0,4-1.5C144.7,347.4,144.7,346.9,144.3,346.5L144.3,346.5z"/>
	</g>
</g>
<g>
	<g>
		<path d="M135.5,344.4c-0.8,0.1-1.4,0.4-2.1,0.8c0.3-0.1,0.6-0.2,0.9-0.2c-2.4,0-5.4,3.3-5.4,5.6c0,1.7,2.2,2.6,3.4,1.4
			c0.9-0.9,1.2-2.2,2.3-3.1c0.6-0.5,1.2-0.8,1.4-1.6c0.2-0.5,0.2-1.1,0.3-1.7C136.5,345,136.1,344.3,135.5,344.4L135.5,344.4z"/>
	</g>
</g>
<g>
	<g>
		<path d="M130,351.3c-0.9-1.8-3.1-3.1-4.5-4.6c-1.5-1.5-2.8-3.5-4.4-4.8c-1.5-1.3-4.9-0.1-3.9,2.3c0.9,2.2,2.7,4.3,4.5,5.9
			c1.5,1.5,3.9,3.7,6.1,4.1C129.5,354.4,130.9,352.9,130,351.3L130,351.3z"/>
	</g>
</g>
<g>
	<g>
		<path d="M117.6,341.6c0.6,0.1,0.9,0.4,1.6,0.2c0.8-0.2,1.6-0.7,2.4-1.1c1.7-0.9,3.2-2,4.7-3.2c1.5-1.3-0.7-3.3-2.1-2.1
			c-1.4,1.1-2.7,2.2-4.1,3.2c-0.6,0.4-1.3,0.7-1.8,1.2c-0.5,0.5-0.4,0.9-0.8,1.5C117.4,341.4,117.5,341.6,117.6,341.6L117.6,341.6z"
			/>
	</g>
</g>
<g>
	<g>
		<path d="M126.7,334.7c-0.6-1.8-2.1-3.5-2.2-5.4c-0.1-1-0.8-1.9-1.8-1.8c-1.6,0-3.1,0.1-4.7,0.1c-2.6,0.1-3.4,0.8-4.7-2.3
			c-1.2-3-1-8,1.3-10.4c0.9-1-0.5-2.5-1.5-1.5c-3.1,3.1-3.4,8.5-2.5,12.7c1.4,6.2,6.7,4.9,12,5.1c-0.6-0.6-1.2-1.2-1.8-1.8
			c0,2.7,1.9,4.3,3,6.6C124.5,337.5,127.3,336.3,126.7,334.7L126.7,334.7z"/>
	</g>
</g>
<g>
	<g>
		<path d="M115.6,313.5c2,0.8,4.1,0.5,6.3,0.8c0.9,0.1,1.5-0.9,1.3-1.7c-0.7-2.1-0.1-3.9,1.8-5.3c0.7-0.5,0.9-1.5,0.3-2.1
			c-1.2-1.1-2.5-2.2-3.6-3.4c-1.8-2-2.2-2,0.1-4.4c1-1.1,3.1-3.3,4.4-3.6c2,0.3,4,0.6,6.1,1c0.9,0.9,1.7,1.9,2.3,3
			c0.4,0.6,1.1,0.9,1.8,0.7c2.3-0.4,4.5-0.9,6.8-1.3c2.4-0.5,1.4-4.4-1-3.7c-1.5,0.5-3.9,1.6-5.5,1.4c-1.1-0.2-1.8-1.4-2.7-2
			c-1.6-1.2-3.5-2-5.6-1.9c-4.3,0.3-8.9,5.3-10.7,8.8c-0.2,0.4-0.2,1,0.2,1.3c1.9,2,3.7,4,5.6,6c0.1-0.7,0.2-1.4,0.3-2.1
			c-3.1,1.8-4.3,4.9-3,8.3c0.4-0.6,0.9-1.1,1.3-1.7c-2.4-0.1-4.4-0.2-6.3,1.2C115.2,313,115.2,313.4,115.6,313.5L115.6,313.5z"/>
	</g>
</g>
<g>
	<g>
		<path d="M203.2,271.3c-2.5-1.2-5.2,0.8-7.1,2.4c-2.9,2.6-4.7,6.4-4.7,10.4c0.1,8.9,8.1,12.4,15.9,11.8c6.8-0.5,13.3-8.1,12.2-15.2
			c-1.3-8.3-13.5-12.2-20.2-8.4c-1.4,0.8-0.4,2.9,1.1,2.5c5.8-1.3,17.1,2.5,14.8,10.4c-1.8,5.9-6.5,8.2-12.4,7.4
			c-6.8-0.9-10.2-7.5-7.1-13.7c1.2-2.5,3.2-4,5.4-5.5c1.5-1,1.3-0.4,2.2-1.8C203.4,271.5,203.4,271.4,203.2,271.3L203.2,271.3z"/>
	</g>
</g>
<g>
	<g>
		<path d="M201,264.3c0.8-1.2,0.9-2.2,1-3.6c0-0.5-0.1-2.3,0.2-2.6c0.4-0.4,1.2-0.3,1.7-0.3c1.7-0.1,3.5-0.1,5,0.7
			c1.2,0.7,0.8,1.2,0.7,2.3c-0.1,1-0.3,2-0.5,3c-0.3,1.7,2.3,2.4,2.5,0.7c0.3-1.9,1.6-5.1,0.3-6.8c-1.4-1.9-4.3-2.5-6.5-2.6
			c-1.6-0.1-5-0.3-5.9,1.5c-0.5,1.1-0.2,2.7-0.2,3.8c0,1.5,0,2.6,0.8,3.9C200.5,264.6,200.8,264.6,201,264.3L201,264.3z"/>
	</g>
</g>
<g>
	<g>
		<path d="M210.3,264.3c0.5,0.4,1.1,0.7,1.7,1c0.6,0.4,1.2,0.8,1.8,1.3c0.3,0.3,0.8,0.4,1.2,0.2c0.2-0.2,0.4-0.3,0.5-0.6
			c0.1-0.4-0.1-0.9-0.5-1.1c-1.2-0.7-3-1.7-4.5-1.4C210.2,263.6,210.1,264.1,210.3,264.3L210.3,264.3z"/>
	</g>
</g>
<g>
	<g>
		<path d="M215.8,266.1c1-0.4,1.8-1.2,2.6-1.9c0.9-0.7,1.8-1.4,2.7-2.2c1.1-0.9-0.5-2.4-1.5-1.5c-0.9,0.7-1.7,1.6-2.5,2.3
			c-0.8,0.7-1.6,1.4-2.2,2.3C214.5,265.8,215.2,266.4,215.8,266.1L215.8,266.1z"/>
	</g>
</g>
<g>
	<g>
		<path d="M219.8,261.8c0.3,1.2,1.2,2.1,1.7,3.1c0.6,1.1,0.9,2.2,1.2,3.4c0.7,2.8,5.2,1.6,4.4-1.2c-0.5-1.5-1.2-2.9-2.1-4.2
			c-0.9-1.2-1.9-2.5-3.4-2.8C220.5,259.8,219.5,260.7,219.8,261.8L219.8,261.8z"/>
	</g>
</g>
<g>
	<g>
		<path d="M225.3,267.6c-1.1,0.4-2,1.1-2.9,1.9c-0.8,0.8-1.9,1.8-2.2,2.9c-0.4,1.6,1.4,2.4,2.6,1.5c0.7-0.6,1.2-1.7,1.8-2.4
			c0.6-0.8,1.3-1.5,1.8-2.4C226.8,268.3,226.1,267.3,225.3,267.6L225.3,267.6z"/>
	</g>
</g>
<g>
	<g>
		<path d="M221.3,272.6c-0.2,0.7-0.1,1.5-0.1,2.2c0,0.8,0.1,1.6,0.2,2.4c0.2,2.2,3.5,1.7,3-0.4c-0.4-1.5-0.6-3.4-1.6-4.6
			C222.3,271.6,221.5,272,221.3,272.6L221.3,272.6z"/>
	</g>
</g>
<g>
	<g>
		<path d="M223.5,278.2c1.4,0.7,2.9,0.5,4.4,0.6c1.5,0.1,3.1,0.8,4.5,0c0.6-0.3,1-1.3,0.5-1.9c-1.1-1.5-3-1.5-4.8-1.5
			c-1.7,0-3.5-0.1-4.9,1.1C222.8,276.9,222.9,277.9,223.5,278.2L223.5,278.2z"/>
	</g>
</g>
<g>
	<g>
		<path d="M232.8,277.3c-1.3,1.7-1.4,4-1.7,6c-0.3,1.7-1,3.5,0.3,4.8c0.2,0.2,0.7,0.4,1,0.1c1.5-1.1,1.1-2.9,1.1-4.6
			c0.1-2.1,0.4-4.3-0.4-6.3C233.1,277.2,232.9,277.2,232.8,277.3L232.8,277.3z"/>
	</g>
</g>
<g>
	<g>
		<path d="M231.9,287.3c-1-1-1.6-1.3-3.1-1.5c-1.5-0.2-3-0.3-4.6-0.4c-2.6-0.1-2.7,4.2,0,4.1c1.5-0.1,3.1-0.2,4.6-0.4
			c1.5-0.2,2-0.6,3.1-1.5C232,287.6,232,287.4,231.9,287.3L231.9,287.3z"/>
	</g>
</g>
<g>
	<g>
		<path d="M223.8,287c-0.5,0.3-0.8,0.3-1.2,0.8c-0.4,0.4-0.6,0.9-0.8,1.4c-0.5,1-1,2.2-0.7,3.4c0.3,1,1.7,1.1,2.2,0.3
			c0.5-0.8,0.4-2,0.7-3c0.1-0.5,0.2-0.9,0.2-1.4c0.1-0.6-0.1-0.8-0.2-1.4C223.9,287,223.9,287,223.8,287L223.8,287z"/>
	</g>
</g>
<g>
	<g>
		<path d="M222.2,292.5c0.4,1.1,1.2,1.9,1.9,2.8c0.8,1,1.6,2,2.3,2.9c0.4,0.5,1.4,0.6,2,0.3c0.1-0.1,0.2-0.2,0.3-0.3
			c0.6-0.6,0.7-1.7,0-2.3c-0.9-0.8-1.7-1.6-2.6-2.4c-0.8-0.7-1.6-1.7-2.5-2.2C223,291.1,221.9,291.6,222.2,292.5L222.2,292.5z"/>
	</g>
</g>
<g>
	<g>
		<path d="M214.5,300.2c-0.1,2.7,2.8,6,5.5,6.1c3.4,0.1,7.2-3.3,9.1-5.9c1.3-1.7-1.6-3.4-2.9-1.7c-1,1.4-4.5,4.7-6.5,4.4
			c-1.8-0.3-2.7-2.9-4.5-3.5C214.8,299.5,214.5,299.8,214.5,300.2L214.5,300.2z"/>
	</g>
</g>
<g>
	<g>
		<path d="M209.8,302.3c1,0.2,1.8,0.3,2.8,0.2c1-0.1,2.1-0.2,2.8-0.9c0.7-0.7,0.4-1.8-0.5-2.1c-0.9-0.3-1.7,0.1-2.6,0.3
			c-0.9,0.2-1.7,0.4-2.5,0.7C209,300.8,208.8,302.1,209.8,302.3L209.8,302.3z"/>
	</g>
</g>
<g>
	<g>
		<path d="M210.9,301.6c-0.5,1.1-0.6,2.2-0.8,3.3c-0.1,0.4-0.1,1.8-0.1,1.8c0.3,0.2,0.2,0.3-0.3,0.2c-0.4,0-0.9,0-1.3,0.1
			c-2.1,0.1-5.1,1-6.8-0.5c0.2,0.6,0.3,1.3,0.5,1.9c0.5-1.8,0.6-3.6,0.8-5.5c0.2-1.7-2.7-2.1-3-0.4c-0.3,1.5-0.8,3-1.4,4.4
			c-0.4,0.9-0.3,1.6,0.3,2.3c1.5,1.7,3.9,2.1,6,1.9c2.2-0.2,5.4-0.1,7.3-1.6c0.5-0.4,0.6-1.1,0.4-1.6c-0.5-2.1-0.3-4.3-1.1-6.3
			C211.3,301.5,211,301.3,210.9,301.6L210.9,301.6z"/>
	</g>
</g>
<g>
	<g>
		<path d="M202.4,301.5c-0.5-0.7-1.4-0.8-2.2-1c-0.9-0.2-1.7-0.7-2.6-0.9c-1.5-0.4-2.4,1.4-1.5,2.5c0.9,1.1,2.6,1.4,3.9,1.4
			c0.6,0,1.3-0.2,1.8-0.5C202.3,302.7,202.8,302,202.4,301.5L202.4,301.5z"/>
	</g>
</g>
<g>
	<g>
		<path d="M195.9,299.8c-0.6,0-1,0.3-1.5,0.6c0.2-0.1,0.4-0.1,0.7-0.2c-1,0-1.9,0.7-2.6,1.4c-0.7,0.7-1.4,1.6-1.4,2.7
			c0,1.3,1.6,2,2.6,1.1c0.7-0.7,0.9-1.6,1.7-2.2c0.4-0.4,0.9-0.6,1-1.2c0.1-0.4,0.1-0.8,0.2-1.2
			C196.6,300.3,196.4,299.8,195.9,299.8L195.9,299.8z"/>
	</g>
</g>
<g>
	<g>
		<path d="M192,304.8c-0.6-1.3-2.2-2.3-3.2-3.3c-1.1-1.1-2-2.5-3.2-3.5c-1.2-1-3.6-0.1-2.9,1.7c0.7,1.6,2,3.1,3.2,4.3
			c1.1,1,2.9,2.7,4.4,2.9C191.6,307.1,192.6,306,192,304.8L192,304.8z"/>
	</g>
</g>
<g>
	<g>
		<path d="M183.1,297.8c0.4,0,0.6,0.3,1.1,0.2c0.6-0.1,1.2-0.5,1.7-0.8c1.2-0.7,2.3-1.4,3.4-2.3c1.1-1-0.5-2.5-1.6-1.6
			c-1,0.8-2,1.7-3.1,2.4c-0.4,0.3-0.9,0.5-1.3,0.9c-0.3,0.3-0.3,0.7-0.4,0.9C182.9,297.7,183,297.8,183.1,297.8L183.1,297.8z"/>
	</g>
</g>
<g>
	<g>
		<path d="M189.6,292.8c-0.4-1.3-1.5-2.5-1.6-3.9c-0.1-0.7-0.6-1.4-1.4-1.4c-1.1,0-2.2,0.1-3.4,0.1c-1.8,0.1-2.4,0.6-3.3-1.6
			c-0.9-2.1-0.7-5.7,0.9-7.5c0.7-0.7-0.4-1.8-1.1-1.1c-2.3,2.2-2.5,6.2-1.8,9.1c1,4.5,4.8,3.5,8.7,3.7c-0.5-0.5-0.9-0.9-1.4-1.4
			c0,2,1.4,3.1,2.2,4.8C188,295,190.1,294.1,189.6,292.8L189.6,292.8z"/>
	</g>
</g>
<g>
	<g>
		<path d="M181.6,277.7c1.5,0.4,2.9,0.4,4.5,0.6c0.7,0.1,1.1-0.7,1-1.3c0.4-1.3,0.8-2.5,1.2-3.8c0.5-0.4,0.7-1.1,0.2-1.6
			c-0.7-0.6-2.8-2.2-3.2-3c-0.6-1.4-0.1-1.7,1.1-2.9c0.7-0.7,2-2,2.8-2.2c2.9-1,4.4,0.6,6,2.9c0.3,0.5,0.8,0.7,1.4,0.6
			c1.6-0.3,3.2-0.6,4.9-0.9c1.8-0.3,1-3.3-0.8-2.8c-2.6,0.8-3.2,1.3-5.4-0.1c-1.5-0.9-2.7-1.9-4.5-1.7c-3.1,0.4-6.3,3.8-7.6,6.4
			c-0.2,0.3-0.1,0.7,0.1,1c1.3,1.4,2.7,2.9,4,4.3c0.1-0.5,0.1-1,0.2-1.6c-2.2,1.4-3.1,3.5-2.2,6c0.3-0.4,0.6-0.8,1-1.3
			c-1.9,0-3,0-4.6,0.9C181.3,277.3,181.4,277.6,181.6,277.7L181.6,277.7z"/>
	</g>
</g>
<g>
	<g>
		<path d="M600.9,6.4c29.9,2.3,49.7,30.9,46.5,59.7c-2.7,24.3-20.9,49.5-47.4,49.2c-14.6-0.1-29-6.5-39.4-16.7
			c-15.5-15.2-18.5-40.4-11.7-60.4c8.6-25.1,35.1-31.7,58.9-30.6c1.4,0.1,1.4-2.1,0-2.2c-21.9-0.8-46.5,4.2-57.9,24.9
			c-11,20-9.5,49,4.3,67.2c10.2,13.5,27.4,21.5,44.2,22.2c26.7,1,47-22.2,51.9-46.7c3.3-16.3,0.2-33.8-9.9-47.2
			C631,13.3,616.6,5.2,600.9,4.6C599.7,4.5,599.8,6.3,600.9,6.4L600.9,6.4z"/>
	</g>
</g>
<g>
	<g>
		<path d="M566.2,35.7c-1.5-0.5,3-3.7,4-4.3c0.8-0.6,1.7-1,2.7-1.4c2.7-1.7,4.4,0.1,5,5.4c-1.2,2.3-4.5,4.1-6.5,5.7
			c-4.2,3.3-8.3,6.6-11.1,11.3c-0.5,0.9,0.3,2.2,1.4,1.8c6.4-2.2,12.2-1.7,18.8-2c1.1-0.1,1.2-1.4,0.2-1.8
			c-6.2-2.5-13.7-0.9-19.7,1.4c0.5,0.6,0.9,1.2,1.4,1.8c2.7-5.1,7.2-8.4,11.5-12c2.6-2.2,7.4-5.5,7.3-9.4c-0.1-2.9-2.7-4.5-5.4-4.4
			c-4.5,0.2-8.7,4.1-11.7,7.1c-0.2,0.2-0.2,0.6,0.1,0.8c0.9,0.6,0.8,0.6,1.9,0.3C566.3,35.9,566.3,35.7,566.2,35.7L566.2,35.7z"/>
	</g>
</g>
<g>
	<g>
		<path d="M596.6,25.2c0.2-0.1,0.4-0.3,0.6-0.4c1.2-0.8-0.5-2.3-1.2-1.2c-4,7.5-8.2,14.6-12.8,21.6c-0.7,1.1,0.5,2.5,1.7,2.2
			c4.3-1.1,8.6-1.8,13-2.1c2-0.1,2-3.2,0-3.1c-4.7,0.3-9.2,1.1-13.8,2.4c0.6,0.7,1.1,1.4,1.7,2.2c4.4-7.1,8.4-14.6,11.7-22.3
			c-0.5,0-1,0-1.5,0C596.2,24.7,596.3,24.9,596.6,25.2C596.5,25.2,596.5,25.2,596.6,25.2L596.6,25.2z"/>
	</g>
</g>
<g>
	<g>
		<path d="M603.2,34c-1.7,2.6-2.6,5.7-3.8,8.5c-1.2,2.8-3,5.8-3.2,8.8c-0.1,0.9,1.1,1.3,1.7,0.7c2-2.2,2.8-5.5,3.7-8.3
			c1-3.1,2.2-6.4,2.1-9.7C603.7,33.9,603.3,33.8,603.2,34L603.2,34z"/>
	</g>
</g>
<g>
	<g>
		<path d="M620.9,40.5c-4.8,2.5-8.6,7-12.4,10.7c-4.4,4.2-8.8,8.4-13.2,12.6c-4.2,4-8.4,7.9-12.7,11.8c-4.2,3.9-9.5,7.5-12.6,12.3
			c-0.7,1.1,0.7,2.2,1.7,1.7c4.9-2.4,8.9-7.1,12.8-10.7c4.5-4.1,8.9-8.4,13.2-12.6c4.1-4,8.2-8.1,12.2-12.3
			c3.9-4.1,8.7-8.2,11.2-13.3C621.2,40.6,621.1,40.4,620.9,40.5L620.9,40.5z"/>
	</g>
</g>
<g>
	<g>
		<path d="M608.2,71.2c7-0.3,14-1.5,21-2.4c-0.4-0.6-0.7-1.3-1.1-1.9c-0.8,1.7-4.1,3.5-5.4,5.1c-1.9,2.3-3.8,4.7-5.6,7.2
			c-3.8,5.2-7.5,10.8-9.2,17.1c-0.5,1.9,2.1,2.5,2.8,0.8c2.6-6.1,5.6-11.7,9.4-17.1c1.9-2.7,3.8-5.9,6.3-8c1.6-1.3,3.1-1.8,4-3.7
			c0.5-1.1-0.3-2-1.4-1.8c-6.9,1-14,1.6-20.9,3.1C606.9,69.6,607.1,71.2,608.2,71.2L608.2,71.2z"/>
	</g>
</g>
<g>
	<g>
		<path d="M606,86.5c2.8-0.3,5.5-1.1,8.3-1.5c2.8-0.4,5.6-0.3,8.4-1c0.8-0.2,0.7-1.2,0-1.4c-5-1.7-12.7-0.5-17.1,2.3
			C604.9,85.3,605.1,86.6,606,86.5L606,86.5z"/>
	</g>
</g>
</svg>
