<?xml version="1.0" encoding="utf-8"?>
<!-- Generator: Adobe Illustrator 22.0.0, SVG Export Plug-In . SVG Version: 6.00 Build 0)  -->
<svg version="1.1" id="Layer_1" xmlns="http://www.w3.org/2000/svg" xmlns:xlink="http://www.w3.org/1999/xlink" x="0px" y="0px"
	 viewBox="548 20 836 800" style="enable-background:new 548 20 836 800;" xml:space="preserve">
<g transform="translate(0,-1027.3622)">
	<g transform="matrix(0.15924566,0,0,0.15924566,207.89395,1068.0934)">
		<g transform="matrix(0.49057702,0,0,0.49057702,-852.92038,-152.96769)">
			<path d="M15240.2,4461.5c-67.3-67.6-1122.4,873-2355.2,2099.7s-2178.7,2277-2111.4,2344.6s1122.4-873,2355.2-2099.7
				S15307.5,4529.1,15240.2,4461.5z"/>
			<path d="M15199.5,4381c7.9-95.1-523.9-217.1-1187-272.3c-663.2-55.3-1207.8-23-1215.7,72.1c-7.9,95.1,523.9,217.1,1187,272.3
				C14647,4508.4,15191.6,4476.1,15199.5,4381z"/>
			<path d="M10674.3,8906.3c94.9-9.5,118.1-555.4,51.8-1218.6S10529,6494,10434,6503.5s-118.1,555.4-51.8,1218.6
				S10579.4,8915.7,10674.3,8906.3z"/>
			<path d="M12736.7,4140.7c68.5-66.4-450.1-712.3-1157.4-1441.8c-707.4-729.5-1337.1-1267.6-1405.5-1201.2
				c-68.5,66.4,450.1,712.3,1157.4,1441.8C12038.5,3669,12668.2,4207.1,12736.7,4140.7z"/>
			<path d="M10414,6423.4c66.9-68-452.9-688.3-1160.3-1384.6C8546.4,4342.5,7918,3832.5,7851.1,3900.5
				c-66.9,68,452.9,688.3,1160.3,1384.6C9718.7,5981.4,10347.1,6491.4,10414,6423.4z"/>
			<path d="M7690.9,3900.5c-0.1-1.4-0.5-2.7-1.3-4c-0.7-1.2-1.7-2.5-3-3.6c-2.6-2.3-6.2-4.6-11-6.7l0,0l0,0
				c-9.3-4.2-22.7-8-40.1-11.6l0,0c-32.8-6.7-79.5-12.5-139-18.2l0,0c-75.2-7.3-263.1-21.2-402-38.2l0,0
				c-62.2-7.7-130.4-17.3-197-31.7l0,0c-50.9-11.4-101.9-24-143.4-43.9l0,0c-27.8-18.1-47.5-24.8-38.4-26.3l0,0
				c4,4.7,6.4,10.2,7.8,18.9l0,0l0,0c-0.8,7.3,1.7,8,3.8,2l0,0c67-124.4,149.5-243.1,249.3-378.4l0,0
				c113.6-153.3,237.1-305.7,376.1-469.3c245.4-288.7,513.5-581.4,813.1-886.8c50.5-51.5,101-102.3,151.3-152.6
				c348.6-347.7,659.5-637.8,983.7-898.1c140.5-112.5,267.6-208.1,399.9-288.9c105.2-60.7,185.3-110.3,267.5-122.4
				c3.2-3,12.4-2.8,15.7-1c13.7,4.9,27.5,28.7,44.3,57.1c46.8,86.3,65.9,204.4,81.6,297.7c22.7,314.7,51.2,500.7,83.7,503.1l0,0l0,0
				c0.2,0,0.2,0,0.2,0s0,0,0.2,0l0,0l0,0c32.5,1,64.8-182.5,94.1-508.7c1.5-100.7-2.7-238.7-52.3-380.1
				c-15.6-48-45.7-103.2-100.2-154.2c-53.9-45.1-122.9-68.7-196.8-62.4c-139.7,14.3-262.3,66.7-374.4,127.9
				c-153.9,79.9-300.2,175.9-451.3,285.9c-348.1,252.9-684.7,549.5-1038.9,899.2c-51.7,51-103.4,102.7-155,155.4
				c-305.3,311.1-576.8,618.8-817.4,923.3c-136.4,172.6-258.3,338.9-367.7,506.3c-95.6,145.8-177.4,285.4-242.1,433.1l0,0
				c-15.3,30.1-24.6,69.5-24.7,116.1v0l0,0c2,42.6,15.1,81.2,37.2,113.8l0,0c55.5,69.5,115.9,101.9,163.2,112.9l0,0
				c71,23.4,138.4,33.3,197.1,38.3l0,0c78.8,7.3,153.8,8.1,220.4,6.5l0,0c171.3-4,319.3-23.7,416.3-41.9l0,0
				c59.8-11.2,106.3-23,138.1-34.3l0,0c16.9-6,29.8-11.9,38.4-17.5l0,0l0,0c4.4-2.9,7.7-5.7,9.8-8.5c1.1-1.4,1.9-2.8,2.4-4.1
				C7690.8,3903.2,7691,3901.8,7690.9,3900.5L7690.9,3900.5z"/>
			<path d="M13397.5,6643.6c-56.7,58.5,976.6,1150.5,2409.5,2559.9c190.1,289.1,384.8,576.6,593.5,884.1c1.2,0.7-17.2-10.9-16-10.2
				c-345.9-220.7-667-425.2-989.6-624.1v0c-1390.6-1390.1-2460.6-2385.4-2517.9-2329.1c-57.3,56.4,926.4,1148.5,2327.7,2596.6l0,0
				c403,144.8,814.9,287.4,1256.6,439.9c0.5,0.2,20,6.9,20.4,7.1c-140.8-405.1-273.3-785.3-407.7-1158.3
				C14584.7,7588.9,13454.2,6585.1,13397.5,6643.6L13397.5,6643.6z"/>
			<path d="M11014.7,6303.2c66.8-68.1-623.5-854.4-1540.9-1755.2s-1716.2-1576.6-1783-1508.6c-66.8,68.1,623.5,854.4,1540.9,1755.2
				S10947.9,6371.3,11014.7,6303.2z"/>
			<path d="M11214.9,6483.5c-70.4,64.3-33.4,219.7,82.6,346.8c116.1,127.1,267.4,178.1,337.9,113.8c70.4-64.3,33.4-219.7-82.6-346.8
				C11436.7,6470.1,11285.4,6419.1,11214.9,6483.5z"/>
		</g>
	</g>
</g>
</svg>
