<?xml version="1.0" encoding="utf-8"?>
<!-- Generator: Adobe Illustrator 22.0.0, SVG Export Plug-In . SVG Version: 6.00 Build 0)  -->
<svg version="1.1" id="Layer_1" xmlns="http://www.w3.org/2000/svg" xmlns:xlink="http://www.w3.org/1999/xlink" x="0px" y="0px"
	 viewBox="1729.3 0 190.7 148" style="enable-background:new 1729.3 0 190.7 148;" xml:space="preserve">
<style type="text/css">
	.st0{fill:none;}
	.st1{fill:#1C1C1B;}
</style>
<path class="st0" d="M1865,38.1c-7,0-14,1.6-19.9,4.6c-3.8,1.9-8.1,4.4-11.2,8.2l-0.4,0.5c-0.3,0.4-0.7,0.8-1,1.2
	c4.1-0.9,8-2.7,11.7-4.4c2.8-1.3,5.8-2.7,8.8-3.6c5.4-1.7,11.5-2.5,17.9-2.3c0.5,0,1,0,1.6,0c3.4,0.1,7.4,0.2,10.7,1.2
	c-1.7-1.4-3.6-2.7-6-3.5C1873.5,38.7,1869.4,38.1,1865,38.1z"/>
<path class="st0" d="M1856.9,51.6c-0.9,1.2-1.4,2.7-1.9,4.7c-0.6,3.1-0.6,5.9,0.2,8.3c1.7,5.4,6,9,10.7,9c0,0,0,0,0,0
	c1.3,0,2.7-0.3,4-0.8c4.5-1.8,7.9-7,8.6-12.3c-2.1,4.9-6.5,8.3-11.1,8.3c0,0,0,0,0,0c-0.9,0-1.8-0.1-2.7-0.4
	c-6.4-1.7-7.8-8.3-6.4-13.7C1857.7,53.9,1857.1,52.8,1856.9,51.6z"/>
<path class="st0" d="M1871.3,48c-0.2-0.1-0.4-0.1-0.7-0.2l-1.9,2.7c0.5,1.3,1.4,1.5,2.1,1.5c0.7,0,1.4-0.3,2-0.7
	c-0.2-0.5-0.2-0.9,0-1.3c0.1-0.4,0.4-0.6,0.8-0.8c-0.1-0.2-0.2-0.3-0.3-0.5C1872.9,48.5,1872.2,48.2,1871.3,48z"/>
<path class="st0" d="M1837.1,64.2c2.5,2.8,4.9,5.5,7.9,7.6c6.4,4.4,13.5,6.8,20.5,6.8c2.9,0,5.7-0.4,8.4-1.2
	c9.6-2.9,17.3-9.4,22.2-19c0,0-0.1-0.1-0.1-0.1c-0.8-0.9-1.8-1.7-2.7-2.4c-1.1-0.8-2.1-1.7-3-2.7c-1.8-2.3-3.9-4.9-6.9-5.7
	c-2.3-0.6-4.8-1.1-7.4-1.4c0.1,0.1,0.1,0.2,0.2,0.4c0.9,0.7,1.7,1.5,2.3,2.2c5,6.1,4.8,16.4-0.5,22.5c-3.2,3.6-7.6,5.7-12.2,5.7
	c-4,0-7.7-1.6-10.4-4.6c-3-3.3-4.7-9-4.1-13.9c0.3-2,0.6-4.5,1.6-6.6c0.6-1.3,1.6-2.2,2.5-3.2c0.4-0.4,0.8-0.8,1.2-1.3
	c-6.2,1.5-12.7,4-20.9,7.9c-1.4,0.7-3.8,1.2-5.4,1.2c0.3,0.7,1.6,2.4,3.8,4.6C1835.2,62.1,1836.2,63.1,1837.1,64.2z"/>
<path class="st0" d="M1860.7,48.4c0,0.4,0,0.7,0,1c0.7-1.1,1.6-2,2.5-2.8C1862,47,1861.1,47.6,1860.7,48.4z"/>
<path d="M1897,52.6c-0.7-0.5-1.4-1-2-1.6c-1.4-1.4-2.8-3-4.1-4.4c-0.8-0.9-1.7-1.9-2.6-2.8c-5.5-5.9-12.9-8.8-22.7-8.8
	c-2.6,0-5.3,0.2-8.4,0.6c-5.7,0.8-11.4,2.7-17,5.8c-2.8,1.6-5.3,3.6-7.4,5.4c-0.8,0.7-1.5,1.6-2.1,2.5c-1.1,1.5-2.2,3-4,3.4
	c-0.7,0.1-1.1,0.6-1.2,1.2c-0.1,0.6,0.1,1.2,0.5,1.6c-0.1,0.4,0,0.9,0.1,1.5c0.4,1.8,2.1,3.4,3.5,4.6c0.3,0.3,0.6,0.5,0.9,0.8
	c1.4,1.3,2.7,2.8,3.9,4.2c1,1.2,2,2.4,3.1,3.5c7.6,7.7,17.5,11.9,28,11.9c1.4,0,2.8-0.1,4.2-0.2c9.7-1.1,19.3-6.7,25.1-14.8
	c0.2-0.2,0.4-0.5,0.7-0.9c2.1-2.7,5.9-7.8,4.4-10.3C1899.3,54.3,1898.1,53.4,1897,52.6z M1864.9,68.4c0.9,0.2,1.8,0.4,2.7,0.4
	c0,0,0,0,0,0c4.6,0,9-3.3,11.1-8.3c-0.7,5.4-4.1,10.5-8.6,12.3c-1.3,0.5-2.7,0.8-4,0.8c0,0,0,0,0,0c-4.7,0-9-3.6-10.7-9
	c-0.8-2.4-0.8-5.2-0.2-8.3c0.4-2,1-3.5,1.9-4.7c0.2,1.2,0.7,2.2,1.5,3C1857.1,60.1,1858.5,66.6,1864.9,68.4z M1860.7,49.4
	c0-0.3,0-0.7,0-1c0.4-0.8,1.2-1.4,2.5-1.8C1862.3,47.4,1861.5,48.4,1860.7,49.4z M1872.9,50.1c-0.2,0.4-0.2,0.9,0,1.3
	c-0.6,0.4-1.3,0.7-2,0.7c-0.7,0-1.6-0.3-2.1-1.5l1.9-2.7c0.2,0,0.4,0.1,0.7,0.2c0.9,0.2,1.6,0.5,2,0.8c0.1,0.2,0.3,0.3,0.3,0.5
	C1873.3,49.5,1873.1,49.8,1872.9,50.1z M1872.4,42.3c-0.5,0-1.1,0-1.6,0c-6.4-0.2-12.5,0.5-17.9,2.3c-3,1-5.9,2.3-8.8,3.6
	c-3.8,1.7-7.7,3.5-11.7,4.4c0.3-0.4,0.7-0.8,1-1.2l0.4-0.5c3.1-3.8,7.4-6.2,11.2-8.2c5.9-2.9,12.9-4.6,19.9-4.6
	c4.4,0,8.5,0.6,12.2,1.9c2.3,0.8,4.3,2.1,6,3.5C1879.8,42.5,1875.8,42.4,1872.4,42.3z M1835.8,55.2c8.2-3.9,14.7-6.4,20.9-7.9
	c-0.4,0.4-0.8,0.8-1.2,1.3c-0.9,0.9-1.9,1.9-2.5,3.2c-1.1,2.1-1.4,4.6-1.6,6.6c-0.6,4.9,1.1,10.6,4.1,13.9c2.7,3,6.4,4.6,10.4,4.6
	c4.6,0,9-2.1,12.2-5.7c5.3-6.1,5.6-16.4,0.5-22.5c-0.6-0.8-1.4-1.5-2.3-2.2c-0.1-0.1-0.1-0.2-0.2-0.4c2.6,0.3,5.1,0.7,7.4,1.4
	c3,0.8,5.1,3.4,6.9,5.7c0.9,1.1,1.9,1.9,3,2.7c1,0.7,1.9,1.5,2.7,2.4c0,0,0.1,0.1,0.1,0.1c-4.9,9.6-12.5,16.1-22.2,19
	c-2.7,0.8-5.5,1.2-8.4,1.2c-7,0-14.1-2.3-20.5-6.8c-3.1-2.1-5.4-4.8-7.9-7.6c-0.9-1-1.8-2.1-2.8-3.1c-2.2-2.2-3.5-3.9-3.8-4.6
	C1832,56.4,1834.4,55.9,1835.8,55.2z"/>
<g>
	<g>
		<g>
			<path class="st1" d="M1858.8,1.2c-18.3,2.3-35.1,12.2-45,28c-9.7,15.5-9.9,35.6-2.5,51.9c0.3,0.7,1.1,0.7,1.7,0.5
				c6-1.3,10.5,5.9,5.7,10c-0.3,0.2-0.4,0.7-0.1,1c13.7,16.1,35.6,23.3,56.2,19.3c18.3-3.5,34.3-16.2,41.3-33.5
				c7.8-19.2,5-40.1-8.1-56.1C1896.1,8.1,1877.3-0.1,1858.8,1.2c-1.6,0.1-2.3,2.1-0.3,1.9c20.3-1.4,39.6,9.4,50.8,26
				c12.2,18.2,10.1,43.7-2.7,61c-13.2,17.8-36.9,24.5-57.8,18.9c-5.6-1.5-10.9-4.1-15.8-7.2c-2-1.3-12.5-8.1-10.7-10.7
				c4.7-6.8-3.2-12.9-9.9-11.4c0.6,0.2,1.1,0.3,1.7,0.5c-6.6-14.6-6.9-31.2-0.3-45.9c7.9-17.6,26-29,44.7-31.3
				C1860.1,2.9,1860.8,0.9,1858.8,1.2z"/>
		</g>
	</g>
	<g>
		<g>
			<path class="st1" d="M1911.1,72.1c-8,26-36.9,38.1-61.9,28.9c-22.7-8.3-34.4-32.6-29-55.7c6.1-25.8,35.4-41,60.1-32.8
				c11.2,3.7,20.7,11.7,26.9,21.6C1914.5,45.6,1915,59.5,1911.1,72.1c-0.5,1.6,2.4,1.7,2.8,0.4c7.2-23-2.1-45.6-22.7-57.8
				c-19.9-11.7-44.9-7.5-61.1,8.6c-15.1,15-18,37.9-8.7,56.7c10.7,21.5,37.4,30.8,59.8,24.2c15.4-4.5,28-16.5,32.7-31.9
				C1914.4,70.8,1911.5,70.8,1911.1,72.1z"/>
		</g>
	</g>
	<g>
		<g>
			<path class="st1" d="M1815.1,79.1c-28.4,15.8-56.7,31.7-85.1,47.5c-0.1,0.1-0.4,0.3-0.3,0.4c3.2,8,7.1,15.8,14.5,20.6
				c0.7,0.4,2.2-0.2,2.7-0.6c16.5-14.2,33.7-27.5,51.5-39.9c7.9-5.5,16.5-10.2,24-16.1c5.3-4.1-0.7-11-5-12.5
				c-0.6-0.2-3.2,0.8-2.4,1.1c3.4,1.2,5.6,3.6,6.3,7.1c1,5-6.7,7.9-10,10.1c-8.1,5.3-16.1,10.8-24,16.5
				c-14.9,10.7-29.2,22-43.1,33.9c0.9-0.2,1.8-0.4,2.7-0.6c-3.8-2.5-6.6-5.7-9.1-9.5c-1.1-1.6-6.5-10-3.9-11.5
				c9.3-5.2,18.5-10.3,27.8-15.5c18.5-10.3,37.1-20.7,55.6-31C1818.5,78.5,1815.6,78.8,1815.1,79.1z"/>
		</g>
	</g>
	<g>
		<path class="st1" d="M1747.6,144.5c0,0-0.1-0.3-0.3-0.8c-0.1-0.3-0.2-0.6-0.3-0.9c-0.1-0.4-0.2-0.8-0.4-1.2
			c-0.2-0.4-0.4-0.9-0.5-1.4c-0.2-0.5-0.5-0.9-0.7-1.5c-0.3-0.5-0.5-1-0.9-1.5c-0.3-0.5-0.7-1-1-1.5c-0.4-0.5-0.8-0.9-1.1-1.4
			c-0.4-0.5-0.8-0.9-1.2-1.3c-0.4-0.4-0.7-0.8-1.2-1.1c-0.4-0.3-0.8-0.6-1.1-0.9c-0.3-0.3-0.7-0.6-1-0.8c-0.3-0.2-0.6-0.4-0.8-0.5
			c-0.4-0.3-0.7-0.5-0.7-0.5s0.3,0.1,0.8,0.3c0.2,0.1,0.6,0.2,0.9,0.4c0.2,0.1,0.4,0.2,0.6,0.2c0.2,0.1,0.4,0.2,0.6,0.4
			c0.4,0.3,0.8,0.5,1.3,0.8c0.5,0.3,0.9,0.7,1.3,1.1c0.4,0.4,0.9,0.8,1.3,1.3c0.4,0.5,0.8,1,1.2,1.4c0.3,0.5,0.7,1.1,1,1.6
			c0.4,0.5,0.6,1.1,0.8,1.6c0.2,0.5,0.5,1,0.6,1.6c0.2,0.5,0.3,1,0.4,1.5c0.1,0.2,0.1,0.4,0.2,0.7c0,0.2,0,0.4,0.1,0.6
			c0,0.4,0.1,0.7,0.1,1C1747.5,144.2,1747.6,144.5,1747.6,144.5z"/>
	</g>
	<g>
		<path class="st1" d="M1757.4,135.2c0,0-0.1-0.2-0.2-0.5c-0.1-0.3-0.3-0.8-0.5-1.3c-0.1-0.3-0.3-0.5-0.4-0.9
			c-0.1-0.3-0.3-0.6-0.5-0.9c-0.3-0.7-0.8-1.3-1.2-1.9c-0.5-0.6-0.9-1.3-1.4-1.8c-0.2-0.3-0.4-0.6-0.7-0.8c-0.2-0.2-0.5-0.5-0.7-0.7
			c-0.4-0.4-0.8-0.7-1-1c-0.3-0.3-0.4-0.4-0.4-0.4s0.2,0.1,0.5,0.2c0.3,0.2,0.8,0.3,1.3,0.7c0.2,0.2,0.5,0.4,0.8,0.6
			c0.3,0.2,0.5,0.5,0.8,0.7c0.3,0.3,0.6,0.5,0.8,0.9c0.2,0.3,0.5,0.6,0.8,1c0.2,0.4,0.4,0.7,0.6,1.1c0.2,0.3,0.3,0.7,0.5,1.1
			c0.1,0.4,0.3,0.7,0.4,1c0.1,0.3,0.2,0.7,0.2,1c0.2,0.6,0.1,1.1,0.2,1.4C1757.4,135,1757.4,135.2,1757.4,135.2z"/>
	</g>
	<g>
		<path class="st1" d="M1763.6,129.6c0,0-0.6-0.5-1.3-1.4c-0.8-0.9-1.7-2.1-2.6-3.4c-0.9-1.3-1.7-2.6-2.3-3.6
			c-0.6-1-0.9-1.7-0.9-1.7s0.6,0.5,1.3,1.4c0.8,0.9,1.7,2.1,2.6,3.4c0.9,1.3,1.7,2.6,2.3,3.6
			C1763.3,128.9,1763.6,129.6,1763.6,129.6z"/>
	</g>
	<g>
		<path class="st1" d="M1768.1,125.2c0,0,0-0.2-0.1-0.4c0-0.1-0.1-0.3-0.1-0.5c0-0.2-0.1-0.4-0.1-0.6c-0.1-0.2-0.1-0.4-0.2-0.7
			c0-0.2-0.2-0.5-0.3-0.7c-0.1-0.3-0.2-0.5-0.3-0.8c-0.1-0.2-0.3-0.5-0.4-0.7c-0.2-0.2-0.3-0.5-0.5-0.7c-0.2-0.2-0.3-0.4-0.5-0.6
			c-0.2-0.2-0.3-0.4-0.5-0.6c-0.2-0.2-0.4-0.3-0.5-0.5c-0.3-0.3-0.7-0.5-0.9-0.7c-0.2-0.2-0.3-0.3-0.3-0.3s0.2,0,0.4,0.1
			c0.1,0,0.3,0.1,0.5,0.1c0.2,0,0.4,0.1,0.6,0.2c0.2,0.1,0.4,0.2,0.7,0.4c0.3,0.1,0.5,0.3,0.7,0.5c0.2,0.2,0.5,0.4,0.7,0.7
			c0.2,0.3,0.4,0.5,0.6,0.8c0.1,0.3,0.3,0.6,0.4,0.9c0.2,0.3,0.2,0.6,0.3,0.9c0.1,0.3,0.2,0.6,0.2,0.9c0,0.3,0,0.6,0,0.8
			c0,0.2,0,0.5-0.1,0.6c0,0.2-0.1,0.3-0.1,0.5C1768.1,125.1,1768.1,125.2,1768.1,125.2z"/>
	</g>
	<g>
		<path class="st1" d="M1775.1,122.8c0,0,0-0.2-0.1-0.5c0-0.2,0-0.4-0.1-0.6c0-0.2-0.1-0.5-0.1-0.7c-0.1-0.3-0.1-0.5-0.2-0.8
			c0-0.3-0.2-0.6-0.3-0.9c-0.1-0.3-0.2-0.6-0.4-1c-0.2-0.3-0.3-0.6-0.5-0.9c-0.2-0.3-0.4-0.6-0.6-0.9c-0.2-0.3-0.4-0.6-0.6-0.8
			c-0.2-0.2-0.4-0.5-0.6-0.7c-0.2-0.2-0.4-0.4-0.6-0.6c-0.2-0.2-0.4-0.4-0.6-0.5c-0.2-0.1-0.3-0.3-0.5-0.4c-0.3-0.2-0.4-0.3-0.4-0.3
			s0.2,0,0.5,0.2c0.2,0.1,0.4,0.1,0.6,0.2c0.2,0.1,0.5,0.2,0.7,0.3c0.2,0.2,0.5,0.3,0.8,0.5c0.3,0.2,0.5,0.4,0.8,0.7
			c0.3,0.3,0.6,0.5,0.8,0.8c0.2,0.3,0.4,0.6,0.7,1c0.2,0.4,0.3,0.7,0.5,1.1c0.2,0.3,0.2,0.7,0.3,1.1c0.1,0.4,0.2,0.7,0.2,1
			c0,0.3,0,0.7,0,1c0,0.3,0,0.6-0.1,0.8c0,0.2-0.1,0.4-0.1,0.6C1775.1,122.6,1775.1,122.8,1775.1,122.8z"/>
	</g>
	<g>
		<path class="st1" d="M1780.1,115c0,0,0-0.1,0-0.4c0-0.2,0-0.5,0-0.9c0-0.2-0.1-0.4-0.1-0.5c0-0.2-0.1-0.4-0.2-0.6
			c-0.1-0.4-0.3-0.8-0.6-1.2c-0.2-0.4-0.5-0.7-0.8-1c-0.2-0.1-0.3-0.3-0.4-0.4c-0.2-0.1-0.3-0.2-0.4-0.3c-0.3-0.2-0.5-0.4-0.7-0.4
			c-0.2-0.1-0.3-0.2-0.3-0.2s0.1,0,0.4,0c0.1,0,0.3,0,0.4,0c0.2,0,0.3,0,0.5,0.1c0.4,0.1,0.8,0.3,1.2,0.6c0.2,0.2,0.4,0.3,0.6,0.5
			c0.2,0.2,0.3,0.4,0.5,0.6c0.1,0.2,0.3,0.5,0.3,0.7c0.1,0.2,0.1,0.5,0.2,0.8c0.1,0.5,0.1,1,0,1.4c-0.1,0.4-0.2,0.7-0.3,0.9
			C1780.2,114.9,1780.1,115,1780.1,115z"/>
	</g>
</g>
</svg>
